<?xml version="1.0" standalone="no"?>
<!DOCTYPE svg PUBLIC "-//W3C//DTD SVG 20010904//EN"
 "http://www.w3.org/TR/2001/REC-SVG-20010904/DTD/svg10.dtd">
<svg version="1.0" xmlns="http://www.w3.org/2000/svg"
 width="4998.000000pt" height="975.000000pt" viewBox="0 0 4998.000000 975.000000"
 preserveAspectRatio="xMidYMid meet">
<metadata>
Created by potrace 1.12, written by Peter Selinger 2001-2015
</metadata>
<g transform="translate(0.000000,975.000000) scale(0.100000,-0.100000)"
fill="#000000" stroke="none">
<path d="M44006 8225 c4 -16 2 -25 -6 -25 -7 0 -9 -8 -5 -19 3 -11 1 -22 -5
-26 -6 -4 -8 -15 -5 -26 4 -11 2 -19 -5 -19 -7 0 -9 -8 -5 -20 4 -12 2 -20 -5
-20 -6 0 -8 -10 -4 -25 4 -16 2 -25 -5 -25 -7 0 -9 -10 -5 -26 5 -20 4 -25 -5
-20 -8 6 -10 0 -5 -18 4 -17 2 -26 -6 -26 -7 0 -9 -8 -5 -19 3 -11 2 -22 -4
-25 -5 -3 -7 -15 -4 -26 3 -12 0 -20 -7 -20 -7 0 -9 -8 -5 -19 3 -11 1 -22 -5
-26 -6 -4 -8 -15 -5 -26 4 -11 2 -19 -5 -19 -7 0 -9 -8 -5 -19 3 -11 2 -22 -4
-25 -5 -3 -7 -15 -4 -26 3 -12 0 -20 -7 -20 -7 0 -9 -8 -5 -19 3 -11 1 -22 -5
-26 -6 -4 -8 -15 -5 -26 4 -11 2 -19 -5 -19 -7 0 -9 -8 -5 -19 3 -11 2 -22 -4
-25 -5 -3 -7 -15 -4 -26 3 -12 0 -20 -7 -20 -7 0 -9 -8 -5 -19 3 -11 1 -22 -5
-26 -6 -4 -8 -15 -5 -26 4 -11 2 -19 -5 -19 -7 0 -9 -8 -5 -19 3 -11 2 -22 -4
-25 -5 -3 -7 -15 -4 -26 3 -11 0 -20 -6 -20 -7 0 -9 -9 -5 -25 4 -16 2 -25 -6
-25 -7 0 -9 -8 -5 -20 4 -12 2 -20 -5 -20 -7 0 -9 -8 -5 -19 3 -11 1 -22 -4
-25 -6 -4 -8 -13 -4 -21 3 -9 0 -21 -6 -29 -6 -7 -8 -16 -4 -19 3 -4 1 -13 -6
-20 -6 -8 -9 -22 -5 -31 3 -9 1 -16 -6 -16 -7 0 -9 -8 -5 -19 3 -11 2 -22 -4
-25 -5 -3 -7 -15 -4 -26 3 -11 0 -20 -6 -20 -7 0 -9 -9 -5 -25 4 -16 2 -25 -6
-25 -7 0 -9 -8 -5 -20 4 -12 2 -20 -5 -20 -7 0 -9 -8 -5 -19 3 -11 2 -22 -4
-25 -5 -3 -7 -15 -4 -26 3 -12 0 -20 -7 -20 -7 0 -9 -8 -5 -19 3 -11 1 -22 -5
-26 -6 -4 -8 -15 -5 -26 4 -11 2 -19 -5 -19 -7 0 -9 -8 -5 -19 3 -11 1 -22 -5
-26 -6 -4 -8 -15 -5 -26 4 -11 2 -19 -5 -19 -6 0 -8 -10 -4 -25 4 -16 2 -25
-6 -25 -7 0 -9 -8 -5 -20 4 -12 2 -20 -5 -20 -7 0 -9 -8 -5 -19 3 -11 1 -22
-5 -26 -6 -4 -8 -15 -5 -25 3 -10 1 -21 -5 -25 -6 -3 -8 -11 -4 -16 3 -5 1
-16 -5 -23 -6 -7 -9 -21 -5 -30 3 -9 1 -16 -6 -16 -7 0 -9 -8 -5 -19 3 -11 1
-22 -5 -26 -6 -4 -8 -15 -5 -26 4 -11 2 -19 -5 -19 -6 0 -8 -10 -4 -25 4 -16
2 -25 -6 -25 -7 0 -9 -8 -5 -20 4 -12 2 -20 -5 -20 -7 0 -9 -8 -5 -19 3 -11 1
-22 -5 -26 -6 -4 -8 -15 -5 -26 4 -11 2 -19 -5 -19 -7 0 -9 -8 -5 -19 3 -11 1
-22 -5 -26 -6 -4 -8 -15 -5 -26 4 -11 2 -19 -5 -19 -7 0 -9 -8 -5 -19 3 -11 1
-22 -5 -26 -6 -4 -8 -15 -5 -26 4 -11 2 -19 -5 -19 -6 0 -8 -10 -4 -25 4 -16
2 -25 -6 -25 -7 0 -9 -8 -5 -20 4 -12 2 -20 -5 -20 -7 0 -9 -8 -5 -19 3 -11 1
-22 -5 -26 -6 -4 -8 -15 -5 -25 3 -10 2 -21 -4 -24 -5 -3 -7 -15 -4 -26 3 -12
0 -20 -7 -20 -7 0 -9 -8 -5 -20 4 -12 2 -20 -5 -20 -7 0 -9 -8 -5 -19 3 -11 1
-22 -5 -26 -6 -4 -8 -15 -5 -26 4 -11 2 -19 -5 -19 -6 0 -8 -10 -4 -25 4 -16
2 -25 -6 -25 -7 0 -9 -8 -5 -20 4 -12 2 -20 -5 -20 -6 0 -8 -10 -4 -25 4 -16
2 -25 -6 -25 -7 0 -9 -8 -5 -19 3 -11 2 -22 -4 -25 -5 -3 -7 -15 -4 -26 3 -12
0 -20 -7 -20 -7 0 -9 -8 -5 -19 3 -11 2 -22 -4 -25 -5 -3 -7 -15 -4 -26 3 -12
0 -20 -7 -20 -7 0 -9 -8 -5 -20 4 -12 2 -20 -5 -20 -8 0 -10 -9 -6 -25 4 -15
2 -25 -4 -25 -7 0 -9 -8 -5 -20 4 -12 2 -20 -5 -20 -7 0 -9 -8 -5 -19 3 -11 1
-22 -5 -26 -6 -4 -8 -15 -5 -25 3 -10 2 -21 -4 -24 -5 -3 -7 -15 -4 -26 3 -12
0 -20 -7 -20 -7 0 -9 -8 -5 -19 3 -11 1 -22 -5 -26 -6 -3 -8 -11 -4 -16 3 -5
0 -16 -6 -24 -6 -8 -9 -19 -5 -25 3 -5 3 -16 -2 -22 -4 -7 -8 -17 -8 -23 0 -5
-18 -9 -40 -7 -37 2 -798 6 -3030 18 -916 4 -2037 10 -3595 19 -503 3 -1338 7
-1855 10 -517 3 -1343 7 -1835 10 -492 3 -1293 7 -1780 10 -487 3 -1312 7
-1835 10 -1989 11 -2799 15 -3675 20 -498 2 -1317 7 -1820 10 -503 3 -1324 7
-1825 10 -500 3 -1322 7 -1825 10 -503 3 -1318 7 -1810 10 -1968 10 -2805 15
-3675 20 -500 3 -1308 7 -1795 10 -487 3 -1306 7 -1820 11 -514 3 -1288 6
-1720 7 -432 1 -1008 6 -1280 11 -287 5 -492 5 -487 0 5 -5 81 -10 170 -12
153 -2 260 -5 592 -17 77 -3 203 -7 280 -10 77 -3 208 -7 290 -10 83 -3 213
-8 290 -10 336 -11 449 -15 595 -20 299 -10 426 -15 580 -20 85 -2 220 -7 300
-10 80 -3 208 -7 285 -10 213 -7 414 -14 575 -20 80 -2 215 -7 300 -10 85 -3
220 -8 300 -10 80 -3 206 -7 280 -10 288 -9 461 -15 600 -20 511 -17 655 -22
1165 -40 83 -3 215 -7 295 -10 80 -3 206 -7 280 -10 208 -7 574 -20 885 -30
88 -3 223 -8 300 -10 77 -3 203 -7 280 -10 315 -10 467 -15 595 -20 74 -2 205
-7 290 -10 85 -3 216 -7 290 -10 186 -6 406 -14 590 -20 85 -3 218 -7 295 -10
77 -3 203 -7 280 -10 273 -9 432 -15 580 -20 155 -5 348 -11 590 -20 77 -2
210 -7 295 -10 85 -2 220 -7 300 -10 80 -2 210 -7 290 -10 80 -2 204 -7 275
-9 72 -3 204 -8 295 -11 330 -11 458 -15 590 -20 128 -4 226 -7 590 -20 85 -3
214 -7 285 -10 72 -2 204 -6 295 -10 91 -3 230 -7 310 -10 80 -3 210 -7 290
-10 221 -8 409 -14 575 -20 83 -3 211 -7 285 -10 74 -2 207 -7 295 -10 88 -3
221 -7 295 -10 74 -2 205 -7 290 -10 85 -3 216 -7 290 -10 74 -2 207 -7 295
-10 88 -3 223 -7 300 -10 77 -3 208 -7 290 -10 215 -7 408 -14 580 -20 381
-13 419 -14 880 -30 83 -2 213 -7 290 -10 77 -3 208 -7 290 -10 83 -2 218 -7
300 -10 83 -3 215 -7 295 -10 80 -3 206 -7 280 -10 74 -2 207 -7 295 -10 333
-11 454 -15 585 -20 74 -2 207 -7 295 -10 88 -3 225 -7 305 -10 197 -7 459
-16 870 -30 85 -3 216 -7 290 -10 74 -3 205 -7 290 -10 220 -7 423 -14 587
-20 204 -7 582 -20 873 -30 80 -2 213 -7 295 -10 83 -3 215 -7 295 -10 80 -2
208 -7 285 -9 338 -13 603 -22 1180 -41 77 -3 203 -7 280 -9 338 -12 459 -16
590 -21 77 -2 205 -7 285 -10 80 -2 213 -7 295 -10 83 -3 218 -7 300 -10 83
-3 211 -7 285 -10 74 -2 207 -7 295 -10 320 -10 453 -15 585 -20 271 -9 458
-16 600 -20 80 -2 206 -7 280 -10 133 -5 285 -10 590 -20 152 -5 293 -10 575
-20 77 -3 210 -7 295 -10 85 -2 218 -7 295 -10 77 -2 208 -7 290 -10 83 -2
215 -7 295 -10 314 -11 531 -18 870 -30 85 -2 216 -7 290 -10 126 -4 265 -9
590 -20 74 -3 205 -7 290 -10 85 -3 208 -5 273 -5 64 1 133 -3 152 -9 33 -9
57 0 35 14 -6 3 -10 30 -10 58 0 29 -2 80 -5 115 -12 139 -16 189 -18 237 -1
28 -6 56 -11 63 -4 7 -5 34 -1 58 4 28 2 50 -4 58 -6 7 -11 35 -11 62 0 27 -2
77 -5 112 -3 34 -8 89 -11 122 -2 33 -7 87 -10 120 -2 33 -7 87 -10 120 -2 33
-7 88 -9 123 -3 34 -8 89 -10 122 -3 33 -6 83 -8 110 -1 28 -6 56 -11 63 -4 7
-5 34 -1 58 4 30 2 50 -5 60 -8 9 -10 30 -5 60 4 30 2 50 -5 60 -8 9 -10 30
-5 60 4 28 2 50 -4 58 -6 7 -11 35 -11 62 0 47 -4 114 -15 234 -3 30 -8 84
-10 120 -3 36 -8 92 -10 125 -3 33 -7 83 -8 110 -2 28 -6 57 -10 65 -3 8 -7
38 -6 65 0 28 -3 77 -6 110 -7 75 -14 158 -21 235 -2 33 -7 87 -10 120 -12
146 -15 188 -17 235 -2 28 -6 57 -10 65 -3 8 -7 38 -6 65 0 28 -3 78 -6 113
-12 140 -15 189 -18 237 -1 28 -6 57 -10 65 -4 8 -7 35 -6 60 0 25 -3 72 -6
105 -3 33 -8 89 -11 125 -3 36 -7 92 -10 125 -2 33 -6 83 -7 110 -2 47 -20
105 -32 105 -3 0 -3 -11 1 -25z"/>
<path d="M44180 8191 c1 -20 7 -67 16 -106 8 -38 17 -86 19 -105 3 -19 10 -53
15 -75 5 -22 19 -94 30 -160 11 -66 29 -160 40 -210 11 -49 31 -155 45 -235
14 -80 32 -178 40 -217 19 -91 40 -198 56 -283 6 -36 20 -108 31 -160 11 -52
23 -124 28 -160 5 -36 13 -81 19 -100 13 -48 32 -144 41 -210 4 -30 13 -75 19
-100 5 -25 15 -70 20 -100 5 -30 19 -100 30 -155 12 -55 21 -111 21 -123 0
-13 4 -31 9 -41 5 -9 13 -46 16 -80 4 -35 11 -75 16 -89 5 -13 14 -52 19 -86
10 -61 34 -191 64 -341 9 -44 20 -107 25 -140 5 -33 14 -80 20 -105 18 -80 54
-263 67 -340 28 -166 44 -250 68 -365 14 -66 32 -163 41 -215 8 -52 22 -124
30 -160 8 -36 24 -117 35 -180 12 -63 34 -175 49 -248 22 -108 25 -135 14
-144 -9 -7 -81 -8 -241 -3 -125 4 -229 8 -232 10 -3 2 -104 6 -225 9 -121 4
-240 9 -265 12 -25 2 -166 9 -315 14 -314 11 -859 33 -1125 45 -63 3 -169 7
-235 10 -210 8 -862 35 -1095 45 -124 6 -277 12 -340 15 -285 12 -353 15 -480
20 -74 3 -227 10 -340 15 -113 6 -389 17 -615 25 -225 8 -504 19 -620 25 -285
13 -397 18 -840 35 -209 8 -528 22 -710 30 -181 8 -442 19 -580 25 -137 5
-344 14 -460 20 -115 5 -277 12 -360 15 -82 3 -251 10 -375 15 -405 17 -472
20 -735 30 -143 6 -339 15 -435 20 -96 5 -263 12 -370 15 -222 6 -391 13 -500
20 -41 3 -136 7 -210 10 -520 20 -679 26 -860 35 -113 5 -329 14 -480 20 -151
6 -356 15 -455 20 -99 5 -261 12 -360 15 -191 6 -286 9 -620 25 -309 14 -439
19 -650 25 -104 3 -204 8 -221 11 -18 2 -155 9 -305 14 -151 6 -321 12 -379
15 -274 12 -589 25 -835 35 -148 5 -360 15 -470 20 -200 10 -412 18 -665 26
-74 2 -211 8 -305 14 -93 5 -242 12 -330 15 -88 3 -266 11 -395 16 -129 5
-345 14 -480 19 -135 5 -285 12 -335 14 -49 3 -211 10 -360 15 -148 6 -314 13
-367 16 -54 3 -213 10 -355 16 -142 5 -364 14 -493 19 -129 5 -302 12 -385 15
-82 3 -238 9 -345 15 -267 14 -378 18 -640 25 -124 4 -232 9 -240 12 -8 2
-141 9 -295 15 -154 5 -318 11 -365 13 -47 2 -206 8 -355 14 -148 6 -304 13
-345 16 -41 2 -149 7 -240 10 -91 3 -253 10 -360 15 -107 6 -251 12 -320 14
-391 13 -719 26 -750 31 -19 2 -174 9 -345 15 -170 6 -391 14 -490 20 -99 5
-250 12 -335 15 -85 3 -202 7 -260 10 -58 3 -222 10 -365 15 -143 6 -357 15
-475 20 -118 5 -287 12 -375 15 -88 3 -234 10 -325 15 -91 5 -262 12 -380 15
-118 3 -243 8 -277 10 -57 5 -323 16 -693 30 -206 8 -335 13 -580 25 -118 5
-386 17 -595 25 -209 8 -479 20 -600 25 -121 5 -344 14 -495 20 -151 6 -288
12 -305 15 -16 2 -140 7 -275 10 -135 3 -263 8 -285 10 -38 5 -221 13 -775 35
-140 5 -307 12 -370 15 -63 3 -223 10 -355 15 -132 5 -397 17 -590 25 -192 8
-460 19 -595 25 -135 5 -292 12 -350 15 -58 2 -172 7 -255 10 -82 3 -195 8
-250 10 -55 3 -219 9 -365 15 -146 5 -303 12 -350 15 -47 3 -206 10 -355 15
-148 6 -310 12 -360 15 -100 5 -338 14 -520 21 -66 2 -214 8 -330 14 -365 17
-699 30 -735 28 -19 -1 -71 2 -115 6 -46 4 -93 3 -110 -3 -29 -9 -28 -9 15
-10 25 -1 63 -6 85 -11 22 -5 87 -11 145 -15 58 -3 123 -10 145 -14 22 -5 74
-10 115 -11 41 -2 85 -4 97 -4 11 -1 19 -5 15 -10 -3 -5 11 -6 33 -3 21 4 120
0 220 -8 100 -9 267 -22 371 -30 104 -9 243 -20 309 -26 66 -5 156 -12 200
-14 44 -3 127 -9 185 -15 58 -5 166 -14 240 -20 74 -6 182 -15 240 -20 58 -6
141 -12 185 -15 44 -3 132 -10 195 -15 63 -6 167 -15 230 -20 63 -5 169 -13
235 -19 66 -5 172 -12 235 -16 63 -3 129 -8 145 -10 17 -2 66 -7 110 -10 44
-3 123 -10 175 -15 52 -5 163 -14 245 -20 83 -6 179 -15 215 -20 36 -5 104
-11 152 -12 49 -2 88 -7 88 -11 0 -5 9 -5 20 -2 18 6 251 -7 363 -20 20 -2
124 -11 230 -20 105 -8 221 -17 257 -20 36 -3 146 -12 245 -20 256 -20 531
-43 665 -55 63 -6 144 -13 180 -15 36 -3 126 -10 200 -16 74 -6 185 -14 245
-19 61 -5 164 -13 230 -19 66 -5 174 -12 240 -16 66 -3 131 -8 145 -10 32 -5
39 -6 535 -46 72 -5 162 -14 200 -19 39 -5 109 -11 157 -12 49 -1 88 -4 88 -7
0 -4 57 -8 127 -9 70 -2 132 -6 137 -10 6 -3 42 -7 81 -7 63 -2 244 -15 410
-30 90 -9 146 -13 300 -25 77 -6 185 -15 240 -20 55 -5 163 -14 240 -20 77 -6
190 -15 250 -20 119 -11 291 -24 505 -40 74 -6 176 -15 225 -20 50 -5 140 -12
200 -15 101 -6 270 -18 405 -30 30 -3 111 -9 180 -15 315 -25 380 -31 460 -40
47 -5 130 -12 185 -15 247 -13 315 -19 315 -28 0 -5 15 -6 36 -3 19 4 86 2
147 -4 147 -14 558 -48 672 -55 50 -3 128 -10 175 -15 47 -5 153 -14 235 -20
83 -6 200 -15 260 -20 61 -5 142 -12 180 -15 39 -3 126 -10 195 -16 121 -9
206 -16 485 -38 113 -9 232 -18 480 -37 33 -2 81 -7 108 -10 26 -2 105 -9 175
-14 70 -5 210 -16 312 -25 245 -20 286 -23 415 -30 61 -4 117 -9 125 -12 8 -3
47 -7 85 -8 70 -2 295 -20 370 -30 22 -2 74 -7 115 -9 111 -7 341 -25 455 -36
55 -5 163 -14 240 -20 77 -5 192 -14 255 -20 130 -11 300 -24 505 -40 77 -6
183 -15 235 -20 52 -5 172 -14 265 -20 94 -6 181 -12 195 -15 14 -2 68 -7 120
-10 52 -3 115 -8 140 -10 95 -11 532 -46 685 -56 88 -5 167 -11 175 -14 8 -2
71 -7 140 -10 69 -4 136 -9 150 -11 23 -4 151 -14 355 -29 44 -4 98 -8 120
-10 22 -2 101 -9 175 -14 74 -6 185 -16 245 -21 61 -5 171 -14 245 -20 128
-10 219 -17 495 -40 66 -5 183 -14 260 -20 77 -6 181 -15 230 -20 50 -5 140
-12 200 -15 61 -4 180 -12 265 -20 85 -7 216 -19 290 -25 74 -6 218 -18 320
-26 102 -9 275 -22 385 -30 229 -17 384 -28 570 -44 72 -6 189 -15 260 -20 72
-5 144 -12 160 -15 17 -3 93 -10 170 -15 142 -9 421 -31 640 -50 132 -11 287
-23 500 -40 77 -6 185 -15 240 -20 55 -6 179 -15 275 -20 96 -6 181 -13 189
-16 7 -2 77 -9 155 -14 208 -14 274 -19 456 -36 91 -8 235 -19 320 -24 85 -5
198 -14 250 -19 52 -6 169 -15 260 -21 91 -6 179 -13 195 -16 17 -3 73 -7 125
-10 52 -3 131 -9 175 -15 44 -5 143 -14 220 -19 142 -9 421 -31 640 -50 134
-11 291 -24 500 -40 77 -6 185 -15 240 -20 55 -6 179 -15 275 -21 96 -5 182
-12 190 -14 13 -4 140 -14 370 -30 41 -3 95 -7 120 -10 49 -6 220 -21 420 -36
69 -5 145 -11 170 -13 25 -2 117 -9 205 -15 88 -7 214 -16 280 -22 66 -5 154
-12 195 -15 41 -2 116 -9 165 -14 50 -6 158 -15 240 -20 83 -6 168 -13 190
-15 22 -2 130 -11 240 -20 305 -23 438 -34 575 -46 140 -12 245 -20 570 -43
124 -9 239 -18 257 -21 28 -5 118 -12 368 -30 44 -3 98 -8 120 -10 42 -6 219
-20 420 -35 66 -5 145 -12 175 -14 30 -3 125 -10 210 -16 85 -6 209 -15 275
-21 66 -5 177 -14 247 -19 70 -5 142 -11 160 -15 18 -3 98 -10 178 -15 80 -5
255 -19 390 -30 135 -11 301 -24 370 -30 69 -5 184 -15 255 -21 149 -12 287
-22 500 -38 83 -7 204 -16 270 -22 111 -9 241 -20 425 -34 41 -3 120 -9 175
-15 151 -14 344 -29 505 -40 186 -13 493 -38 545 -44 22 -3 92 -8 155 -11 63
-4 151 -11 195 -16 44 -5 148 -14 230 -20 206 -15 224 -16 355 -28 151 -14
170 -14 176 4 3 8 -12 53 -35 100 -23 48 -41 90 -41 96 0 5 -4 17 -9 27 -33
61 -51 105 -51 122 0 11 -4 20 -8 20 -4 0 -14 17 -21 38 -7 20 -21 55 -31 77
-10 22 -34 74 -53 115 -19 41 -44 98 -56 125 -13 28 -27 58 -32 67 -5 10 -9
24 -9 31 0 8 -15 43 -32 78 -18 35 -38 78 -45 94 -42 104 -76 181 -84 190 -5
5 -9 16 -9 24 0 15 -19 61 -65 156 -42 88 -105 236 -105 247 0 6 -13 39 -29
72 -74 157 -101 218 -107 243 -4 16 -22 57 -41 93 -18 35 -33 72 -33 81 0 9
-7 22 -15 29 -8 7 -15 16 -15 21 0 5 -29 77 -65 160 -36 83 -65 157 -65 165 0
8 -4 14 -10 14 -5 0 -10 5 -10 11 0 6 -7 25 -15 42 -8 18 -23 56 -33 84 -10
29 -22 50 -25 46 -4 -3 -7 3 -7 13 0 11 -11 44 -25 72 -14 29 -25 54 -25 57 0
5 -66 152 -80 177 -6 10 -10 25 -10 33 0 8 -4 15 -9 15 -5 0 -12 18 -16 40 -4
22 -11 38 -16 34 -5 -3 -9 2 -9 10 0 9 -11 39 -24 68 -57 125 -66 147 -66 152
0 3 -20 48 -45 100 -25 53 -45 100 -45 106 0 5 -8 24 -18 42 -9 18 -26 58 -36
88 -10 30 -24 62 -31 70 -7 8 -22 40 -33 70 -11 30 -34 84 -50 120 -16 36 -33
76 -37 89 -4 14 -16 38 -26 55 -11 17 -19 37 -19 44 0 8 -16 47 -35 88 -19 40
-35 78 -35 83 0 8 -20 51 -42 91 -4 8 -12 24 -17 35 -10 24 -44 98 -77 172
-13 28 -24 55 -24 59 0 9 -34 85 -56 126 -8 14 -14 31 -14 37 0 6 -17 48 -38
93 -21 46 -45 99 -52 118 -8 19 -22 50 -32 68 -10 18 -18 44 -18 57 0 14 -4
25 -9 25 -5 0 -13 10 -17 23 -3 12 -17 45 -29 72 -82 178 -134 295 -145 325
-7 19 -28 67 -47 107 -18 40 -33 74 -33 77 0 2 -16 39 -35 80 -19 42 -35 80
-35 85 0 5 -7 22 -15 38 -22 43 -55 119 -55 126 0 3 -20 48 -44 99 -23 51 -55
125 -70 163 -15 39 -40 98 -57 131 -16 34 -29 64 -29 67 0 3 -16 41 -36 83
-20 43 -38 92 -41 109 -7 45 -33 41 -33 -4z"/>
<path d="M21723 7407 c-2 -4 -13 -5 -24 -2 -11 4 -19 2 -19 -5 0 -6 -10 -8
-25 -4 -17 4 -27 1 -31 -9 -4 -13 -14 -18 -49 -26 -3 -1 -15 -11 -27 -24 -13
-12 -39 -35 -58 -50 -19 -16 -28 -25 -20 -22 10 4 9 2 -2 -8 -10 -8 -15 -17
-11 -20 3 -4 1 -7 -7 -7 -10 0 -10 -3 0 -15 11 -13 10 -14 -5 -9 -12 5 -16 4
-11 -4 3 -6 2 -13 -3 -17 -6 -3 -8 -12 -5 -19 3 -8 1 -17 -5 -21 -14 -8 -14
-82 0 -91 6 -3 9 -15 6 -25 -3 -11 -1 -19 5 -19 6 0 8 -7 4 -15 -3 -8 -1 -15
5 -15 6 0 8 -7 5 -16 -4 -10 -2 -13 6 -8 8 5 9 2 5 -9 -4 -10 -1 -17 5 -17 6
0 8 -3 5 -7 -4 -3 1 -12 11 -20 11 -10 12 -12 2 -8 -10 4 -9 2 2 -8 10 -8 15
-17 11 -20 -6 -7 13 -11 31 -8 5 1 4 -5 -3 -13 -11 -13 -9 -17 13 -27 19 -9
23 -15 14 -20 -9 -6 -8 -10 5 -15 9 -3 17 -10 17 -16 0 -5 -5 -6 -12 -2 -6 4
-17 -1 -25 -11 -7 -11 -13 -15 -13 -10 0 5 -7 0 -16 -11 -8 -10 -12 -12 -9 -4
4 8 -3 2 -16 -13 -13 -15 -31 -29 -39 -31 -15 -2 -133 -116 -121 -116 3 0 -5
-10 -19 -21 -14 -11 -18 -18 -10 -14 12 5 12 4 -1 -7 -9 -7 -14 -19 -11 -27 3
-8 0 -11 -7 -7 -7 5 -9 1 -5 -8 3 -9 1 -16 -6 -16 -6 0 -8 -4 -5 -10 3 -5 1
-10 -5 -10 -7 0 -9 -8 -5 -20 3 -11 3 -20 -2 -20 -4 0 -8 -40 -8 -90 0 -49 4
-90 8 -90 5 0 5 -9 2 -20 -4 -11 -2 -20 4 -20 6 0 7 -7 4 -17 -5 -12 -3 -14 7
-8 10 6 12 4 7 -8 -4 -10 -1 -17 5 -17 6 0 8 -3 5 -7 -4 -3 1 -12 11 -20 9 -8
11 -12 5 -8 -8 4 -11 1 -7 -9 3 -9 11 -14 17 -13 7 1 11 -3 10 -10 -2 -7 6
-17 17 -23 11 -6 17 -16 14 -22 -4 -7 -3 -8 4 -4 6 4 18 -5 28 -19 9 -13 20
-22 25 -19 5 3 12 -1 15 -9 2 -7 11 -14 19 -15 8 -1 21 -3 29 -4 8 -1 14 -6
13 -12 -1 -6 4 -10 11 -9 6 2 12 -2 12 -8 0 -5 5 -7 10 -4 6 3 10 1 10 -5 0
-7 7 -10 15 -7 8 4 17 2 20 -3 3 -5 12 -7 19 -4 8 3 17 1 21 -5 3 -6 17 -8 31
-5 13 3 30 2 37 -4 17 -14 229 -5 255 11 6 5 16 6 21 2 5 -3 12 -1 16 4 3 6
13 7 22 4 12 -5 14 -3 8 7 -6 10 -4 12 8 7 10 -3 17 -2 17 4 0 6 5 7 10 4 6
-3 10 -1 10 5 0 6 5 8 10 5 6 -3 10 -1 10 5 0 6 5 8 10 5 6 -3 10 0 10 7 0 11
2 10 9 0 6 -10 15 -6 36 20 15 18 24 26 20 18 -4 -8 7 1 23 20 l30 35 13 -28
c7 -15 16 -27 21 -27 5 0 6 6 3 13 -4 6 6 -1 21 -18 15 -16 31 -30 35 -30 5 0
15 -9 24 -20 9 -11 13 -14 10 -7 -6 11 -3 12 14 2 12 -6 25 -18 28 -26 3 -7 9
-11 14 -8 5 3 9 0 9 -5 0 -6 3 -10 8 -9 4 1 17 -3 30 -10 12 -7 21 -9 20 -4
-2 5 8 19 22 31 14 13 18 19 10 15 -13 -7 -13 -5 -1 9 7 9 17 14 22 11 5 -3
10 0 10 5 1 6 2 15 3 20 0 5 12 19 26 31 14 12 19 18 11 14 -8 -4 -2 10 14 30
29 38 42 72 24 60 -5 -3 -9 -1 -9 5 0 6 -8 7 -17 4 -13 -5 -15 -2 -10 11 6 14
3 17 -8 12 -10 -3 -27 5 -43 21 -15 15 -30 28 -33 28 -4 0 -15 9 -25 20 -11
12 -14 14 -9 5 9 -13 8 -13 -8 -1 -10 8 -25 27 -32 42 -13 24 -13 28 1 33 8 3
12 10 9 16 -3 5 -1 10 5 10 6 0 8 5 5 10 -3 6 -1 10 5 10 6 0 8 5 5 10 -3 6
-1 10 5 10 6 0 8 5 5 10 -3 6 -1 10 5 10 6 0 9 4 5 9 -3 5 -1 12 5 16 6 4 8
11 5 16 -4 5 -2 9 3 9 6 0 8 10 4 22 -4 15 -2 19 7 13 10 -6 11 -2 6 15 -5 16
-4 20 5 15 9 -5 10 -2 5 14 -4 13 -2 21 5 21 6 0 8 5 4 11 -3 6 -1 15 7 19 10
7 10 11 0 24 -10 12 -17 13 -34 4 -16 -8 -22 -8 -25 1 -2 6 -14 8 -28 5 -15
-4 -24 -2 -24 6 0 7 -8 9 -20 5 -12 -4 -20 -2 -20 5 0 7 -8 9 -19 5 -11 -3
-22 -2 -25 4 -3 5 -15 7 -26 4 -11 -3 -20 0 -20 6 0 6 -5 11 -11 11 -6 0 -8
-9 -4 -20 4 -11 2 -20 -4 -20 -6 0 -8 -7 -5 -15 4 -8 1 -15 -5 -15 -6 0 -8 -7
-5 -15 4 -9 0 -15 -7 -15 -11 0 -11 -3 1 -10 13 -8 13 -10 -2 -10 -9 0 -20 -5
-24 -12 -4 -7 -3 -8 4 -4 7 4 12 2 12 -3 0 -6 -5 -11 -11 -11 -5 0 -8 -4 -4
-9 10 -18 -13 -21 -26 -4 -12 14 -12 16 1 9 8 -4 4 1 -10 13 -14 11 -25 24
-25 29 0 5 -11 20 -25 32 -14 12 -19 19 -12 15 6 -3 12 -2 12 3 0 5 -9 12 -21
15 -12 3 -18 10 -15 16 4 5 -3 15 -14 21 -11 6 -18 15 -15 19 2 5 -6 16 -20
25 -40 26 -46 48 -23 76 11 14 16 19 12 11 -5 -10 -3 -12 5 -7 7 5 10 14 8 20
-3 7 1 13 9 13 7 0 11 -4 8 -9 -3 -4 2 -5 10 -2 9 3 14 10 11 14 -3 4 3 14 12
21 14 12 16 12 9 -1 -4 -8 6 1 22 20 17 19 45 48 64 64 18 16 26 25 18 20 -13
-7 -13 -5 -1 9 7 9 17 15 21 12 4 -3 8 7 8 22 0 15 4 29 10 31 6 2 8 10 5 18
-3 8 -1 14 3 14 10 0 9 134 -1 150 -3 5 -3 15 0 20 3 6 0 10 -7 10 -9 0 -9 3
2 10 13 8 12 10 -3 10 -10 0 -15 5 -12 10 3 6 1 10 -6 10 -7 0 -9 3 -6 7 4 3
-1 12 -11 20 -11 9 -11 12 -2 7 8 -4 -2 9 -22 28 -21 20 -38 41 -38 47 0 6 -5
11 -11 11 -5 0 -7 -6 -4 -12 4 -7 -3 0 -15 15 -16 19 -28 26 -41 22 -11 -4
-19 -3 -18 2 3 20 -2 27 -11 13 -6 -9 -10 -11 -10 -3 0 7 -7 10 -15 7 -8 -4
-15 -2 -15 4 0 5 -10 10 -22 10 -13 1 -70 2 -126 4 -57 2 -106 -1 -109 -5z
m167 -200 c0 -5 5 -5 11 -2 6 4 17 -1 25 -11 9 -11 13 -13 9 -6 -9 19 0 14 21
-10 13 -14 14 -19 4 -14 -9 5 -8 2 2 -7 10 -8 15 -17 11 -20 -3 -4 -2 -7 3 -7
11 0 10 -36 -1 -63 -4 -9 -5 -26 -2 -37 3 -13 0 -20 -9 -20 -8 0 -40 -26 -71
-57 -32 -32 -53 -52 -49 -44 6 9 5 12 -5 9 -8 -3 -14 -10 -14 -15 0 -6 -3 -14
-7 -18 -3 -4 -5 1 -4 12 2 10 -12 31 -33 50 -20 18 -28 30 -18 27 9 -3 17 -2
17 3 0 5 -16 15 -36 22 -27 10 -33 16 -23 22 10 6 10 9 2 9 -7 0 -10 7 -7 15
3 8 0 17 -8 20 -8 3 -14 20 -14 41 0 26 4 33 14 29 13 -5 13 -3 1 12 -8 9 -9
14 -3 10 6 -3 17 5 24 18 7 13 17 22 22 19 4 -3 8 0 8 6 0 6 5 8 10 5 6 -3 10
-2 10 2 0 5 25 9 55 9 30 -1 55 -5 55 -9z m-138 -652 c12 -16 17 -26 10 -21
-6 4 -12 3 -12 -2 0 -12 25 -33 32 -27 3 3 13 -5 24 -17 13 -14 14 -19 4 -14
-8 4 -1 -5 15 -21 17 -15 24 -24 15 -19 -8 5 3 -8 25 -28 22 -21 33 -34 25
-31 -8 4 3 -10 25 -30 22 -21 33 -33 25 -29 -9 5 -4 -1 10 -13 14 -13 25 -28
25 -34 0 -6 11 -17 25 -24 17 -10 20 -14 9 -15 -9 0 -19 -7 -23 -15 -3 -8 -10
-14 -15 -13 -5 2 -17 -6 -26 -17 -9 -11 -14 -13 -10 -5 4 10 2 9 -8 -2 -8 -10
-17 -15 -20 -11 -4 3 -7 1 -7 -6 0 -7 -4 -9 -10 -6 -5 3 -10 1 -10 -5 0 -6 -4
-8 -10 -5 -5 3 -10 1 -10 -5 0 -7 -8 -9 -21 -5 -12 4 -19 3 -16 -2 4 -6 -29
-10 -79 -10 -46 0 -84 4 -84 9 0 5 -4 6 -10 3 -5 -3 -10 -1 -10 6 0 7 -3 9 -7
6 -3 -4 -12 1 -20 11 -9 10 -11 11 -7 2 7 -13 6 -13 -12 0 -27 21 -43 43 -38
52 3 5 0 8 -6 8 -6 0 -8 5 -5 10 3 6 1 10 -5 10 -6 0 -8 5 -5 10 3 6 3 10 -2
10 -4 0 -8 29 -8 65 0 36 3 65 7 65 4 0 5 7 2 15 -4 8 -1 15 7 15 7 0 9 3 6 7
-4 3 1 12 11 20 9 8 12 12 5 8 -7 -3 17 24 53 60 55 55 68 64 84 55 13 -7 21
-7 26 2 4 6 3 8 -4 4 -6 -3 -13 -2 -16 3 -14 23 25 2 46 -24z"/>
<path d="M5400 7085 l0 -180 937 3 938 2 0 -85 0 -85 -938 2 -937 3 0 -432 0
-433 934 0 c670 0 937 3 942 11 3 6 19 9 35 5 17 -3 29 -1 29 5 0 6 9 8 20 4
12 -4 20 -2 20 5 0 7 7 10 15 6 8 -3 15 -1 15 4 0 5 7 7 15 4 8 -4 15 -1 15 6
0 6 5 8 10 5 6 -3 10 -1 10 5 0 6 4 9 9 6 5 -3 12 1 15 10 4 9 9 14 13 11 3
-4 12 1 20 11 8 9 11 11 7 3 -5 -10 -3 -12 7 -6 20 13 55 58 51 68 -1 4 5 10
13 13 8 3 12 10 9 15 -3 5 0 9 7 9 7 0 9 3 6 7 -4 3 1 12 11 20 9 8 11 12 5 8
-7 -3 -13 -1 -13 4 0 6 4 11 9 11 5 0 7 9 4 20 -3 11 -1 20 3 20 5 0 9 63 9
140 0 78 -4 140 -9 140 -5 0 -7 3 -3 6 3 3 -7 17 -24 31 -16 14 -29 32 -29 41
0 15 -2 15 -10 2 -8 -12 -10 -12 -10 -1 0 11 -3 11 -15 1 -13 -11 -14 -10 -9
5 6 14 3 16 -14 10 -12 -3 -22 -2 -22 3 0 6 -8 8 -18 5 -10 -2 -25 3 -33 13
-12 15 -12 16 9 10 14 -5 22 -3 22 4 0 7 7 9 16 6 8 -3 12 -2 9 4 -3 6 -2 10
4 10 5 0 12 -6 14 -12 3 -8 6 -5 6 5 1 10 6 15 11 12 6 -3 10 -1 10 6 0 7 3
10 6 6 7 -7 60 53 57 65 -2 4 5 4 14 1 11 -4 14 -3 9 5 -4 7 -4 12 1 12 4 0 8
65 8 145 0 80 -4 145 -8 145 -5 0 -5 9 -2 20 5 15 2 20 -12 20 -15 0 -16 2 -3
10 11 7 11 10 2 10 -7 0 -10 5 -7 10 3 6 1 10 -6 10 -7 0 -9 3 -6 7 4 3 -1 12
-11 20 -9 8 -11 11 -3 7 9 -5 12 -3 7 4 -4 7 -13 12 -19 12 -17 0 -39 38 -31
53 4 7 4 9 -1 5 -4 -4 -15 -2 -23 5 -13 10 -15 9 -8 -3 4 -9 2 -8 -7 2 -8 10
-17 15 -20 11 -4 -3 -7 -1 -7 6 0 7 -4 9 -10 6 -5 -3 -10 -1 -10 5 0 6 -4 8
-10 5 -5 -3 -10 -1 -10 5 0 6 -4 8 -10 5 -5 -3 -10 -2 -10 4 0 6 -7 8 -15 5
-8 -4 -15 -1 -15 6 0 7 -7 10 -15 7 -8 -4 -17 -2 -21 4 -3 5 -14 7 -25 4 -10
-4 -23 -4 -29 0 -5 3 -435 7 -955 8 l-945 2 0 -180z m1870 -750 l0 -75 -749 0
-749 0 -4 78 -3 77 753 -3 752 -2 0 -75z"/>
<path d="M10390 7085 l0 -180 937 3 938 2 0 -85 0 -85 -938 2 -937 3 0 -432 0
-433 185 0 186 0 -3 268 -3 267 518 -5 c339 -3 522 -2 528 5 7 7 10 7 8 0 -3
-15 12 -45 21 -40 4 3 14 -3 21 -12 12 -14 12 -16 -1 -8 -9 5 -7 0 4 -14 12
-13 26 -19 35 -16 8 3 12 3 8 -1 -4 -4 3 -18 15 -31 12 -13 18 -23 13 -23 -5
0 7 -15 26 -32 20 -18 28 -28 19 -23 -9 6 4 -10 29 -33 25 -24 39 -41 31 -37
-8 4 3 -10 25 -30 22 -20 33 -33 25 -29 -8 3 8 -15 35 -41 28 -26 41 -42 30
-35 -11 7 -2 -4 20 -24 22 -21 33 -35 25 -31 -8 4 3 -10 25 -30 22 -20 34 -34
28 -30 -7 3 -13 2 -13 -4 0 -6 73 -10 190 -11 104 0 197 -3 205 -6 27 -11 17
24 -13 45 -32 23 -115 120 -92 107 8 -4 -3 9 -25 29 -22 20 -34 33 -26 29 9
-5 7 2 -5 18 -10 14 -22 24 -25 22 -3 -2 -17 9 -30 24 -19 21 -20 23 -4 13 11
-8 0 4 -25 27 -27 26 -37 39 -25 36 11 -4 3 6 -17 20 -21 15 -38 33 -38 40 0
8 -11 21 -24 29 -13 9 -38 35 -57 59 -18 24 -29 40 -25 36 5 -4 26 0 47 9 25
10 52 13 74 9 24 -5 35 -3 35 5 0 7 9 9 25 5 16 -4 25 -2 25 5 0 6 6 9 14 6 7
-3 19 0 25 6 6 6 11 7 11 2 0 -6 4 -4 9 3 4 7 17 14 29 15 11 0 18 5 16 9 -3
4 0 9 5 9 6 1 14 2 19 3 12 2 60 55 55 60 -3 3 2 8 11 12 9 3 13 10 10 15 -3
5 -1 9 5 9 6 0 8 7 5 15 -4 8 -1 15 6 15 6 0 8 5 5 10 -3 6 -3 15 0 20 9 15
11 340 2 340 -5 0 -5 9 -2 20 4 13 2 20 -7 20 -10 0 -9 3 2 10 13 8 12 10 -2
10 -16 0 -23 11 -19 33 0 4 -3 7 -9 7 -6 0 -9 3 -9 8 4 21 -3 30 -20 27 -17
-3 -34 22 -28 40 4 9 -43 36 -53 30 -6 -3 -10 0 -10 8 0 8 -7 18 -16 21 -14 5
-15 4 -4 -9 11 -13 10 -14 -4 -9 -9 3 -16 14 -16 23 0 14 -2 14 -10 1 -6 -9
-10 -11 -10 -3 0 7 -7 10 -15 7 -8 -4 -15 -1 -15 6 0 7 -7 10 -15 7 -8 -4 -17
-2 -21 4 -3 5 -14 7 -25 4 -10 -4 -23 -4 -29 0 -5 3 -435 7 -955 8 l-945 2 0
-180z"/>
<path d="M14941 7263 c-176 -3 -196 -5 -222 -24 -16 -11 -28 -24 -26 -30 1 -5
-14 -24 -34 -41 -19 -18 -28 -28 -19 -23 9 6 0 -5 -19 -23 -20 -18 -36 -39
-36 -45 -1 -7 -6 -11 -13 -9 -7 1 -11 -2 -10 -7 2 -4 -8 -18 -22 -30 -14 -13
-18 -20 -10 -16 8 3 -5 -12 -30 -35 -25 -23 -38 -39 -30 -34 10 5 8 0 -4 -14
-11 -12 -25 -22 -31 -22 -7 0 -16 -7 -19 -16 -4 -10 -2 -13 7 -9 6 4 -8 -12
-32 -34 -25 -22 -49 -37 -54 -34 -6 3 -7 1 -3 -6 6 -9 11 -9 24 1 9 7 5 -1 -7
-19 -16 -21 -30 -30 -43 -28 -16 4 -18 2 -8 -10 10 -12 9 -16 -1 -20 -8 -3
-248 -4 -534 -3 l-520 3 -3 263 -2 262 -170 0 -170 0 -2 -690 -3 -690 175 0
175 0 -3 267 -3 268 526 -5 c289 -3 526 -1 528 3 1 4 16 -7 32 -25 17 -18 23
-28 15 -23 -15 10 5 -9 43 -41 16 -13 16 -18 5 -31 -8 -10 -8 -14 -1 -10 6 4
24 -4 40 -18 22 -19 23 -24 8 -19 -11 4 -1 -7 22 -25 24 -17 42 -35 40 -40 -1
-6 14 -23 33 -40 21 -18 27 -28 16 -24 -19 6 -19 6 0 -14 10 -11 22 -18 25
-17 3 2 17 -8 30 -23 13 -14 17 -23 9 -19 -8 5 3 -9 25 -29 22 -20 34 -34 28
-30 -7 3 -13 1 -13 -4 0 -6 3 -11 8 -11 4 0 21 -12 37 -26 17 -14 23 -22 15
-18 -10 5 -9 1 4 -14 10 -12 23 -19 29 -15 6 3 7 1 3 -5 -5 -9 44 -12 191 -12
167 1 195 3 181 14 -21 15 -24 30 -5 21 6 -4 -6 10 -28 30 -22 20 -33 34 -25
30 8 -3 2 5 -15 19 -16 14 -30 29 -30 34 0 4 -16 22 -35 40 -19 18 -27 29 -17
26 9 -3 17 -1 17 5 0 6 -8 11 -18 11 -11 0 -27 10 -38 22 -13 14 -14 19 -4 14
8 -5 -3 9 -25 29 -22 21 -32 32 -22 25 12 -9 17 -9 17 -1 0 6 -10 15 -22 20
-13 5 -32 19 -43 32 l-20 24 20 -14 c11 -8 2 3 -20 24 -22 20 -31 32 -20 25
11 -7 0 6 -25 30 -25 23 -38 39 -30 35 8 -4 -1 8 -20 25 -19 17 -28 29 -20 25
8 -4 -3 10 -25 30 -22 20 -34 34 -27 30 6 -3 12 -2 12 4 0 5 -8 12 -19 16 -10
3 -27 15 -37 26 -17 19 -17 20 2 14 10 -4 6 1 -10 10 -22 13 -26 19 -15 26 12
7 12 9 -1 9 -9 0 1 15 25 36 22 20 31 30 20 23 -20 -14 -20 -13 -1 9 11 12 25
22 31 22 7 0 16 7 19 16 4 10 2 13 -7 8 -8 -5 -8 -2 2 9 7 9 17 14 22 11 5 -3
9 -2 8 3 -3 20 2 27 11 13 8 -13 10 -12 10 3 0 9 5 17 10 17 6 0 10 5 10 11 0
5 -6 7 -12 4 -7 -4 5 10 27 30 22 20 33 34 25 30 -8 -4 3 10 25 31 22 20 31
31 20 24 -11 -7 3 9 30 35 28 26 41 42 30 34 -20 -13 -20 -13 -1 8 10 13 21
21 25 19 3 -2 15 8 26 23 19 26 19 26 0 12 -11 -7 -2 4 20 24 22 21 33 35 25
31 -8 -4 5 11 30 34 25 23 39 39 33 36 -28 -15 -10 6 30 35 23 18 33 29 22 25
-12 -3 -4 8 20 29 22 19 38 34 35 33 -3 -2 -92 -4 -199 -5z"/>
<path d="M18230 7256 c0 -4 -9 -6 -20 -3 -11 3 -23 1 -26 -5 -3 -5 -12 -7 -20
-4 -8 3 -14 1 -14 -5 0 -6 -7 -9 -15 -5 -8 3 -15 1 -15 -5 0 -6 -4 -7 -10 -4
-5 3 -10 1 -10 -5 0 -6 -3 -9 -7 -7 -11 6 -43 -30 -35 -39 4 -4 1 -4 -6 0 -7
4 -10 12 -7 17 4 5 1 9 -4 9 -6 0 -11 -6 -11 -13 0 -8 -10 -22 -22 -33 -22
-19 -23 -19 -8 1 8 11 -5 2 -28 -20 -40 -37 -52 -53 -34 -41 5 3 9 -1 9 -8 0
-8 -7 -12 -14 -9 -8 3 -13 0 -11 -8 2 -8 -3 -13 -10 -11 -9 2 -11 -4 -7 -18 4
-11 2 -20 -4 -20 -6 0 -8 -7 -5 -15 4 -8 2 -15 -2 -15 -5 0 -9 -72 -9 -160 0
-88 4 -160 8 -160 5 0 5 -9 2 -20 -4 -12 -2 -20 5 -20 6 0 8 -4 5 -10 -3 -5
-1 -10 5 -10 6 0 8 -4 5 -10 -3 -5 -2 -10 4 -10 6 0 7 -7 4 -17 -4 -10 -2 -14
4 -10 6 4 17 -1 24 -10 10 -12 10 -14 2 -9 -7 4 -13 2 -13 -3 0 -6 5 -11 11
-11 5 0 7 -4 4 -10 -9 -14 19 -12 34 3 7 6 11 8 9 2 -2 -5 7 -20 20 -32 12
-13 22 -21 22 -18 0 3 9 -4 20 -15 11 -11 26 -20 33 -20 8 0 7 4 -3 10 -9 6
-10 10 -3 10 6 0 19 -7 27 -16 9 -8 20 -13 25 -9 5 3 12 1 16 -4 3 -6 12 -8
20 -5 8 3 20 2 27 -2 23 -14 67 -15 816 -20 560 -3 732 -2 726 7 -4 8 -3 9 4
5 16 -10 16 -162 0 -172 -7 -4 -8 -3 -4 4 5 9 -224 12 -928 12 -696 0 -937 -3
-942 -12 -4 -7 -3 -8 5 -4 9 6 11 -36 9 -178 l-3 -186 935 4 c514 2 947 5 963
6 15 2 27 7 27 13 0 5 9 7 20 4 11 -3 20 -1 20 5 0 6 7 8 15 4 8 -3 15 -1 15
5 0 6 9 8 20 4 13 -4 22 -1 26 9 3 9 10 13 15 10 5 -3 9 0 9 6 0 6 4 8 10 5
16 -10 50 14 50 35 0 11 3 20 8 20 4 1 21 12 37 26 17 15 23 23 15 19 -10 -4
-9 -1 2 8 10 8 15 17 11 20 -3 4 -1 7 6 7 7 0 10 4 7 9 -4 5 0 12 6 14 10 4
10 7 0 15 -11 8 -11 10 1 15 10 3 13 13 10 25 -2 11 0 23 6 26 15 10 15 262 0
272 -6 3 -8 17 -5 30 4 15 2 24 -5 24 -6 0 -9 7 -5 15 3 8 1 15 -5 15 -6 0 -7
5 -4 10 3 6 1 10 -6 10 -7 0 -9 3 -6 7 4 3 -1 12 -11 20 -10 9 -11 12 -2 7 8
-4 2 6 -15 22 -16 16 -34 27 -38 26 -4 -1 -10 5 -13 13 -3 8 -10 12 -15 9 -5
-3 -9 0 -9 6 0 6 -4 8 -10 5 -5 -3 -10 -2 -10 4 0 6 -7 8 -15 5 -8 -4 -15 -1
-15 5 0 6 -7 8 -15 5 -8 -4 -15 -1 -15 6 0 7 -8 9 -20 5 -12 -4 -20 -2 -20 5
0 6 -10 8 -24 4 -14 -3 -30 -3 -36 1 -6 4 -362 6 -791 5 l-780 -1 3 88 3 88
948 0 947 0 0 180 0 180 -950 0 c-529 0 -950 -4 -950 -9z"/>
<path d="M23805 7260 c-4 -6 -15 -8 -26 -5 -11 4 -19 2 -19 -5 0 -7 -8 -9 -20
-5 -12 4 -20 2 -20 -5 0 -6 -4 -8 -10 -5 -5 3 -10 2 -10 -4 0 -6 -7 -8 -15 -5
-8 4 -17 -1 -21 -10 -3 -9 -10 -13 -15 -10 -5 3 -9 0 -9 -7 0 -7 -3 -10 -6 -6
-4 3 -15 -4 -26 -16 -11 -12 -16 -15 -13 -7 4 8 -8 -3 -26 -25 -19 -22 -44
-50 -55 -62 -12 -12 -19 -24 -16 -27 3 -3 0 -6 -7 -6 -7 0 -9 -4 -6 -10 3 -5
2 -10 -4 -10 -6 0 -8 -7 -5 -15 4 -8 2 -15 -2 -15 -15 0 -19 -110 -18 -452 1
-354 3 -398 17 -398 5 0 7 -7 3 -15 -3 -8 0 -15 6 -15 6 0 8 -3 5 -7 -4 -3 1
-12 11 -20 11 -10 12 -12 2 -8 -8 4 -4 -3 10 -15 14 -12 19 -19 13 -15 -18 9
-16 2 6 -24 11 -13 27 -24 36 -25 10 -1 26 -13 37 -27 11 -13 16 -17 12 -9 -4
8 7 1 24 -17 20 -20 40 -30 52 -28 11 2 20 0 20 -5 0 -5 7 -7 15 -4 8 4 15 2
15 -4 0 -5 7 -13 16 -16 8 -3 12 -2 9 4 -3 6 -1 10 4 10 6 0 11 -5 11 -11 0
-6 9 -8 20 -4 12 4 27 2 34 -4 9 -8 283 -10 940 -9 l927 3 0 190 0 190 -836 2
c-460 1 -840 5 -845 8 -6 3 -14 4 -19 0 -5 -3 -12 -1 -16 5 -4 6 -10 8 -15 5
-5 -3 -11 -1 -15 5 -4 6 -11 7 -17 4 -7 -4 -8 -2 -4 4 7 11 -6 17 -28 13 -5
-1 -6 5 -3 14 4 9 1 15 -9 15 -9 0 -12 -5 -8 -12 4 -7 -2 -5 -14 6 -12 10 -19
23 -16 28 3 4 0 7 -8 6 -7 -2 -12 3 -10 10 1 6 -3 12 -9 12 -6 0 -9 7 -5 15 3
8 1 15 -4 15 -6 0 -10 63 -10 160 0 110 3 160 11 160 6 0 9 7 5 15 -3 8 -1 15
4 15 6 0 9 3 8 8 -1 4 12 23 30 42 18 19 31 28 29 20 -2 -8 -2 -12 0 -7 3 4 9
5 14 2 5 -4 6 2 2 11 -4 12 -3 15 5 10 7 -4 12 -2 12 4 0 6 5 8 10 5 6 -3 10
-1 10 5 0 6 5 8 10 5 6 -3 10 -1 10 5 0 7 7 10 15 7 8 -4 17 -2 20 3 4 6 17 7
30 4 12 -3 26 -1 29 5 5 8 249 11 822 11 l814 0 0 175 0 175 -922 0 c-508 0
-933 3 -944 6 -12 3 -25 1 -29 -6z"/>
<path d="M26300 7256 c0 -4 -12 -5 -26 -2 -19 5 -24 3 -18 -5 5 -9 1 -10 -14
-7 -12 4 -22 2 -22 -3 0 -4 -7 -5 -17 -2 -12 5 -14 3 -8 -7 6 -10 4 -12 -8 -7
-10 4 -17 1 -17 -5 0 -6 -3 -8 -7 -5 -3 4 -11 0 -17 -8 -6 -7 -17 -15 -25 -17
-8 -2 -26 -14 -39 -28 -16 -16 -20 -18 -11 -5 11 16 8 15 -13 -4 -15 -13 -25
-27 -23 -32 3 -4 -6 -16 -20 -27 -13 -11 -21 -22 -18 -26 3 -3 1 -6 -6 -6 -7
0 -9 -4 -6 -10 3 -5 2 -10 -4 -10 -6 0 -7 -7 -4 -17 5 -11 3 -14 -6 -8 -10 5
-11 2 -6 -14 3 -11 3 -21 -2 -21 -9 0 -7 -796 2 -811 4 -5 3 -13 0 -19 -3 -5
-1 -10 5 -10 7 0 10 -7 6 -15 -3 -8 -1 -15 4 -15 5 0 7 -7 3 -15 -3 -10 0 -15
8 -13 9 2 13 -4 11 -14 -2 -11 3 -18 12 -18 8 0 31 -19 52 -42 20 -24 34 -36
30 -28 -4 8 2 4 14 -10 12 -14 18 -19 14 -11 -5 9 -3 12 4 7 7 -4 12 -15 12
-24 0 -13 2 -14 9 -4 7 11 9 10 15 -3 4 -11 12 -14 26 -10 12 4 20 2 20 -5 0
-6 4 -9 9 -5 5 3 12 1 16 -4 3 -6 12 -8 20 -4 8 3 15 0 15 -7 0 -8 10 -9 29
-5 17 3 32 2 36 -4 9 -16 1475 -15 1475 0 0 7 11 9 30 6 16 -4 32 -2 36 4 3 6
12 8 20 5 7 -3 16 -1 19 5 4 5 11 6 17 3 8 -5 9 -1 5 10 -6 14 -3 15 13 6 14
-8 20 -8 20 0 0 6 4 9 9 6 5 -3 11 1 15 9 3 8 12 15 20 15 8 0 30 15 48 33 18
18 44 41 58 50 14 10 26 22 26 27 1 6 2 15 3 21 0 5 5 7 11 4 5 -3 7 0 4 8 -3
8 2 21 10 30 8 8 13 17 10 20 -4 3 -3 10 1 16 8 13 8 798 0 812 -4 5 -3 14 0
19 3 6 1 10 -5 10 -7 0 -10 7 -6 15 3 8 0 15 -6 15 -6 0 -8 3 -5 7 4 3 -1 12
-11 20 -11 10 -12 12 -2 8 8 -4 6 1 -5 10 -11 9 -19 21 -17 26 1 6 -1 8 -6 5
-5 -3 -32 17 -61 45 -29 27 -56 47 -61 44 -4 -3 -15 1 -23 9 -8 8 -17 12 -21
9 -3 -4 -6 -1 -6 5 0 7 -7 9 -17 5 -13 -5 -15 -2 -10 12 7 15 5 16 -9 5 -12
-11 -17 -11 -23 -2 -4 7 -15 10 -24 6 -9 -3 -21 -3 -26 0 -16 10 -1541 12
-1541 2z m1323 -355 c17 -1 25 -6 21 -12 -4 -7 1 -9 15 -4 13 4 21 2 21 -5 0
-6 5 -8 10 -5 6 3 10 1 10 -5 0 -6 5 -8 10 -5 6 3 10 1 10 -5 0 -6 5 -8 10 -5
6 3 10 -1 10 -10 0 -11 5 -15 14 -12 7 3 26 -8 42 -24 15 -16 24 -29 20 -29
-4 0 0 -7 8 -16 9 -8 14 -20 11 -25 -4 -5 -1 -9 4 -9 14 0 15 -286 1 -295 -5
-3 -6 -13 -3 -22 4 -11 3 -14 -5 -9 -11 7 -18 -21 -12 -49 1 -5 -2 -7 -6 -2
-4 4 -19 -3 -33 -15 -19 -17 -22 -18 -11 -4 15 19 14 19 -12 2 -26 -17 -41
-35 -16 -20 7 5 8 3 4 -5 -5 -7 -14 -10 -22 -7 -8 3 -14 1 -14 -5 0 -6 -4 -7
-10 -4 -5 3 -10 2 -10 -4 0 -6 -7 -8 -15 -5 -8 4 -15 1 -15 -6 0 -7 -8 -9 -20
-5 -11 3 -20 3 -20 -2 0 -6 -1088 -8 -1110 -2 -3 1 -9 1 -14 0 -4 -1 -15 6
-23 16 -8 10 -12 12 -8 6 3 -7 1 -13 -4 -13 -6 0 -11 5 -11 11 0 5 -4 8 -9 5
-5 -3 -12 1 -15 10 -3 9 -13 14 -21 10 -8 -3 -17 0 -21 6 -4 7 -3 8 4 4 7 -4
12 -5 12 -3 0 2 -18 17 -40 32 -30 20 -37 31 -28 36 10 7 9 9 -4 9 -15 0 -17
18 -17 180 0 99 4 180 9 180 5 0 14 10 21 21 8 15 8 19 0 15 -19 -12 -12 0 16
25 14 13 23 17 19 9 -4 -8 0 -6 9 5 9 11 21 19 26 18 5 -2 9 2 9 8 0 5 5 7 10
4 6 -3 10 -1 10 5 0 7 7 9 16 6 9 -4 13 -2 8 5 -4 8 1 9 15 4 13 -4 21 -2 21
5 0 8 10 9 30 5 19 -4 30 -3 30 4 0 8 146 10 518 7 284 -2 530 -5 545 -5z"/>
<path d="M28692 7263 l-252 -3 2 -173 3 -172 181 -3 c158 -2 184 -5 195 -20
13 -15 12 -16 -3 -3 -12 9 -18 10 -18 2 0 -6 4 -11 8 -11 5 0 17 -7 28 -16 10
-8 14 -13 7 -10 -6 4 -15 2 -18 -4 -4 -6 -3 -10 2 -9 20 3 34 -2 28 -10 -3 -6
3 -14 12 -20 10 -6 14 -11 9 -11 -6 0 -1 -7 10 -16 10 -8 13 -13 7 -9 -23 11
-14 -6 20 -38 17 -17 25 -27 17 -23 -8 4 -5 -1 7 -11 12 -10 23 -25 25 -33 2
-8 10 -21 18 -28 13 -12 13 -13 0 -7 -8 4 -6 -1 4 -9 11 -9 16 -16 10 -16 -5
0 -1 -5 9 -11 9 -6 15 -14 12 -19 -3 -4 3 -11 12 -14 15 -6 15 -8 3 -16 -13
-8 -12 -10 2 -10 9 0 20 -5 24 -12 5 -7 2 -9 -7 -4 -8 4 -3 -2 11 -14 14 -12
18 -19 10 -15 -8 4 -6 -1 4 -9 11 -9 16 -16 11 -16 -5 0 0 -7 11 -16 10 -8 12
-12 4 -9 -8 4 -2 -4 14 -17 17 -15 26 -30 22 -36 -4 -7 0 -15 8 -18 9 -3 14
-10 11 -14 -3 -4 2 -11 11 -14 9 -4 14 -9 11 -13 -4 -3 1 -12 11 -20 11 -10
12 -12 2 -8 -8 4 -6 -1 4 -9 11 -9 16 -16 10 -16 -5 0 -1 -5 9 -11 14 -8 16
-14 6 -25 -10 -12 -9 -13 4 -9 8 4 18 1 23 -6 5 -8 3 -10 -7 -5 -8 4 -3 -2 11
-14 14 -12 18 -19 10 -15 -8 4 -2 -4 14 -17 16 -14 26 -29 23 -35 -4 -6 0 -14
9 -17 9 -4 14 -9 11 -13 -4 -3 1 -12 11 -20 11 -10 12 -12 2 -8 -12 5 -12 4 1
-7 9 -7 14 -19 11 -26 -2 -7 2 -11 10 -10 7 2 12 -3 10 -11 -2 -8 3 -11 12 -8
10 4 14 0 11 -14 -2 -10 1 -19 6 -19 6 0 7 -4 4 -10 -3 -5 6 -21 21 -35 15
-14 23 -25 19 -25 -5 0 0 -7 11 -16 10 -8 13 -12 5 -8 -9 5 -12 3 -7 -4 8 -13
244 -17 261 -4 6 4 10 14 10 22 0 8 6 21 15 28 13 12 13 13 0 7 -8 -4 -4 3 10
15 14 12 18 19 10 15 -8 -4 -6 1 4 9 11 9 16 16 11 16 -5 0 0 7 11 16 10 8 12
13 4 9 -8 -4 -4 3 10 15 14 12 19 19 12 15 -11 -6 -12 -3 -3 14 7 11 19 21 27
21 10 0 14 6 11 14 -4 11 -1 13 11 9 15 -6 15 -5 3 10 -11 14 -11 18 3 23 9 3
14 10 11 14 -3 5 3 13 12 19 10 6 14 11 9 11 -6 0 -1 7 10 16 10 8 12 13 4 9
-8 -4 -6 1 4 9 11 9 16 16 10 16 -5 0 0 7 10 15 11 8 16 15 11 15 -5 0 0 7 11
16 10 8 12 13 4 9 -8 -4 -4 3 10 15 14 12 18 19 10 15 -13 -6 -13 -5 0 7 8 7
16 20 18 28 2 8 15 24 29 36 15 11 23 26 19 32 -3 6 2 16 13 21 10 6 21 18 25
26 3 9 2 14 -2 11 -5 -3 -9 1 -9 8 0 8 7 12 14 9 8 -3 13 -1 11 5 -2 6 6 18
17 27 11 9 14 14 8 10 -22 -11 -14 5 15 32 15 15 20 23 12 19 -13 -7 -13 -6 0
6 8 7 16 20 18 28 2 8 13 23 25 33 12 10 15 16 7 12 -12 -5 -12 -4 1 7 9 7 18
18 20 23 2 6 8 9 13 7 5 -2 6 4 3 13 -4 9 -1 15 9 15 10 0 14 6 10 15 -3 8 -1
15 5 15 6 0 8 4 4 9 -3 6 3 14 12 20 10 6 14 11 8 11 -5 0 -3 5 5 10 15 9 16
13 19 45 0 8 8 15 17 15 8 0 13 4 9 9 -3 5 -1 12 5 16 7 4 10 -156 8 -510 l-3
-515 180 2 c99 2 179 6 178 11 -2 4 -3 313 -3 687 l0 680 -249 0 c-245 0 -286
-3 -275 -21 3 -5 -8 -21 -23 -36 -15 -14 -21 -22 -13 -18 8 5 0 -5 -17 -22
-34 -32 -43 -49 -20 -38 6 4 3 -1 -7 -9 -11 -9 -16 -16 -11 -16 5 0 0 -7 -11
-16 -10 -8 -12 -13 -4 -9 13 6 13 5 0 -7 -8 -7 -16 -20 -18 -28 -2 -8 -11 -21
-20 -28 -9 -7 -16 -17 -15 -22 2 -5 -5 -6 -15 -3 -15 6 -15 5 -3 -10 11 -14
11 -18 -3 -23 -9 -3 -14 -10 -11 -14 3 -5 -3 -13 -12 -19 -10 -6 -14 -11 -9
-11 6 0 1 -7 -10 -16 -10 -8 -12 -13 -4 -9 8 4 6 -1 -4 -9 -11 -9 -16 -16 -10
-16 5 0 0 -7 -10 -15 -11 -8 -16 -15 -11 -15 5 0 0 -7 -11 -16 -10 -8 -12 -13
-4 -9 8 4 4 -3 -10 -15 -14 -12 -18 -19 -10 -15 8 4 6 -1 -4 -9 -11 -9 -16
-16 -10 -16 5 0 0 -7 -10 -15 -11 -8 -16 -15 -11 -15 5 0 0 -7 -11 -16 -10 -8
-12 -13 -4 -9 12 5 12 4 -1 -7 -9 -7 -16 -17 -17 -23 0 -5 -9 -12 -19 -16 -12
-5 -13 -8 -4 -8 11 -1 10 -5 -5 -17 -10 -8 -12 -12 -4 -9 8 4 2 -4 -14 -17
-16 -14 -26 -30 -22 -36 3 -6 -2 -15 -11 -21 -10 -6 -14 -11 -9 -11 6 0 1 -7
-10 -16 -10 -8 -12 -13 -4 -9 13 6 13 5 0 -7 -8 -7 -16 -20 -18 -28 -2 -8 -13
-23 -25 -33 -12 -10 -15 -15 -7 -11 8 4 0 -6 -17 -23 -34 -32 -43 -49 -20 -38
6 4 4 0 -5 -8 -10 -8 -14 -17 -10 -21 4 -5 -4 -6 -18 -4 -14 1 -23 6 -20 10 3
4 -4 14 -15 22 -11 9 -17 16 -12 16 4 0 0 15 -10 33 -9 17 -16 35 -15 39 1 4
-4 5 -12 2 -7 -3 -19 3 -27 12 -12 16 -12 17 1 9 8 -4 4 3 -10 17 -14 13 -28
23 -31 22 -3 -2 -6 3 -6 10 0 8 8 12 21 9 12 -2 6 3 -11 11 -18 8 -33 18 -33
21 0 3 5 3 10 0 6 -3 10 -1 10 4 0 6 -6 11 -14 11 -8 0 -18 5 -22 12 -5 7 -2
9 7 4 8 -4 3 2 -11 14 -14 12 -19 19 -12 15 6 -3 12 -1 12 4 0 6 -6 11 -14 11
-8 0 -18 5 -22 12 -5 7 -2 9 7 4 8 -4 3 2 -11 14 -14 12 -18 19 -10 15 8 -4 4
3 -10 14 -18 16 -20 19 -6 15 16 -6 15 -3 -5 20 -13 14 -28 25 -34 22 -7 -2
-12 2 -12 10 0 7 5 11 10 7 5 -3 4 4 -2 16 -6 11 -20 25 -32 31 -11 6 -17 15
-14 19 3 5 -3 12 -12 15 -15 6 -15 8 -3 16 13 8 12 10 -2 10 -9 0 -20 5 -24
12 -5 7 -2 9 7 4 8 -4 3 2 -11 13 -14 11 -20 21 -15 21 6 0 2 5 -8 11 -9 6
-15 14 -12 19 3 4 -2 11 -11 14 -14 5 -14 9 -3 22 11 13 11 15 -2 12 -8 -1
-15 1 -16 6 -1 5 -8 13 -17 18 -9 5 -14 13 -11 18 3 4 -2 11 -11 14 -8 3 -13
10 -10 15 3 5 -1 12 -10 15 -9 4 -14 9 -11 12 3 4 -4 15 -16 26 -12 11 -15 17
-7 13 8 -4 4 3 -10 15 -14 12 -18 19 -10 15 8 -4 4 3 -10 15 -14 12 -18 19
-10 15 8 -4 4 3 -10 15 -14 12 -19 19 -12 15 6 -3 12 -1 12 4 0 6 -7 11 -16
11 -8 0 -12 5 -9 10 3 6 5 9 3 8 -2 -2 -117 -4 -256 -5z"/>
<path d="M31878 7263 l-927 -3 -3 -178 -3 -177 938 3 937 2 0 -85 0 -85 -937
2 -938 3 0 -433 0 -432 178 2 178 3 -1 263 -1 262 525 0 525 -1 29 -24 c16
-13 33 -21 37 -17 5 4 5 1 1 -6 -6 -9 -11 -10 -20 -3 -9 8 -13 7 -13 -4 0 -7
3 -14 6 -13 21 2 31 -4 25 -14 -4 -6 -3 -8 3 -5 6 4 19 -3 29 -15 12 -14 14
-18 4 -13 -12 7 -13 6 -3 -7 7 -8 10 -18 6 -22 -4 -4 -1 -4 8 -1 9 3 25 -5 39
-21 14 -15 18 -24 10 -20 -8 5 3 -9 25 -29 22 -20 33 -33 25 -29 -8 3 8 -15
35 -41 28 -26 41 -42 30 -35 -11 7 -2 -4 20 -24 22 -21 33 -35 25 -31 -8 4 3
-9 25 -29 22 -19 40 -43 40 -53 0 -10 6 -19 13 -19 6 -1 15 -3 20 -4 4 -1 12
-1 17 0 6 1 7 -2 3 -6 -4 -4 -2 -14 5 -23 11 -14 10 -14 -5 -2 -10 7 -18 9
-18 3 0 -5 7 -12 15 -16 24 -9 387 -8 396 1 4 4 2 15 -4 24 -13 17 -58 44 -69
41 -4 -1 -5 10 -2 23 3 17 0 25 -9 25 -15 0 -46 30 -45 43 0 5 -4 12 -8 15 -4
4 -4 0 1 -8 9 -16 4 -12 -35 34 -14 16 -18 26 -10 22 8 -5 -3 9 -25 29 -22 20
-33 33 -25 29 10 -5 8 0 -4 15 -12 13 -26 19 -35 16 -8 -3 -12 -3 -8 1 4 4 -3
19 -15 33 -20 22 -20 23 -3 12 11 -7 0 5 -25 28 -27 25 -37 39 -25 35 11 -4 3
6 -17 20 -21 15 -38 33 -38 42 0 8 -14 23 -31 33 -24 15 -27 20 -14 25 10 4
14 2 9 -6 -5 -8 1 -9 22 -2 16 4 49 9 74 9 25 0 50 3 57 8 6 4 18 4 27 1 9 -3
16 -1 16 5 0 6 5 11 11 11 5 0 7 -4 4 -10 -3 -6 1 -7 9 -4 9 3 16 11 16 16 0
6 7 8 15 4 8 -3 15 -1 15 5 0 6 5 7 10 4 6 -3 10 -1 10 5 0 6 5 8 10 5 6 -3
10 -1 10 5 0 6 5 8 10 5 6 -3 10 1 10 10 0 11 5 15 14 12 16 -6 39 16 43 41 1
9 9 22 17 28 9 6 13 14 9 17 -3 4 -1 7 5 7 6 0 9 7 6 15 -4 8 -1 15 6 15 7 0
10 7 6 16 -3 9 -3 20 0 25 9 16 10 299 0 299 -4 0 -5 11 -2 25 4 14 2 25 -3
25 -6 0 -8 7 -4 16 4 11 -1 22 -12 30 -10 8 -15 14 -9 14 5 0 2 5 -6 10 -8 5
-15 13 -15 17 -1 12 -55 68 -66 68 -5 0 -14 7 -19 15 -5 8 -10 11 -10 6 0 -6
-6 -2 -13 9 -8 10 -19 15 -25 11 -7 -4 -12 -2 -12 4 0 6 -4 8 -10 5 -5 -3 -10
-2 -10 4 0 6 -7 8 -15 5 -8 -4 -15 -1 -15 6 0 7 -7 10 -15 7 -8 -4 -17 -2 -19
2 -3 5 -17 6 -31 3 -15 -2 -25 0 -25 7 0 6 -8 10 -17 9 -10 -2 -435 -4 -945
-5z"/>
<path d="M34369 7260 c-1 -3 -1 -9 0 -13 1 -4 -6 -10 -14 -13 -8 -3 -12 -10
-9 -15 3 -5 -9 -24 -28 -41 -18 -17 -26 -28 -18 -24 8 4 6 -1 -5 -11 -11 -10
-21 -25 -23 -33 -2 -8 -15 -26 -30 -39 -15 -13 -20 -20 -12 -16 8 3 6 -1 -5
-10 -11 -9 -20 -20 -20 -25 0 -5 -9 -16 -20 -25 -11 -9 -13 -14 -5 -10 8 4 6
-1 -5 -10 -11 -9 -19 -21 -17 -26 1 -5 -5 -12 -13 -15 -43 -17 17 -24 204 -24
184 0 210 -2 222 -17 12 -14 12 -16 -1 -9 -8 4 -1 -5 15 -19 17 -15 23 -24 15
-20 -8 4 -1 -5 15 -20 17 -14 23 -23 15 -20 -8 4 -6 -2 6 -12 11 -10 20 -25
20 -33 -1 -13 -44 -15 -314 -18 -309 -2 -313 -3 -336 -25 -12 -12 -29 -31 -37
-41 -12 -18 -12 -19 1 -12 8 4 7 1 -3 -7 -10 -9 -18 -19 -17 -23 1 -5 -7 -11
-17 -15 -13 -6 -14 -8 -3 -9 12 0 11 -4 -4 -15 -11 -8 -16 -15 -10 -15 5 0 -2
-10 -16 -21 -14 -11 -18 -18 -10 -14 8 4 4 -3 -10 -15 -14 -12 -18 -19 -10
-15 8 4 4 -3 -10 -15 -14 -12 -18 -18 -11 -14 9 4 5 -6 -8 -24 -12 -18 -27
-32 -32 -32 -5 0 -8 -6 -6 -12 1 -7 -4 -12 -10 -11 -7 2 -20 -11 -29 -28 -10
-20 -11 -28 -3 -24 8 6 10 4 5 -4 -5 -7 -14 -10 -20 -8 -7 3 -13 -1 -13 -9 0
-7 3 -11 7 -9 4 2 7 -2 7 -9 0 -8 -6 -12 -13 -9 -6 2 -15 -1 -20 -8 -5 -8 -3
-10 7 -5 8 4 1 -5 -16 -19 -16 -15 -23 -24 -15 -20 10 4 9 1 -2 -8 -10 -8 -15
-17 -11 -20 3 -4 -2 -9 -11 -13 -9 -3 -13 -10 -10 -15 3 -5 -6 -14 -20 -21
-14 -6 -26 -17 -26 -24 0 -7 -3 -14 -7 -17 -5 -2 -3 -3 3 -1 6 1 11 -4 11 -12
0 -7 -3 -12 -6 -10 -6 2 -49 -38 -53 -52 -2 -4 -6 -6 -10 -5 -3 1 -9 -4 -12
-13 -4 -10 -1 -13 7 -9 6 4 1 -3 -13 -15 -14 -12 -18 -19 -10 -15 8 4 4 -3
-10 -15 -14 -12 -19 -18 -11 -14 9 5 12 3 7 -4 -4 -7 -14 -12 -22 -12 -8 0
-14 -5 -14 -11 0 -5 6 -7 13 -4 6 4 1 -3 -12 -14 -13 -12 -20 -21 -16 -21 4 0
2 -7 -5 -15 -11 -13 8 -15 158 -15 94 0 178 -3 188 -7 14 -5 16 -2 12 15 -4
16 1 28 20 43 15 11 20 17 12 13 -13 -7 -13 -5 -1 9 7 9 17 14 22 11 5 -3 9 0
9 5 0 21 2 26 12 38 6 7 13 11 17 9 4 -3 13 5 21 17 11 19 11 21 -1 12 -8 -5
-6 -2 6 9 11 10 20 23 20 28 0 5 11 18 25 29 14 12 18 18 10 14 -8 -3 -1 5 15
19 17 14 29 33 27 41 -2 8 4 15 13 15 9 0 14 4 10 9 -3 6 12 28 33 50 22 23
37 41 34 41 -2 0 1 7 8 15 7 8 15 13 19 11 4 -3 13 5 21 17 11 19 11 21 -1 12
-8 -5 -6 -2 6 9 11 10 20 23 20 30 0 8 100 12 363 13 199 1 367 5 372 8 6 4
10 5 11 3 0 -2 2 -12 4 -23 2 -11 21 -35 42 -53 23 -20 30 -30 18 -26 -11 3
-5 -3 13 -15 30 -20 46 -40 20 -25 -7 3 1 -6 17 -21 17 -14 23 -23 15 -20 -8
4 -4 -2 10 -14 14 -11 25 -24 25 -30 0 -6 9 -17 20 -26 11 -9 13 -14 5 -10 -8
4 -4 -2 10 -14 14 -11 25 -24 25 -29 0 -5 11 -20 25 -32 14 -12 18 -18 10 -15
-8 4 -1 -5 15 -20 17 -14 24 -24 18 -20 -9 4 -11 1 -7 -9 3 -9 10 -14 14 -11
4 3 14 -3 21 -12 12 -14 12 -16 0 -8 -8 4 5 -11 29 -35 25 -25 38 -45 32 -49
-33 -20 17 -26 188 -21 102 3 179 9 172 13 -7 5 -9 13 -6 19 4 6 3 8 -2 5 -6
-3 -16 3 -23 15 -7 11 -8 17 -3 14 6 -3 12 0 15 8 4 9 0 12 -13 9 -10 -3 -21
1 -25 8 -6 8 -4 10 6 5 8 -4 3 2 -11 14 -14 12 -18 18 -10 14 11 -6 10 -1 -4
21 -34 54 -41 62 -48 64 -5 0 -8 3 -8 7 1 3 -8 13 -19 22 -11 9 -21 24 -23 32
-2 8 -12 23 -23 33 -11 10 -14 16 -5 12 12 -5 12 -4 -1 7 -9 7 -14 19 -12 26
3 6 -2 12 -11 12 -8 0 -18 5 -22 12 -5 7 -2 9 7 4 8 -4 3 2 -11 13 -14 11 -20
21 -15 21 6 0 2 5 -8 11 -9 6 -15 14 -12 19 3 4 -2 11 -11 14 -14 5 -14 9 -3
22 11 13 10 15 -3 12 -9 -1 -17 1 -17 5 0 4 -10 17 -23 28 -13 11 -16 18 -8
14 8 -4 4 3 -10 15 -14 12 -19 19 -12 15 6 -3 12 -1 12 4 0 6 -7 11 -15 11 -8
0 -15 6 -15 14 0 8 -7 17 -16 20 -8 3 -13 10 -10 15 3 5 -1 12 -10 15 -9 4
-14 9 -11 13 4 3 -1 12 -11 19 -10 8 -12 13 -4 14 6 0 12 5 12 11 0 6 -7 9
-15 5 -20 -7 -50 35 -32 46 9 5 7 8 -4 8 -9 0 -23 8 -30 17 -12 14 -12 16 1 9
8 -4 4 2 -10 14 -14 12 -18 19 -10 15 8 -4 4 3 -10 15 -14 12 -19 19 -12 15 6
-3 12 -1 12 4 0 6 -6 11 -14 11 -8 0 -18 5 -22 12 -5 7 -2 9 7 4 8 -4 3 2 -11
14 -14 12 -18 19 -10 15 8 -4 4 3 -10 15 -14 12 -18 19 -10 15 8 -4 4 3 -10
14 -18 14 -21 21 -10 21 11 1 10 3 -3 9 -10 4 -18 10 -17 15 1 4 -7 14 -17 23
-10 8 -11 11 -3 7 13 -7 13 -5 1 12 -8 10 -26 30 -40 43 -14 13 -19 20 -11 16
8 -4 4 3 -10 15 -14 12 -18 19 -10 15 8 -4 6 1 -5 10 -11 9 -19 21 -17 26 2 9
-13 13 -32 10 -5 -1 -4 4 3 12 9 12 8 16 -4 21 -9 3 -14 10 -10 15 3 6 -3 14
-12 20 -10 6 -13 11 -8 11 6 0 -1 10 -15 21 -14 11 -19 17 -11 13 9 -5 12 -3
7 4 -4 7 -15 12 -24 13 -13 0 -13 2 -3 6 11 4 8 10 -10 25 -13 11 -17 17 -9
13 8 -4 6 1 -5 10 -11 9 -19 19 -18 23 1 4 -84 7 -188 7 -104 0 -190 -2 -190
-5z"/>
<path d="M36863 7263 l-922 -3 -3 -178 -3 -177 809 3 c574 1 812 -1 822 -9 7
-6 22 -8 33 -4 10 3 22 1 25 -4 4 -6 13 -8 21 -4 8 3 15 0 15 -7 0 -6 5 -8 10
-5 6 3 10 1 10 -5 0 -6 5 -8 10 -5 6 3 10 1 10 -6 0 -7 3 -9 7 -6 3 4 12 -1
20 -11 9 -10 12 -11 7 -2 -4 8 9 0 28 -18 26 -24 34 -40 31 -55 -3 -16 -2 -18
5 -8 11 15 27 -2 17 -18 -3 -5 -1 -12 5 -16 6 -4 10 -62 10 -144 0 -111 -3
-141 -15 -151 -8 -7 -15 -22 -15 -35 0 -25 -34 -60 -58 -60 -10 0 -16 -5 -15
-12 2 -7 -3 -10 -11 -7 -8 3 -23 -3 -33 -13 -11 -11 -25 -17 -33 -15 -8 3 -10
0 -5 -8 5 -8 1 -11 -11 -9 -11 2 -23 1 -29 -1 -5 -3 -304 -4 -663 -2 l-653 2
1 243 1 242 -178 3 -178 3 0 -441 0 -440 930 4 c512 2 941 5 955 8 14 2 31 7
38 11 6 5 17 5 22 2 6 -3 10 -1 10 5 0 7 7 10 15 6 8 -3 15 -1 15 5 0 6 7 9
15 5 8 -3 15 0 15 6 0 6 3 8 7 5 3 -4 11 0 17 8 6 7 18 15 26 17 8 2 21 10 28
18 8 9 11 10 7 2 -6 -11 -3 -11 13 -1 12 7 19 16 16 20 -2 4 11 20 28 35 18
15 32 31 30 36 -1 5 2 7 7 4 13 -9 29 23 24 45 -3 11 0 19 6 19 7 0 9 5 6 10
-3 6 -3 14 0 20 9 15 11 810 2 810 -5 0 -5 10 -2 21 5 16 4 19 -6 14 -9 -6
-11 -3 -6 8 4 10 1 17 -5 17 -6 0 -8 3 -5 7 4 3 -1 12 -11 20 -9 8 -11 12 -5
8 9 -4 11 -1 7 9 -3 9 -9 14 -13 11 -4 -2 -25 14 -46 35 -22 22 -35 40 -30 40
5 0 -1 7 -13 16 -13 9 -26 13 -29 10 -3 -3 -12 2 -20 12 -9 10 -12 11 -7 2 6
-11 2 -10 -13 3 -11 9 -23 14 -26 10 -4 -3 -7 -1 -7 5 0 6 -7 9 -15 6 -8 -4
-15 -1 -15 5 0 6 -7 8 -15 5 -8 -4 -15 -1 -15 5 0 7 -9 9 -24 5 -13 -3 -27 -1
-30 5 -4 6 -13 10 -19 9 -7 -2 -427 -4 -934 -5z"/>
<path d="M38770 7260 c0 -7 -8 -10 -20 -7 -11 3 -22 1 -25 -4 -3 -4 -12 -6
-20 -2 -8 3 -15 0 -15 -7 0 -6 -4 -8 -10 -5 -5 3 -10 0 -10 -7 -1 -8 -7 -5
-17 7 -12 15 -14 16 -10 3 4 -11 -3 -22 -19 -32 -13 -9 -24 -13 -24 -9 0 4 -7
-2 -15 -13 -8 -10 -15 -15 -15 -10 0 4 -21 -17 -47 -48 -26 -31 -51 -56 -56
-56 -4 0 -5 -4 -2 -10 3 -5 1 -10 -5 -10 -6 0 -8 -4 -5 -10 3 -5 2 -10 -4 -10
-6 0 -8 -7 -5 -15 4 -8 1 -15 -5 -15 -7 0 -9 -10 -5 -26 4 -15 3 -25 -2 -21
-5 3 -9 -6 -9 -19 l0 -24 1123 0 1122 0 0 175 0 175 -927 0 c-511 0 -938 3
-950 6 -15 4 -23 2 -23 -6z"/>
<path d="M41265 7260 c-4 -6 -15 -8 -26 -5 -11 4 -19 2 -19 -5 0 -7 -7 -10
-15 -6 -8 3 -15 1 -15 -5 0 -6 -7 -9 -15 -5 -8 3 -15 1 -15 -5 0 -6 -4 -7 -10
-4 -5 3 -10 1 -10 -5 0 -6 -3 -9 -7 -7 -11 6 -43 -30 -35 -39 4 -4 1 -4 -6 0
-7 4 -10 12 -7 17 4 5 1 9 -6 9 -7 0 -9 -8 -6 -21 3 -12 3 -18 0 -15 -4 3 -16
-2 -27 -11 -20 -17 -20 -17 -6 2 8 11 -3 5 -23 -14 -24 -23 -33 -37 -26 -42 7
-4 4 -9 -10 -14 -12 -3 -19 -10 -16 -15 3 -4 -2 -11 -11 -14 -10 -4 -13 -13
-9 -27 5 -16 4 -19 -5 -14 -9 5 -10 2 -5 -14 3 -11 3 -21 -2 -21 -4 0 -8 -67
-8 -150 0 -82 4 -150 9 -150 4 0 6 -9 3 -20 -3 -11 -1 -20 3 -20 5 0 7 -13 5
-29 -2 -22 0 -28 10 -25 13 5 42 -32 37 -48 -1 -4 7 -5 18 -3 11 2 19 1 18 -3
-3 -18 15 -40 32 -37 14 3 17 -1 13 -13 -6 -15 -5 -15 10 -3 15 12 17 12 11
-4 -5 -13 -4 -16 4 -11 7 4 12 3 12 -3 0 -6 7 -7 17 -4 12 5 14 3 8 -7 -6 -10
-4 -12 8 -7 9 3 19 2 22 -3 3 -5 12 -7 20 -3 8 3 15 0 15 -6 0 -7 9 -9 25 -5
15 4 25 2 25 -4 0 -7 249 -11 767 -12 421 0 770 -3 775 -6 4 -3 8 -39 8 -80 0
-44 -4 -73 -9 -69 -6 3 -427 5 -937 5 -681 0 -931 -3 -939 -12 -7 -8 -6 -9 3
-4 9 6 12 -32 12 -174 0 -134 -3 -179 -12 -174 -7 4 -8 3 -4 -5 6 -8 240 -11
947 -11 669 0 938 4 933 11 -4 8 3 9 25 4 21 -4 31 -3 31 5 0 7 8 9 20 5 12
-4 20 -2 20 5 0 7 7 10 15 6 8 -3 15 -1 15 5 0 6 9 8 20 4 13 -4 22 -1 26 9 3
9 10 13 15 10 5 -3 9 0 9 7 0 7 3 9 7 6 3 -4 12 1 20 11 8 9 12 11 8 5 -3 -7
-2 -13 2 -13 5 0 13 10 18 23 6 12 17 22 25 22 8 1 14 6 13 12 -1 6 8 22 21
36 13 14 21 28 18 31 -3 3 0 6 7 6 7 0 9 5 6 10 -3 6 -2 10 4 10 6 0 8 7 5 15
-4 8 -1 15 5 15 6 0 8 7 5 15 -3 8 -2 20 2 26 4 7 6 78 5 158 -1 80 -3 156 -3
169 0 12 -5 22 -10 22 -6 0 -8 7 -4 15 3 8 0 15 -6 15 -6 0 -8 3 -5 7 4 3 -1
12 -11 20 -16 12 -16 13 3 6 17 -6 18 -5 5 9 -8 9 -18 14 -22 12 -3 -2 -17 9
-31 25 -14 17 -28 27 -31 24 -3 -4 -6 -1 -6 6 0 7 -4 9 -10 6 -5 -3 -10 -1
-10 5 0 6 -4 8 -10 5 -5 -3 -10 -1 -10 5 0 6 -4 8 -10 5 -5 -3 -10 -1 -10 5 0
7 -8 9 -20 5 -11 -4 -20 -2 -20 4 0 6 -6 8 -14 5 -8 -3 -17 0 -21 6 -4 6 -15
8 -26 5 -10 -4 -23 -3 -29 0 -6 4 -361 6 -790 5 l-780 -1 0 91 0 90 943 -2
942 -3 -3 178 -3 177 -922 0 c-507 0 -932 3 -943 6 -12 3 -25 1 -29 -6z"/>
<path d="M8810 7244 c0 -9 4 -13 8 -10 5 3 9 -1 9 -8 0 -7 -7 -13 -16 -12 -9
1 -15 -5 -13 -12 1 -7 -5 -15 -13 -18 -8 -3 -13 -10 -10 -15 3 -4 -4 -13 -15
-19 -11 -6 -18 -15 -15 -20 3 -5 -2 -13 -11 -18 -9 -5 -16 -13 -16 -18 0 -5
-4 -8 -8 -7 -4 1 -11 -4 -14 -13 -4 -10 -1 -13 7 -9 6 4 1 -3 -13 -15 -14 -12
-18 -18 -10 -14 13 7 13 5 2 -8 -8 -10 -20 -14 -30 -11 -15 6 -15 5 -3 -11 13
-15 12 -18 -7 -23 -12 -3 -22 -10 -22 -15 0 -5 5 -6 12 -2 7 5 8 3 4 -5 -5 -7
-15 -10 -23 -7 -8 3 -11 2 -8 -3 3 -5 0 -11 -7 -14 -7 -2 -5 -3 5 -1 15 2 16
0 6 -12 -10 -12 18 -14 201 -14 181 0 211 -2 207 -14 -4 -10 -1 -13 7 -10 8 3
17 0 22 -7 5 -8 3 -10 -7 -4 -8 4 0 -5 16 -20 17 -14 23 -23 15 -20 -8 4 -1
-5 15 -20 17 -14 23 -23 15 -20 -8 4 -4 -3 10 -15 14 -12 18 -18 10 -14 -13 7
-13 5 -1 -9 13 -16 -8 -17 -312 -17 -293 0 -326 -2 -338 -17 -12 -14 -12 -16
1 -9 8 4 4 -2 -10 -14 -14 -12 -18 -19 -10 -15 8 4 4 -3 -10 -14 -14 -11 -21
-21 -16 -21 6 0 1 -7 -10 -16 -10 -8 -12 -13 -4 -9 8 4 4 -3 -9 -14 -13 -12
-19 -21 -15 -21 5 0 0 -7 -10 -15 -11 -8 -16 -15 -10 -15 5 0 0 -7 -10 -15
-11 -8 -16 -15 -12 -15 5 0 -7 -14 -25 -31 -25 -23 -29 -33 -20 -39 10 -6 8
-10 -8 -15 -12 -3 -19 -11 -16 -16 4 -5 -1 -12 -9 -15 -9 -3 -13 -10 -10 -15
3 -5 -6 -20 -20 -34 -14 -14 -22 -25 -18 -25 4 0 0 -6 -9 -13 -9 -7 -18 -16
-20 -22 -2 -5 -7 -9 -11 -8 -5 2 -9 -2 -9 -7 -1 -6 -2 -16 -3 -22 -1 -7 -8
-12 -15 -10 -8 2 -11 -3 -8 -12 4 -9 -1 -20 -11 -25 -9 -6 -12 -11 -7 -11 6 0
-1 -10 -15 -21 -14 -11 -18 -18 -10 -14 10 4 9 1 -2 -8 -10 -8 -18 -20 -18
-26 0 -7 -3 -10 -7 -8 -5 2 -17 -5 -27 -16 -19 -20 -19 -20 0 -14 18 7 18 6 1
-7 -10 -8 -18 -18 -17 -22 1 -5 -7 -11 -17 -15 -13 -6 -14 -8 -3 -9 11 0 8 -7
-10 -21 -14 -11 -18 -18 -10 -14 8 4 4 -3 -10 -15 -14 -12 -18 -19 -10 -15 8
4 4 -3 -10 -15 -14 -12 -18 -19 -10 -15 8 4 4 -3 -10 -15 -14 -12 -18 -18 -10
-14 12 6 13 4 3 -7 -33 -35 -18 -39 152 -39 152 0 168 2 187 20 15 13 17 20 8
20 -8 0 5 12 28 27 23 15 39 29 37 31 -3 3 -11 -1 -20 -8 -8 -7 -15 -10 -15
-6 0 3 15 16 33 27 17 12 23 18 12 15 -14 -4 -9 4 15 25 19 17 28 28 20 24 -8
-3 -1 6 15 20 17 15 23 24 15 20 -8 -4 1 8 20 25 19 17 28 28 20 24 -13 -7
-13 -5 -1 9 7 9 20 17 27 17 8 0 14 5 14 11 0 5 -6 7 -12 4 -7 -4 5 10 27 30
22 21 33 33 25 29 -9 -5 -4 2 10 16 14 14 20 21 14 17 -7 -4 -15 -3 -20 4 -4
7 -3 9 3 6 5 -3 22 5 39 19 16 14 22 22 14 19 -8 -4 -1 6 15 22 17 15 26 26
20 23 -6 -3 -2 3 10 14 11 10 19 23 17 28 -1 5 2 7 8 3 6 -4 168 -6 360 -5
279 0 350 -2 350 -12 0 -9 3 -8 10 2 9 14 11 13 14 -9 0 -5 12 -19 26 -31 14
-12 18 -18 10 -15 -8 4 -1 -5 15 -20 17 -14 23 -23 15 -20 -8 4 -1 -5 15 -20
17 -14 24 -24 18 -20 -8 4 -11 1 -7 -9 3 -9 9 -15 12 -14 21 2 33 -4 30 -14
-3 -7 5 -21 16 -31 12 -10 16 -16 10 -13 -6 3 -11 -1 -11 -9 0 -8 3 -12 7 -10
4 2 16 -3 26 -11 10 -9 12 -13 4 -9 -8 4 -4 -2 10 -14 14 -11 25 -26 25 -33 0
-7 8 -12 17 -12 12 1 15 -5 11 -26 -3 -21 0 -28 12 -26 9 0 29 -15 43 -33 15
-19 20 -31 12 -27 -8 4 -3 -2 11 -13 28 -22 70 -79 48 -66 -8 5 -10 4 -5 -3 5
-8 60 -12 181 -12 140 0 174 3 178 14 3 8 -4 22 -16 31 -12 9 -15 13 -7 10 8
-4 4 3 -10 15 -14 12 -19 19 -12 15 6 -3 12 -2 12 3 0 5 -9 12 -20 15 -14 3
-18 10 -14 21 4 9 3 16 -2 14 -5 -2 -10 1 -11 6 -1 5 -7 12 -14 17 -7 4 -14
16 -15 26 -2 10 -16 28 -31 40 -15 13 -28 29 -28 38 0 8 -9 22 -20 30 -11 9
-13 14 -5 10 8 -4 4 3 -10 15 -14 12 -18 19 -10 15 8 -4 4 3 -10 14 -14 11
-20 21 -15 21 6 0 2 5 -8 11 -9 6 -15 14 -12 19 3 4 -2 11 -11 14 -8 3 -13 10
-10 15 3 5 -1 12 -9 15 -8 3 -14 10 -13 15 2 5 -6 17 -17 26 -11 9 -13 14 -5
10 8 -4 6 1 -4 9 -11 9 -16 16 -10 16 5 0 -2 10 -16 21 -14 11 -18 18 -10 14
8 -4 4 3 -10 15 -14 12 -18 19 -10 15 8 -4 4 3 -10 14 -14 11 -20 21 -15 21 6
0 2 5 -8 11 -14 8 -15 14 -7 24 8 9 7 13 -2 11 -7 0 -14 3 -15 8 -1 5 -7 12
-15 17 -7 5 -13 13 -13 18 0 6 -9 17 -20 26 -11 9 -13 14 -5 10 8 -4 4 3 -10
14 -14 11 -22 21 -18 21 4 0 -4 11 -18 25 -14 14 -22 30 -19 35 6 9 -9 15 -29
11 -5 -1 -4 4 3 12 9 12 8 16 -4 21 -9 3 -14 9 -12 14 7 10 -19 58 -30 55 -4
-2 -8 1 -8 7 0 5 -9 16 -20 25 l-20 15 20 -6 c12 -3 9 1 -7 11 -27 15 -40 33
-15 20 6 -4 1 3 -13 15 -14 12 -19 19 -13 15 8 -4 11 -1 7 9 -3 9 -9 14 -12
13 -4 -1 -8 2 -9 7 0 5 -8 13 -17 18 -8 5 -13 15 -9 24 3 8 2 14 -3 12 -5 -2
-11 2 -13 7 -3 6 -14 18 -25 28 -12 10 -14 16 -6 12 8 -4 4 3 -10 15 -14 12
-18 19 -10 15 8 -4 4 3 -10 15 -14 12 -20 19 -14 16 6 -3 11 1 11 8 0 8 -6 12
-13 9 -6 -2 -15 1 -20 8 -5 8 -3 10 5 4 24 -14 -19 55 -44 71 -14 9 -22 20
-20 25 3 5 -87 8 -200 8 -174 0 -205 -3 -205 -15z"/>
<path d="M16313 7247 c1 -7 -4 -11 -12 -9 -8 2 -11 -3 -8 -12 4 -10 -2 -20
-13 -26 -11 -6 -19 -15 -17 -20 1 -5 -7 -16 -18 -25 -11 -9 -15 -14 -8 -11 6
4 15 1 19 -5 4 -7 3 -9 -3 -6 -6 4 -19 -1 -29 -9 -10 -9 -12 -13 -4 -9 8 4 4
-3 -10 -15 -14 -12 -20 -19 -13 -16 6 4 15 1 19 -5 4 -7 3 -9 -2 -6 -5 3 -21
-4 -34 -15 -14 -11 -18 -17 -10 -13 8 4 4 -3 -10 -15 -14 -12 -18 -19 -10 -15
8 4 4 -3 -10 -15 -14 -12 -18 -19 -10 -15 8 4 5 -2 -7 -13 -12 -11 -19 -22
-16 -25 3 -4 -6 -11 -21 -16 -26 -10 -36 -31 -15 -31 5 0 8 3 6 8 -5 7 409 5
431 -3 7 -3 11 -9 7 -14 -3 -6 3 -15 14 -21 13 -7 18 -16 14 -27 -4 -10 -2
-14 4 -10 10 6 31 -12 47 -40 5 -9 1 -11 -11 -7 -10 3 -2 -5 17 -18 l35 -23
-345 -5 c-190 -3 -338 -7 -330 -8 12 -2 12 -5 -3 -13 -9 -6 -15 -14 -12 -20 4
-5 -1 -12 -10 -15 -12 -5 -13 -10 -4 -20 8 -10 6 -12 -11 -9 -17 3 -20 0 -16
-11 4 -10 -1 -18 -14 -21 -11 -3 -20 -10 -20 -15 0 -5 4 -7 9 -3 5 3 12 2 15
-3 2 -4 -5 -9 -16 -9 -12 -1 -26 -7 -32 -14 -8 -9 -6 -10 9 -5 l20 6 -20 -15
c-11 -9 -20 -20 -20 -26 0 -5 -6 -13 -13 -18 -8 -5 -14 -12 -14 -17 0 -5 -5
-8 -10 -6 -6 2 -8 -4 -4 -13 3 -10 -4 -26 -19 -41 -13 -13 -24 -27 -24 -30 0
-3 -3 -9 -7 -12 -4 -4 -4 -1 0 6 4 6 2 12 -3 12 -6 0 -11 -7 -11 -15 0 -24 -2
-29 -19 -43 -13 -11 -13 -12 -1 -7 8 4 4 -3 -9 -14 -13 -12 -19 -21 -15 -21 5
0 0 -7 -10 -15 -11 -8 -16 -15 -10 -15 5 0 -2 -10 -16 -21 -14 -11 -18 -18
-10 -14 8 4 6 -1 -5 -10 -11 -9 -19 -21 -18 -26 2 -5 -4 -9 -12 -9 -8 0 -15
-5 -15 -11 0 -5 6 -7 13 -4 6 4 3 -2 -8 -12 -11 -10 -21 -25 -23 -33 -2 -8
-15 -26 -30 -39 -15 -13 -20 -20 -12 -16 8 4 4 -3 -10 -15 -14 -12 -18 -19
-10 -15 8 4 4 -3 -10 -15 -14 -12 -18 -19 -10 -15 8 4 6 -2 -5 -12 -11 -10
-21 -25 -23 -33 -2 -8 -19 -29 -38 -46 -22 -21 -32 -37 -28 -48 5 -14 28 -16
158 -17 176 -1 188 -1 201 13 7 8 5 9 -5 4 -8 -4 -4 2 10 14 14 12 25 27 25
32 0 5 11 18 25 29 14 12 18 18 10 14 -8 -4 -4 3 10 16 14 12 24 25 23 30 -2
5 8 16 22 25 14 9 22 20 20 25 -3 4 3 13 14 18 11 6 30 25 42 43 13 17 16 28
8 23 -12 -8 -12 -6 0 8 7 9 19 17 26 17 7 0 16 7 19 16 4 10 1 13 -7 9 -6 -3
-3 1 8 9 11 8 29 23 40 32 18 15 17 15 -10 -1 l-30 -16 30 27 c17 15 29 33 27
41 -3 11 9 17 30 15 3 -1 9 5 12 14 4 10 1 13 -7 9 -6 -4 2 6 18 20 17 15 23
24 15 19 -12 -6 -11 -3 2 12 16 18 30 19 367 14 193 -3 356 -3 361 -2 6 2 8 8
4 13 -9 15 3 10 17 -8 12 -14 12 -16 -1 -9 -8 4 -4 -2 10 -14 14 -12 18 -19
10 -15 -8 4 1 -8 20 -25 19 -17 30 -29 24 -26 -6 3 -11 -1 -11 -8 0 -7 7 -13
16 -12 9 0 16 -4 16 -10 0 -7 11 -22 25 -34 14 -12 18 -18 10 -15 -8 4 -1 -5
15 -20 17 -14 24 -24 18 -20 -7 3 -13 1 -13 -4 0 -6 4 -11 8 -11 5 0 17 -7 28
-16 10 -8 12 -13 4 -9 -8 4 -4 -3 10 -15 14 -12 25 -26 25 -31 0 -6 7 -14 15
-19 8 -5 15 -15 15 -22 1 -7 5 -12 11 -11 5 1 16 -7 23 -19 10 -16 10 -19 -1
-13 -7 4 -2 -2 11 -13 13 -11 21 -24 17 -31 -4 -6 -1 -11 7 -11 8 0 21 -8 28
-17 12 -14 12 -16 -1 -9 -8 4 -1 -5 15 -19 17 -15 24 -24 16 -20 -9 6 -12 4
-7 -3 4 -7 14 -12 22 -12 8 0 12 -4 9 -10 -4 -7 57 -10 174 -10 121 0 181 4
181 11 0 5 -4 7 -10 4 -9 -5 -12 1 -9 21 0 3 -8 12 -18 20 -10 7 -14 14 -9 14
4 0 -1 8 -13 18 -12 9 -23 28 -26 41 -3 14 -12 32 -22 40 -16 15 -16 15 -2 -3
9 -13 9 -17 2 -12 -7 4 -18 16 -24 28 -9 16 -8 19 2 13 8 -6 10 -4 5 4 -5 7
-14 10 -20 8 -7 -3 -13 1 -13 9 0 7 5 11 11 8 6 -3 1 3 -12 13 -18 15 -20 21
-10 31 11 11 10 12 -3 7 -16 -6 -35 10 -41 35 -2 8 -12 23 -23 33 -11 10 -13
16 -5 12 8 -4 4 3 -10 15 -14 12 -18 19 -10 15 8 -4 4 3 -10 15 -14 12 -18 19
-10 15 8 -4 4 3 -10 15 -14 12 -19 19 -12 15 6 -3 12 -2 12 3 0 5 -9 12 -21
15 -12 3 -18 10 -15 15 3 6 -1 13 -10 16 -9 4 -14 9 -11 13 4 3 -1 12 -11 20
-11 9 -12 12 -2 8 8 -4 2 3 -13 16 -15 13 -29 32 -31 41 -1 10 -11 25 -22 34
-10 8 -13 13 -6 9 6 -3 12 -1 12 4 0 6 -6 11 -14 11 -8 0 -18 5 -22 12 -5 7
-2 9 7 4 8 -4 3 2 -11 14 -14 12 -18 19 -10 15 8 -4 4 3 -10 14 -14 11 -20 21
-15 21 6 0 2 5 -8 11 -9 6 -15 14 -12 19 3 4 -2 11 -11 14 -8 3 -13 10 -10 15
3 5 -1 12 -9 15 -8 3 -14 10 -13 15 2 5 -6 17 -17 26 -11 9 -13 13 -5 9 8 -4
0 6 -17 23 -34 32 -43 49 -20 38 6 -4 1 3 -13 15 -14 12 -18 19 -10 15 8 -4 4
3 -10 15 -14 12 -18 19 -10 15 8 -4 4 3 -10 15 -14 12 -19 18 -11 14 9 -4 12
-2 9 7 -3 8 -10 14 -16 14 -7 0 -12 4 -11 9 0 5 -5 12 -13 17 -7 5 -13 13 -13
18 0 6 -9 17 -20 26 -11 9 -14 13 -6 9 10 -5 12 -3 7 5 -5 7 -14 10 -20 8 -7
-3 -13 1 -13 9 0 7 5 11 11 8 6 -3 0 4 -14 16 -14 12 -18 19 -10 15 8 -4 4 3
-10 14 -14 11 -21 21 -16 21 6 0 1 7 -10 15 -10 8 -15 15 -10 15 6 0 1 7 -10
15 -10 8 -16 15 -12 15 4 0 -4 11 -17 24 -16 16 -22 31 -18 42 4 11 2 15 -4
11 -6 -4 -17 1 -24 10 -12 14 -12 16 1 9 8 -4 6 0 -5 9 -17 13 -49 16 -207 15
-137 -1 -187 -5 -185 -13z"/>
<path d="M28622 6733 l-183 -3 3 -423 3 -422 180 -3 180 -2 0 430 c0 236 0
429 0 428 0 -2 -82 -4 -183 -5z"/>
<path d="M38424 6473 c5 -314 6 -323 19 -323 6 0 7 -3 4 -7 -4 -3 -2 -12 4
-20 6 -7 8 -13 3 -13 -4 0 1 -7 12 -16 10 -8 12 -12 4 -9 -8 4 -1 -5 15 -20
17 -14 24 -24 18 -20 -23 11 -13 -10 14 -29 14 -11 23 -13 18 -6 -5 8 8 1 28
-14 20 -16 37 -33 37 -38 0 -5 4 -7 9 -3 5 3 16 -1 24 -9 8 -8 17 -12 21 -9 3
4 6 1 6 -6 0 -7 5 -9 10 -6 6 3 10 1 10 -5 0 -7 7 -10 15 -7 8 4 17 2 20 -3 3
-5 12 -7 20 -3 8 3 15 0 15 -6 0 -14 -65 -13 993 -17 664 -3 937 -1 937 6 0 6
-3 9 -7 7 -5 -3 -6 78 -3 180 3 119 1 187 -5 189 -5 2 -432 3 -948 2 l-937 -3
0 75 0 75 947 -2 948 -3 -3 165 -3 165 -1124 0 -1125 0 4 -267z"/>
</g>
</svg>
