<?xml version="1.0" encoding="UTF-8" standalone="no"?>
<!-- Created with Inkscape (http://www.inkscape.org/) -->

<svg
   xmlns:dc="http://purl.org/dc/elements/1.1/"
   xmlns:cc="http://creativecommons.org/ns#"
   xmlns:rdf="http://www.w3.org/1999/02/22-rdf-syntax-ns#"
   xmlns:svg="http://www.w3.org/2000/svg"
   xmlns="http://www.w3.org/2000/svg"
   version="1.0"
   width="125"
   height="25"
   viewBox="0 0 100 20"
   id="svg2">
  <defs
     id="defs50" />
  <metadata
     id="metadata4">
Created by potrace 1.12, written by Peter Selinger 2001-2015
<rdf:RDF>
  <cc:Work
     rdf:about="">
    <dc:format>image/svg+xml</dc:format>
    <dc:type
       rdf:resource="http://purl.org/dc/dcmitype/StillImage" />
    <dc:title></dc:title>
  </cc:Work>
</rdf:RDF>
</metadata>
  <g
     transform="matrix(0.1,0,0,-0.1,0,20)"
     id="g6"
     style="fill:#000000;stroke:none">
    <path
       d="m -172.41117,201.40756 0,-215.545285 1104.91827,0 1104.9182,0 0,215.545285 0,215.54528 -1104.9182,0 -1104.91827,0 0,-215.54528 z M 2036.4968,415.89171 c 0.3537,-0.44219 0.4422,-56.85976 0.3979,-214.97053 L 2036.7622,-13.474492 932.99348,-13.60716 c -815.71179,-0.04419 -1103.90135,0.04419 -1104.3435,0.397896 -0.53057,0.442191 -0.619,35.238852 -0.619,214.837864 0,117.83139 0.13264,214.43997 0.3095,214.57253 0.13265,0.17685 496.92582,0.30952 1103.94547,0.30952 927.53005,0 1103.76865,-0.0884 1104.21085,-0.61894 z"
       id="path8" />
    <path
       d="m 883.88282,174.9111 c -0.0411,-0.14457 -0.61979,-2.64424 -1.23953,-5.53643 -1.01226,-4.62753 -14.6055,-65.96252 -14.85341,-67.03675 -0.10331,-0.41316 -0.22731,-0.41316 -22.37312,-0.35122 -26.38087,0.0826 -61.70688,0.24789 -113.99348,0.55778 -10.45319,0.062 -27.7443,0.14462 -38.42475,0.20661 -10.68041,0.062 -27.7443,0.14462 -37.90827,0.20655 -10.16402,0.062 -26.71144,0.14462 -36.77211,0.20661 -10.06071,0.062 -27.10391,0.14462 -37.90827,0.20655 -29.54165,0.16532 -55.11687,0.28925 -75.91994,0.41322 -10.28788,0.0413 -27.20718,0.14457 -37.5984,0.20656 -10.39121,0.062 -27.35179,0.14461 -37.70171,0.2066 -10.32923,0.062 -27.3518,0.14462 -37.805,0.20656 -10.45319,0.062 -27.26921,0.16526 -37.39182,0.20661 -34.31374,0.18591 -56.95542,0.30988 -75.91988,0.41316 -10.39121,0.062 -27.04196,0.16526 -36.97869,0.20661 -9.93673,0.0413 -26.95931,0.14457 -37.80501,0.2272 -10.8457,0.062 -27.02128,0.12397 -35.94574,0.14462 -8.92446,0.0207 -21.4435,0.12397 -27.82696,0.22725 -10.7424,0.16526 -11.63072,0.16526 -11.63072,-0.14462 0,-0.37182 0.33053,-0.41316 5.57778,-0.4958 1.42544,-0.0207 4.02841,-0.10327 5.78438,-0.16526 5.04067,-0.18591 8.53194,-0.30988 11.77533,-0.41316 1.65267,-0.062 4.40025,-0.14462 6.09425,-0.20661 1.71465,-0.0619 4.50354,-0.16526 6.19754,-0.22725 1.71465,-0.0413 4.40026,-0.14457 5.99095,-0.18591 1.59071,-0.062 4.23499,-0.14462 5.88767,-0.20656 1.65268,-0.062 4.44157,-0.14462 6.19754,-0.2066 1.75597,-0.062 4.50355,-0.16527 6.09426,-0.20662 1.59069,-0.0619 4.23498,-0.14456 5.88766,-0.20655 1.65267,-0.062 4.44157,-0.16527 6.19754,-0.20661 1.75596,-0.0619 4.50354,-0.16526 6.09425,-0.20655 1.5907,-0.062 4.19367,-0.14462 5.78437,-0.20661 1.5907,-0.062 4.29696,-0.14462 5.99096,-0.20656 1.71465,-0.062 4.50354,-0.14461 6.19753,-0.2066 1.71466,-0.062 4.40026,-0.16527 5.99097,-0.20656 1.5907,-0.062 4.23499,-0.14462 5.88766,-0.2066 1.65268,-0.062 4.48289,-0.14463 6.30083,-0.20661 4.83411,-0.16527 8.7179,-0.30984 11.98191,-0.41317 6.67269,-0.22725 9.44091,-0.30988 12.08521,-0.41316 1.52873,-0.062 4.235,-0.14462 5.99099,-0.20656 1.75593,-0.062 4.60682,-0.16526 6.30082,-0.22724 2.91284,-0.10333 4.25565,-0.14463 11.67204,-0.39252 1.65266,-0.062 4.40023,-0.14463 6.09422,-0.20661 1.71469,-0.0619 4.50355,-0.14457 6.19755,-0.20656 3.40868,-0.12397 7.72627,-0.26859 12.18853,-0.41316 1.59067,-0.0413 4.29694,-0.14462 5.99094,-0.20661 1.71464,-0.062 4.50355,-0.14462 6.19755,-0.20655 4.64817,-0.16532 8.7592,-0.30989 11.98193,-0.41322 1.59066,-0.0619 4.23495,-0.14456 5.88766,-0.20655 1.65265,-0.062 4.40022,-0.14462 6.09421,-0.20661 1.71464,-0.062 4.50356,-0.16526 6.1976,-0.20656 1.71459,-0.062 4.40022,-0.16526 5.99089,-0.2066 1.59072,-0.062 4.23501,-0.14462 5.88766,-0.20656 1.6527,-0.062 4.44161,-0.14462 6.19754,-0.2066 6.4248,-0.22726 9.04845,-0.30989 11.98193,-0.41317 1.65271,-0.062 4.44162,-0.14462 6.19755,-0.20661 1.75598,-0.0619 4.50355,-0.16526 6.09427,-0.20655 1.59071,-0.062 4.15232,-0.14462 5.68105,-0.20661 1.52878,-0.062 4.2763,-0.14462 6.09427,-0.20656 3.0988,-0.10332 5.01999,-0.16526 12.49837,-0.43385 1.65265,-0.0413 4.21431,-0.12393 5.68105,-0.18591 1.48744,-0.0413 4.17302,-0.14462 5.99099,-0.20661 4.85473,-0.16526 8.49062,-0.30984 11.98193,-0.41317 1.71464,-0.062 4.44157,-0.14461 6.09422,-0.20655 2.99552,-0.10333 6.48678,-0.22725 12.29181,-0.41316 1.71464,-0.062 4.42092,-0.16532 6.05293,-0.20661 3.24337,-0.12397 7.47833,-0.26854 12.02323,-0.41316 7.87089,-0.26855 9.81273,-0.33053 18.07612,-0.61977 1.71471,-0.062 4.40027,-0.16527 5.99097,-0.20656 1.5907,-0.062 4.37962,-0.14462 6.19758,-0.20661 1.81791,-0.062 4.56548,-0.16526 6.09422,-0.2066 6.65206,-0.2272 9.35832,-0.33053 11.98193,-0.41317 1.52875,-0.0619 4.23501,-0.14456 5.99092,-0.20655 3.32606,-0.12398 6.83797,-0.22725 11.98194,-0.41316 2.93348,-0.10333 6.17688,-0.20661 12.18849,-0.41317 1.6527,-0.062 4.40027,-0.14462 6.09427,-0.2066 1.71466,-0.062 4.40023,-0.14462 5.99092,-0.20661 1.59075,-0.0619 4.19371,-0.14457 5.78441,-0.20656 1.59069,-0.062 4.37961,-0.14462 6.19753,-0.20661 4.64818,-0.16526 8.61457,-0.28918 11.98188,-0.41316 1.5907,-0.062 4.37962,-0.14462 6.19763,-0.20655 4.1523,-0.14462 7.99479,-0.2686 11.98183,-0.41322 1.71471,-0.0619 4.40027,-0.16526 5.99097,-0.20655 1.5907,-0.0413 4.37962,-0.14462 6.19758,-0.20661 7.37505,-0.26854 9.02775,-0.30988 12.08524,-0.41316 1.75595,-0.062 4.50348,-0.16527 6.09417,-0.20656 1.59075,-0.062 4.25566,-0.14462 5.94967,-0.20661 6.50744,-0.22725 9.13101,-0.30988 11.98193,-0.41316 1.61135,-0.062 4.33827,-0.16526 6.03227,-0.2066 1.71465,-0.0619 4.54483,-0.14457 6.30083,-0.20656 1.75596,-0.062 4.54484,-0.16527 6.19753,-0.20661 1.65266,-0.062 4.29697,-0.14462 5.88767,-0.20655 5.47453,-0.20661 11.09362,-0.39252 17.97289,-0.61978 4.64814,-0.16526 8.82115,-0.30988 12.18845,-0.41316 1.59075,-0.062 4.29697,-0.14462 5.99102,-0.2066 6.528,-0.22726 9.39962,-0.30989 12.08519,-0.41317 1.52869,-0.062 4.1317,-0.14462 5.7844,-0.206552 1.65265,-0.06199 4.33822,-0.144619 5.99087,-0.206607 6.13562,-0.206606 9.06911,-0.309888 12.2918,-0.413165 3.94579,-0.144618 8.05685,-0.268543 11.98194,-0.413161 1.59074,-0.06199 4.33831,-0.144623 6.09427,-0.206606 6.34218,-0.20656 9.64749,-0.330531 12.29175,-0.413166 1.4874,-0.06199 4.02845,-0.144618 5.68115,-0.206606 3.07809,-0.103277 7.74687,-0.268543 12.49836,-0.413161 1.48744,-0.06194 4.09036,-0.144571 5.78436,-0.206559 1.71465,-0.06198 4.44157,-0.144618 6.09422,-0.206606 1.65266,-0.06199 4.40027,-0.144619 6.09427,-0.206555 1.71466,-0.06199 4.40023,-0.144618 5.99092,-0.206606 1.59075,-0.06199 4.29701,-0.144623 5.99102,-0.20656 1.71465,-0.06198 4.50348,-0.144618 6.19753,-0.206606 1.71465,-0.06198 4.44157,-0.144618 6.09422,-0.206606 3.9871,-0.144567 8.13945,-0.28919 11.67207,-0.413161 1.59069,-0.06194 4.31756,-0.144623 6.05292,-0.206559 1.7147,-0.06198 4.56553,-0.144618 6.30083,-0.206606 3.67723,-0.144619 7.66427,-0.268543 12.12654,-0.392514 1.75596,-0.06194 3.49127,-0.123925 3.82179,-0.165266 0.55778,-0.06199 0.61979,0 0.55778,0.454502 -0.0205,0.28919 -0.1033,1.032933 -0.14456,1.652653 -0.0827,1.198198 -0.14465,1.962588 -0.59913,7.333753 -0.062,0.68176 -0.14461,1.75598 -0.20657,2.37575 -0.14461,1.54938 -0.28921,3.34665 -0.41322,4.95801 -0.0411,0.74374 -0.14456,1.85931 -0.20661,2.47903 -0.0619,0.61977 -0.14456,1.73534 -0.20652,2.47903 -0.1033,1.38411 -0.22726,2.99547 -0.39252,4.95805 -0.062,0.61972 -0.16521,1.73529 -0.20661,2.47898 -0.062,0.74375 -0.16521,1.85926 -0.22722,2.47903 -0.26852,3.03681 -0.43387,4.9787 -0.61978,7.23048 -0.10326,1.38411 -0.22722,2.99547 -0.39253,4.95801 -0.0619,0.61976 -0.16526,1.73533 -0.20651,2.47902 -0.062,0.7437 -0.16536,1.85926 -0.20661,2.47903 -0.062,0.61977 -0.16526,1.73529 -0.20657,2.47903 -0.062,0.7437 -0.16531,1.85926 -0.22726,2.47898 -0.062,0.61977 -0.14461,1.69399 -0.18596,2.37575 -0.062,0.68171 -0.14461,1.79727 -0.20656,2.47903 -0.062,0.6817 -0.16526,1.75598 -0.22727,2.3757 -0.0619,0.61977 -0.1446,1.73533 -0.20651,2.47903 -0.12401,1.73533 -0.26857,3.5326 -0.41318,4.95805 -0.12396,1.40476 -0.26861,3.22273 -0.39252,4.85473 -0.20661,2.70623 -0.41318,5.16461 -0.61979,7.33376 -0.0619,0.61972 -0.16526,1.73528 -0.22721,2.47903 -0.0411,0.74369 -0.14466,1.90055 -0.20657,2.5823 -0.124,1.21885 -0.20661,2.23108 -0.41317,4.85473 -0.062,0.7437 -0.10331,1.73529 -0.10331,2.21044 0,0.47514 -0.14465,1.1569 -0.33057,1.48743 -0.18591,0.39252 -0.22721,0.66106 -0.10325,0.7437 0.33052,0.2066 0.24791,0.9296 -0.10331,0.9296 -0.18596,0 -0.37187,-0.12392 -0.41317,-0.2479 z"
       id="path10" />
    <path
       d="m 887.29143,172.63868 c 0.0206,-0.59907 0.14461,-1.73528 0.28926,-2.49967 0.14461,-0.76434 0.18596,-1.4461 0.0826,-1.50808 -0.24792,-0.14458 -0.20657,-1.11552 0.0411,-1.11552 0.35122,0 0.61984,-0.92966 1.15692,-4.0284 0.26857,-1.59072 0.68174,-3.71857 0.90901,-4.75145 0.22717,-1.01229 0.64034,-3.20208 0.9296,-4.85478 0.28922,-1.65266 0.66105,-3.67718 0.82631,-4.48286 0.39252,-1.87995 0.82639,-4.09039 1.15687,-5.84637 0.12396,-0.74369 0.41322,-2.23108 0.64039,-3.30535 0.22726,-1.07423 0.47522,-2.56166 0.57848,-3.30536 0.10331,-0.74369 0.26857,-1.67334 0.39248,-2.06581 0.26861,-0.99164 0.66104,-2.97483 0.84705,-4.33829 0.0826,-0.61977 0.26856,-1.54942 0.39247,-2.06587 0.10331,-0.51644 0.30992,-1.44609 0.41318,-2.06586 0.16526,-0.97095 0.39252,-2.14845 1.15687,-6.09422 0.062,-0.33053 0.24787,-1.38411 0.39252,-2.29311 0.16526,-0.92961 0.33057,-1.77663 0.41313,-1.90055 0.062,-0.10333 0.20661,-0.78504 0.33062,-1.50809 0.20656,-1.32212 0.70234,-3.96641 1.32213,-7.1065 0.18586,-0.90901 0.41312,-2.21049 0.51643,-2.89219 0.10326,-0.68176 0.28922,-1.65271 0.41318,-2.16915 0.37182,-1.6527 1.11552,-5.43315 1.38413,-7.02387 0.57843,-3.42933 0.90896,-5.16461 1.40474,-7.54036 0.28926,-1.36346 0.66109,-3.36735 0.84705,-4.441568 0.16526,-1.074222 0.45443,-2.561661 0.61969,-3.305352 0.16526,-0.743696 0.47517,-2.355055 0.70244,-3.615241 0.22721,-1.239487 0.66104,-3.429277 0.95026,-4.834081 0.33057,-1.632011 0.45448,-2.644296 0.33057,-2.768221 -0.12401,-0.123971 -2.29314,-0.103328 -5.94967,0.0413 -10.37058,0.45445 -14.97741,0.640414 -20.20398,0.846969 -2.83023,0.103328 -7.39576,0.289241 -10.12263,0.413165 -4.44157,0.185959 -10.74245,0.454502 -17.45646,0.723045 -1.30143,0.0413 -5.90827,0.227253 -10.22593,0.413217 -4.31757,0.165265 -10.90767,0.45445 -14.6675,0.619715 -3.73918,0.165266 -9.19301,0.392519 -12.08524,0.516495 -2.89217,0.103277 -7.20974,0.309832 -9.60614,0.413161 -2.37579,0.123924 -8.20145,0.351177 -12.91154,0.516443 -4.71018,0.185912 -10.43258,0.41316 -12.70497,0.516489 -2.27249,0.123925 -8.8625,0.392467 -14.66755,0.61972 -5.78436,0.227254 -13.59328,0.537137 -17.35307,0.72305 -3.73922,0.165265 -9.1311,0.392518 -11.98198,0.516489 -2.83022,0.123925 -7.16844,0.309884 -9.60614,0.413166 -2.4377,0.103277 -6.94127,0.289185 -10.01941,0.413161 -3.05744,0.123924 -7.43701,0.309883 -9.70944,0.413165 -2.27244,0.103278 -7.00323,0.289237 -10.5358,0.413161 -3.51196,0.123976 -6.81727,0.268594 -7.3338,0.330531 -0.51648,0.0413 -3.61522,0.185959 -6.92057,0.289241 -3.2847,0.12392 -7.89154,0.309883 -10.22593,0.413161 -2.33444,0.103277 -6.73471,0.289241 -9.77149,0.413161 -3.05744,0.103282 -7.62297,0.309888 -10.12263,0.413165 -2.52035,0.123976 -6.89997,0.309884 -9.75079,0.413161 -2.83023,0.123976 -7.2098,0.309888 -9.7095,0.413217 -2.4997,0.12392 -6.81731,0.289185 -9.60619,0.413161 -9.1104,0.330531 -11.01102,0.413161 -15.08072,0.61972 -2.21043,0.103329 -6.81731,0.289237 -10.22592,0.413161 -3.40862,0.123976 -6.83797,0.268594 -7.64362,0.330582 -0.78505,0.06194 -3.82184,0.185913 -6.71401,0.309837 -2.89218,0.103324 -6.23884,0.247896 -7.43706,0.289236 -2.58235,0.123976 -10.04001,0.433808 -17.45642,0.72305 -2.95413,0.103277 -6.34214,0.268542 -7.54036,0.33053 -2.16913,0.103278 -7.51966,0.309884 -17.2498,0.681755 -2.83023,0.103278 -5.99092,0.247899 -7.02388,0.330529 -1.6527,0.10328 -7.45766,0.35118 -22.62104,0.92961 -2.4377,0.10327 -6.71399,0.26859 -9.5029,0.39251 -10.74239,0.47515 -15.36986,0.66107 -20.24524,0.86767 -2.78891,0.10328 -7.25113,0.28919 -9.91612,0.39252 -2.66494,0.12392 -6.30082,0.2479 -8.0568,0.30988 -1.75593,0.0619 -4.87538,0.20656 -6.92054,0.30984 -5.24725,0.28924 -6.25954,0.33053 -24.37702,1.03293 -2.60296,0.10328 -5.90831,0.2479 -7.33376,0.30989 -5.24725,0.24789 -16.93994,0.74369 -19.93541,0.82632 -1.69404,0.062 -4.85472,0.20661 -7.02387,0.30989 -3.96646,0.2066 -5.49514,0.26854 -14.97744,0.59912 -2.89215,0.10328 -7.16845,0.28919 -9.50291,0.41316 -2.33435,0.12393 -6.73463,0.33053 -9.81273,0.43381 -3.05746,0.12398 -7.58165,0.30989 -10.01934,0.41317 -2.43774,0.10332 -6.89995,0.28924 -9.91612,0.41316 -3.01611,0.12397 -7.51967,0.30988 -10.01934,0.41316 -2.49967,0.10333 -6.81731,0.28924 -9.60618,0.41321 -5.80502,0.22721 -17.74566,0.72305 -24.6869,1.03289 -2.60295,0.12397 -7.16849,0.30988 -10.12262,0.41321 -2.95418,0.12392 -8.53196,0.35118 -12.39509,0.51644 -3.86314,0.16527 -10.51519,0.45451 -14.77079,0.61977 -4.25566,0.16527 -9.75085,0.41316 -12.18854,0.51644 -2.43769,0.10328 -5.92897,0.2479 -7.74692,0.30989 -1.81794,0.062 -4.97869,0.20655 -7.02388,0.33053 -2.04519,0.10328 -6.28018,0.28924 -9.3996,0.39251 -3.11943,0.10329 -7.68496,0.28919 -10.12266,0.41317 -5.20593,0.22725 -11.8373,0.49579 -22.31115,0.92965 -6.77598,0.26855 -10.8457,0.45446 -26.85601,1.13621 -2.56165,0.103284 -7.02388,0.289194 -9.91607,0.413164 -2.89219,0.10329 -6.34215,0.24791 -7.64364,0.30989 -1.30148,0.0619 -4.79276,0.18591 -7.74692,0.30989 -2.95416,0.10327 -6.25952,0.24789 -7.33376,0.30983 -1.07424,0.062 -4.37959,0.20661 -7.33376,0.33053 -2.95416,0.10333 -7.45771,0.28924 -10.01935,0.39252 -2.56165,0.10333 -6.96191,0.28924 -9.812779,0.41316 -2.830213,0.10333 -7.209811,0.28924 -9.709489,0.41322 -10.783721,0.47509 -15.080681,0.61972 -15.721096,0.49579 -1.074239,-0.2066 -0.867653,-0.64041 0.392512,-0.76439 7.085859,-0.78498 11.341504,-1.1775 13.675908,-1.28083 1.032923,-0.0413 3.078118,-0.16527 4.544868,-0.28919 1.487406,-0.12397 4.462228,-0.37187 6.610709,-0.53713 2.169137,-0.18592 4.999347,-0.41317 6.300837,-0.516454 1.30148,-0.12397 3.63589,-0.30988 5.16462,-0.41316 2.62362,-0.18596 4.77211,-0.37187 10.22594,-0.82637 4.40026,-0.35118 13.0355,-1.07423 15.28727,-1.2395 1.26016,-0.10327 3.42931,-0.26854 4.85474,-0.39251 1.42543,-0.12398 4.0284,-0.30989 5.78437,-0.43381 1.75598,-0.12397 4.23499,-0.30989 5.4745,-0.41316 1.26017,-0.12398 3.4293,-0.30989 4.85474,-0.41322 2.41704,-0.18591 4.0284,-0.33053 9.60619,-0.84697 1.26017,-0.12397 2.60297,-0.22725 2.99548,-0.22725 0.88832,-0.0207 7.0652,-0.47515 12.08521,-0.88831 2.04518,-0.16527 5.57778,-0.45451 7.85022,-0.61977 2.27243,-0.16527 5.10264,-0.39252 6.30083,-0.51644 1.19819,-0.10328 3.4293,-0.28924 4.95803,-0.41317 1.52873,-0.12397 3.75985,-0.30988 4.95803,-0.41316 1.1982,-0.12398 4.06973,-0.35123 6.40413,-0.53714 4.58618,-0.35117 7.33376,-0.55778 11.36216,-0.88831 1.42544,-0.12398 3.98709,-0.30988 5.68109,-0.43381 1.71465,-0.10333 4.17301,-0.30989 5.47449,-0.41321 1.30148,-0.12393 3.5326,-0.30984 4.95804,-0.41317 1.42543,-0.10327 3.61522,-0.30988 4.85476,-0.41316 3.94577,-0.39252 6.94124,-0.59907 9.60618,-0.72305 1.4254,-0.062 2.8302,-0.20655 3.14009,-0.33053 0.33053,-0.12392 0.78503,-0.18591 1.03293,-0.12392 0.2479,0.0826 1.38411,0.0413 2.54096,-0.062 2.58231,-0.24789 8.8212,-0.76439 12.49837,-1.03293 1.52873,-0.10328 3.82185,-0.28924 5.06134,-0.41316 1.26018,-0.10328 3.5326,-0.30989 5.06133,-0.41317 1.52873,-0.12397 3.8218,-0.30988 5.06134,-0.41316 2.47898,-0.22725 6.05292,-0.49585 10.4325,-0.82638 1.52873,-0.123921 3.63589,-0.309829 4.64818,-0.413158 1.03293,-0.103277 3.57389,-0.28919 5.68105,-0.413166 2.10721,-0.123924 4.60688,-0.309883 5.57782,-0.41316 0.97095,-0.103278 3.09875,-0.289242 4.75145,-0.413166 4.11104,-0.289236 7.62295,-0.59912 9.70946,-0.826326 0.97095,-0.103325 3.61524,-0.309884 5.88766,-0.433855 2.27243,-0.123925 4.33829,-0.309888 4.58619,-0.433813 0.2479,-0.123971 0.7024,-0.165265 1.03293,-0.103277 0.30988,0.08263 1.50803,0.0413 2.6443,-0.06199 2.14849,-0.206606 10.24659,-0.88831 14.77079,-1.239539 1.42545,-0.103277 3.69787,-0.289185 5.06133,-0.413161 1.36346,-0.123924 3.69787,-0.309883 5.16461,-0.413165 1.48739,-0.103278 3.75986,-0.289185 5.06134,-0.413161 1.30148,-0.103278 3.67717,-0.289241 5.26789,-0.413161 1.59072,-0.123976 3.86319,-0.309888 5.06133,-0.413166 1.1982,-0.103328 4.13168,-0.309883 6.50744,-0.495796 2.39639,-0.165265 5.4125,-0.413212 6.71398,-0.516489 1.30153,-0.123925 3.63589,-0.309888 5.16462,-0.433808 1.52872,-0.123976 3.82184,-0.309888 5.06133,-0.413166 6.05293,-0.516489 7.93283,-0.661112 11.46549,-0.950297 2.1071,-0.165266 4.48286,-0.330531 5.26789,-0.371872 0.80568,-0.0413 2.56166,-0.165265 3.92507,-0.28919 2.1485,-0.185963 10.24665,-0.847024 14.0478,-1.13621 0.6817,-0.06199 3.01611,-0.247951 5.16461,-0.433859 11.6307,-0.950302 13.42798,-1.094869 16.93993,-1.363463 1.71465,-0.123925 3.88379,-0.309888 4.85478,-0.413166 0.97095,-0.103277 2.78887,-0.247895 4.02841,-0.309883 1.26013,-0.08264 3.20203,-0.206555 4.33824,-0.330531 1.13621,-0.103277 3.28471,-0.268542 4.75145,-0.392518 1.48739,-0.103278 4.91672,-0.392519 7.64364,-0.619721 2.72693,-0.227248 6.25948,-0.516489 7.8502,-0.619767 1.59073,-0.103277 4.04903,-0.289241 5.47452,-0.392518 1.42543,-0.123925 3.84248,-0.330531 5.37118,-0.454507 1.52869,-0.103277 3.75983,-0.289185 4.958,-0.392467 1.19822,-0.103324 3.98714,-0.330577 6.19758,-0.516489 2.21048,-0.165266 5.10262,-0.392519 6.40414,-0.516443 1.30148,-0.103324 3.63588,-0.289237 5.16462,-0.413161 2.64431,-0.206606 4.62753,-0.351225 10.22593,-0.826378 1.36348,-0.103277 3.78052,-0.28919 5.37118,-0.413161 1.59069,-0.123924 3.73922,-0.309883 4.75148,-0.413166 1.03292,-0.103277 2.89218,-0.247895 4.13171,-0.309883 1.26013,-0.08263 3.71852,-0.247896 5.47444,-0.413161 1.756,-0.144623 4.46227,-0.392518 5.99101,-0.516443 1.52869,-0.123976 4.50353,-0.371871 6.6107,-0.537137 2.10713,-0.185912 5.6811,-0.454506 7.95349,-0.619771 4.73084,-0.351173 7.93284,-0.578427 11.77532,-0.908957 1.4874,-0.123925 3.90444,-0.309884 5.37118,-0.413161 1.48744,-0.103282 2.97484,-0.2479 3.3054,-0.309888 0.35118,-0.06198 1.92122,-0.206555 3.51192,-0.309884 2.93353,-0.185912 8.69723,-0.640414 13.22141,-1.032932 2.72696,-0.227202 5.92901,-0.475098 10.32923,-0.826327 1.59075,-0.123924 3.82188,-0.309883 4.95806,-0.413161 1.13621,-0.123924 3.59461,-0.309888 5.47453,-0.413165 1.87987,-0.123971 4.15235,-0.309884 5.06131,-0.413163 0.90896,-0.103277 3.09874,-0.289239 4.85475,-0.413162 1.75595,-0.123974 4.79279,-0.371872 6.71396,-0.537138 1.94192,-0.165265 4.95805,-0.392517 6.71406,-0.495795 1.75596,-0.103278 4.09035,-0.289239 5.16461,-0.392518 1.07422,-0.123974 3.49127,-0.309884 5.37114,-0.433808 1.87996,-0.14462 4.02844,-0.330581 4.79279,-0.433859 0.76439,-0.103278 2.00392,-0.185911 2.74761,-0.185911 0.74365,0 1.98318,-0.08263 2.74757,-0.206606 0.7644,-0.103279 2.72692,-0.289189 4.37962,-0.392518 2.99548,-0.206559 8.69718,-0.640367 13.32467,-1.053581 2.76822,-0.227201 6.01166,-0.495796 10.32923,-0.826326 1.59075,-0.123924 3.82183,-0.309885 4.95805,-0.413163 1.13622,-0.123974 3.69783,-0.309885 5.68105,-0.433808 1.98327,-0.103329 3.75988,-0.247898 3.92514,-0.28924 0.16526,-0.06199 1.57005,-0.185911 3.09874,-0.309884 3.55332,-0.247898 7.47841,-0.578429 10.6392,-0.846972 2.74752,-0.247898 4.93731,-0.413163 11.3621,-0.888313 2.3964,-0.165265 5.55719,-0.413163 7.02393,-0.537137 1.48739,-0.123974 3.75978,-0.309885 5.06126,-0.413163 2.49975,-0.185911 6.13562,-0.47515 10.12267,-0.826326 1.30148,-0.123975 4.19366,-0.351226 6.40409,-0.516492 5.28867,-0.413163 8.61463,-0.66106 11.77537,-0.9503 2.89223,-0.247898 5.06136,-0.413163 11.77532,-0.888313 2.56166,-0.185911 4.9374,-0.371822 5.30928,-0.433808 0.35117,-0.06199 1.83861,-0.206607 3.30535,-0.309885 2.74757,-0.206557 6.25953,-0.495796 10.49449,-0.846972 2.52035,-0.227252 3.92505,-0.33053 11.46541,-0.888313 2.33448,-0.165265 5.45388,-0.413213 6.92062,-0.537137 1.48744,-0.123974 3.86313,-0.309885 5.30922,-0.413163 1.44609,-0.103278 2.93348,-0.227252 3.30536,-0.309885 0.37187,-0.06199 2.02452,-0.206607 3.67722,-0.309885 1.65265,-0.103278 5.26787,-0.392517 8.05679,-0.619769 2.78888,-0.227203 6.28014,-0.516442 7.74693,-0.61972 1.48739,-0.123974 3.80113,-0.309885 5.16461,-0.413163 1.36349,-0.123974 3.69788,-0.289239 5.16462,-0.413213 1.48739,-0.103278 2.97483,-0.247898 3.30535,-0.289189 0.35118,-0.06199 2.3344,-0.206607 4.44158,-0.33053 2.10717,-0.123974 4.52422,-0.28924 5.37122,-0.392518 0.84696,-0.123974 2.99544,-0.309885 4.75144,-0.433808 1.75592,-0.123974 4.13166,-0.309885 5.26788,-0.413214 3.3467,-0.289189 7.23049,-0.599073 10.43258,-0.826326 1.65261,-0.103278 4.58614,-0.33053 6.5074,-0.495796 1.94192,-0.165265 4.81345,-0.392517 6.4041,-0.516441 3.96644,-0.309885 10.10206,-0.826376 12.60167,-1.053628 4.31761,-0.413163 8.75919,-0.681707 9.0691,-0.557732 0.51648,0.206556 0.39248,1.012236 -0.37187,2.685584 -0.37182,0.846972 -1.03296,2.355054 -1.46674,3.367342 -0.41317,1.012236 -0.847,2.024524 -0.95031,2.251776 -1.03296,2.3757 -1.19817,2.892191 -1.09487,3.326 0.10331,0.371871 0.0411,0.495795 -0.20661,0.495795 -0.30991,0 -2.08648,3.429329 -2.62361,5.123322 -0.14461,0.413163 -0.45448,1.177502 -0.70239,1.693994 -0.26857,0.516441 -0.92961,2.003881 -1.46674,3.305357 -0.53709,1.301476 -1.09492,2.561662 -1.26018,2.788864 -0.14465,0.227253 -0.26856,0.537136 -0.26856,0.702402 0,0.268542 -0.22727,0.785032 -1.44609,3.429328 -1.63205,3.491265 -2.3757,5.474495 -2.04523,5.474495 0.10336,0 0.18596,0.144572 0.18596,0.309837 0,0.165265 -0.16526,0.309884 -0.35122,0.309884 -0.22726,0 -0.51643,0.309888 -0.72299,0.785037 -0.18596,0.413161 -0.68174,1.487387 -1.07422,2.355055 -0.41322,0.867667 -0.78505,1.859259 -0.86775,2.169142 -0.0826,0.309884 -0.30982,0.888315 -0.53708,1.260186 -0.22722,0.351173 -0.30987,0.661061 -0.18592,0.661061 0.12396,0 0.22722,0.227249 0.22722,0.516438 0,0.537137 -0.49578,0.72305 -0.68169,0.268595 -0.0827,-0.18596 -0.12396,-0.165266 -0.12396,0.0413 -0.0206,0.165261 -0.16531,0.599073 -0.35117,0.929604 -0.7231,1.363463 -1.52875,3.656577 -1.52875,4.338285 0,0.51649 -0.0827,0.723049 -0.33052,0.723049 -0.18591,0 -0.49587,0.413161 -0.74369,0.991592 -0.22727,0.537137 -0.66109,1.487432 -0.92966,2.107202 -0.28926,0.61972 -0.64044,1.48739 -0.8057,1.9212 -0.14461,0.41321 -0.41317,1.07427 -0.57843,1.44609 -0.16526,0.35123 -0.82631,1.87996 -1.48744,3.3467 -0.64039,1.48739 -1.38409,3.14009 -1.65265,3.69787 -0.26852,0.57843 -0.49579,1.11557 -0.49579,1.21885 0,0.0826 -0.24796,0.7024 -0.53713,1.34281 -0.97096,2.086459 -1.94192,4.338239 -1.94192,4.462209 0,0.062 -0.28921,0.70241 -0.61974,1.40476 -0.66108,1.34282 -1.756,3.92512 -2.37574,5.53648 -0.18591,0.51649 -0.41317,1.03294 -0.51648,1.13621 -0.0826,0.12398 -0.49578,0.99165 -0.8883,1.96259 -0.39253,0.97095 -1.05357,2.54096 -1.4874,3.51191 -0.41313,0.97095 -0.99161,2.35506 -1.26017,3.0781 -0.26852,0.72305 -0.57844,1.42545 -0.7024,1.57007 -0.10325,0.12393 -0.33047,0.59908 -0.49578,1.05358 -0.14461,0.43381 -0.70239,1.694 -1.19817,2.76822 -0.51648,1.07427 -1.5494,3.44997 -2.31379,5.26794 -0.7643,1.81792 -1.96248,4.56549 -2.64426,6.09422 -0.6817,1.52873 -1.34274,3.07815 -1.46675,3.40868 -0.12395,0.35118 -0.53713,1.30148 -0.909,2.1278 -0.45443,0.99159 -0.64039,1.67335 -0.55774,2.00388 0.0826,0.33053 0.0206,0.4958 -0.20661,0.55778 -0.43378,0.0826 -1.96252,3.36735 -5.63974,12.1472 -0.49579,1.19815 -1.03292,2.41704 -1.19822,2.72688 -0.16527,0.28923 -0.30987,0.64041 -0.30987,0.76439 0,0.12391 -0.28918,0.80567 -0.64039,1.50808 -0.35118,0.72305 -0.99162,2.18979 -1.42544,3.26401 -0.64039,1.54937 -0.74374,1.98323 -0.51648,2.02452 0.16526,0.0413 0.30987,0.20661 0.30987,0.37187 0,0.35118 -0.61974,0.39252 -0.61974,0.0413 -0.0206,-0.51644 -2.62361,5.28859 -2.83022,6.25953 -0.0826,0.45445 -0.22717,0.59908 -0.59909,0.59908 -0.45448,0 -0.49583,-0.0826 -0.49583,-1.07423 z"
       id="path12"
       style="fill:#ff0000" />
    <path
       d="m 422.51713,156.66969 c -0.59907,-0.10328 -1.15685,-0.30988 -1.23948,-0.43381 -0.0826,-0.10333 -0.57843,-0.37187 -1.11557,-0.57847 -0.55778,-0.20656 -0.99159,-0.4958 -0.99159,-0.64037 0,-0.16532 -0.26859,-0.47515 -0.59908,-0.7024 -0.97099,-0.70241 -1.57007,-2.31376 -1.54942,-4.25566 0.0206,-2.02452 0.57843,-3.63588 1.73533,-5.18526 0.45446,-0.59912 0.82633,-1.17755 0.82633,-1.30147 0,-0.10333 -0.41316,-0.43386 -0.92965,-0.72305 -0.51644,-0.30989 -0.92961,-0.64042 -0.92961,-0.72305 0,-0.26859 -0.80568,-0.41321 -0.88831,-0.16526 -0.12392,0.41316 -0.76439,-0.0413 -0.76439,-0.53714 0,-0.28924 -0.14457,-0.61977 -0.30983,-0.76439 -0.16532,-0.14457 -0.30994,-0.39252 -0.30994,-0.53709 0,-0.16526 -0.20655,-0.39251 -0.4751,-0.51649 -0.28924,-0.12392 -0.6817,-0.72305 -1.07422,-1.69399 -0.57848,-1.40475 -0.61977,-1.65265 -0.59913,-4.06969 0.0206,-2.31377 0.0826,-2.70629 0.55779,-3.71852 0.51644,-1.11557 1.61135,-2.47903 1.98318,-2.47903 0.10333,0 0.30993,-0.2686 0.4752,-0.61977 0.18586,-0.45451 0.41316,-0.61977 0.78499,-0.61977 0.30988,0 0.84702,-0.2272 1.19819,-0.4958 0.55778,-0.41316 1.98318,-0.80568 3.3467,-0.95029 2.95418,-0.28919 5.80503,-0.0826 7.49902,0.53713 1.8799,0.7024 2.1278,0.82633 2.87155,1.40481 0.61972,0.45445 0.90895,0.55773 1.34276,0.4338 0.84697,-0.2066 1.11557,-0.49579 0.97095,-1.05357 -0.10333,-0.43386 -0.0619,-0.4958 0.4545,-0.4958 0.33053,0 1.15686,-0.28924 1.83857,-0.61977 1.26018,-0.61977 1.96258,-0.76434 1.96258,-0.43381 0,0.10328 0.33053,0.53709 0.72305,0.92961 0.39252,0.41316 0.72305,0.86767 0.72305,1.01228 0,0.14462 0.18591,0.37182 0.41316,0.51645 0.2272,0.14461 0.41316,0.39251 0.41316,0.55778 0,0.16526 0.12398,0.30988 0.28924,0.30988 0.37188,0 0.70236,1.694 0.35118,1.81792 -0.12393,0.0413 -0.22725,0.20661 -0.22725,0.37187 0,0.16526 -0.20661,0.28924 -0.4958,0.28924 -0.28919,0 -0.57843,0.10328 -0.64041,0.20655 -0.0826,0.12398 -0.47515,0.45451 -0.88832,0.72305 -0.43381,0.2686 -0.99164,0.68176 -1.26018,0.88832 l -0.51644,0.41316 0.74369,1.61136 c 0.41316,0.90901 0.9503,2.3551 1.1982,3.22272 0.39251,1.34282 0.4338,1.6527 0.2066,1.92125 -0.16531,0.18596 -0.4545,0.28924 -0.66105,0.2479 -0.20661,-0.0619 -1.36352,0.12397 -2.56167,0.39252 -1.21889,0.26859 -2.27242,0.49579 -2.33441,0.49579 -0.0826,0 -0.26859,-0.47515 -0.41316,-1.03288 -0.14462,-0.57848 -0.43386,-1.23954 -0.61977,-1.4668 l -0.35117,-0.4338 -0.55779,0.72305 c -0.30993,0.41316 -0.55778,0.80567 -0.55778,0.86766 0,0.0826 -0.37187,0.55779 -0.80568,1.05358 -0.51644,0.57843 -0.76439,1.05358 -0.7024,1.30148 0.062,0.26854 -0.0413,0.41316 -0.39252,0.51644 -0.45446,0.12397 -0.45446,0.14462 0.2479,0.57848 0.39251,0.24789 1.05357,0.80568 1.46674,1.23949 0.39252,0.4338 0.88836,0.78503 1.07427,0.78503 0.18592,0 0.35118,0.14457 0.35118,0.30983 0,0.18597 0.22725,0.53714 0.51649,0.80568 0.28919,0.2686 0.51644,0.70241 0.51644,1.01229 0,0.28924 0.12392,0.55779 0.26855,0.61977 0.18596,0.0619 0.24789,0.70236 0.2066,2.45833 -0.0206,2.1485 -0.0827,2.45839 -0.53713,3.18144 -0.26855,0.45445 -0.7437,1.01223 -1.05358,1.26013 -0.28919,0.26859 -0.53714,0.55778 -0.53714,0.66111 0,0.30984 -2.08646,1.40476 -2.99547,1.57002 -1.28083,0.2479 -5.45385,0.2479 -6.6727,0 z m 4.58619,-4.64817 c 0.28924,-0.10328 0.53713,-0.33053 0.53713,-0.51644 0,-0.16527 0.12393,-0.30989 0.26855,-0.30989 0.78503,0 0.88836,-2.23113 0.10333,-2.41704 -0.20661,-0.062 -0.37188,-0.22725 -0.37188,-0.37187 0,-0.28919 -1.36346,-1.75593 -1.65265,-1.75593 -0.0827,0 -0.12397,0.18591 -0.062,0.41316 0.0826,0.28919 0,0.41317 -0.22725,0.41317 -0.18597,0 -0.33059,-0.0826 -0.33059,-0.20661 0,-0.10328 -0.0826,-0.20656 -0.20655,-0.20656 -0.10328,0 -0.20661,0.22726 -0.20661,0.4958 0,0.33053 -0.14457,0.55778 -0.39252,0.64041 -0.37182,0.10328 -1.26013,1.59072 -1.26013,2.08651 0,0.10328 0.18591,0.33054 0.41316,0.4958 0.22725,0.16527 0.41317,0.4545 0.41317,0.66106 0,0.61977 1.92124,0.99159 2.97482,0.57843 z m -3.18138,-13.55195 c 0,-0.18591 0.26854,-0.64042 0.59907,-0.99159 1.75598,-1.87991 2.04517,-2.21048 2.18979,-2.54101 0.10333,-0.20656 0.14462,-0.53709 0.12398,-0.72305 -0.0207,-0.20656 0.12392,-0.37182 0.4338,-0.41317 0.28924,-0.0413 0.4958,-0.22725 0.53714,-0.49579 0.0413,-0.2479 0.30989,-0.55778 0.61977,-0.70241 0.53709,-0.24789 0.53709,-0.24789 0.14457,-0.55778 -1.65265,-1.21884 -3.88378,-2.00383 -5.14392,-1.79727 -0.9503,0.16526 -2.8302,1.13621 -2.93353,1.50808 -0.062,0.18591 -0.2479,0.59908 -0.41316,0.90896 -0.43381,0.88832 -0.37187,2.41704 0.18591,3.40864 0.49584,0.909 1.79732,2.39639 2.23113,2.5823 0.64041,0.24795 1.42545,0.14462 1.42545,-0.18591 z"
       id="path14" />
    <path
       d="m 86.155887,149.85238 0,-3.92508 19.026453,0.0619 c 14.3783,0.0413 19.10909,0 19.33634,-0.18591 0.20658,-0.18591 0.26856,-0.61972 0.22724,-1.50808 l -0.062,-1.26014 -19.27436,0 -19.2537,0 0,-9.13108 0,-9.15167 19.5016,0 c 11.44479,0 19.56358,0.0826 19.62555,0.18591 0.062,0.10328 0.30988,0.14462 0.53712,0.0826 0.20659,-0.062 1.07424,0.10333 1.90058,0.37187 0.82634,0.2479 1.67334,0.43381 1.87992,0.41317 0.20659,-0.0207 0.35119,0.0826 0.35119,0.28924 0,0.20655 0.33054,0.47509 0.80569,0.6817 0.66107,0.28924 0.84699,0.4958 0.95028,1.03293 0.062,0.35118 0.18593,0.66106 0.26857,0.66106 0.0826,0 0.33053,0.30989 0.53711,0.70241 0.30988,0.59907 0.37186,1.21884 0.39252,4.29694 0,1.98324 -0.062,3.71852 -0.16527,3.88378 -0.10329,0.16527 -0.18593,0.4958 -0.20659,0.70241 0,0.30988 -0.2479,0.47515 -0.9916,0.66106 -1.32215,0.33053 -1.40478,0.4545 -0.37185,0.61977 0.61975,0.10328 0.84699,0.22725 0.84699,0.51644 0,0.20661 0.18593,0.41316 0.41317,0.49585 0.2479,0.0826 0.41317,0.30983 0.41317,0.57843 0,0.24789 0,2.1278 0.0206,4.19366 0.0207,3.38799 -0.0206,3.80115 -0.39252,4.56549 -0.24789,0.45451 -0.66107,0.97094 -0.95028,1.17755 -0.28922,0.18591 -0.53712,0.4958 -0.53712,0.7024 0,0.35118 -0.33054,0.51645 -2.95416,1.63201 l -1.17753,0.4958 -20.3486,0.0413 -20.348597,0.0413 0,-3.92513 z m 38.404103,-14.44026 c 0.14461,-0.16527 0.22725,-0.7437 0.18593,-1.30148 l -0.062,-0.99159 -14.95674,-0.062 c -10.866353,-0.0207 -15.039363,0.0206 -15.225294,0.18591 -0.289223,0.2479 -0.41317,2.06587 -0.144614,2.31376 0.06198,0.0826 6.837958,0.14462 15.039368,0.14462 12.66365,0 14.95674,-0.0413 15.16332,-0.28923 z"
       id="path16" />
    <path
       d="m 189.24167,149.85238 0,-3.92508 19.02645,0.0619 c 14.3783,0.0413 19.10909,0 19.33634,-0.18591 0.20658,-0.18591 0.26856,-0.61972 0.22724,-1.50808 l -0.062,-1.26014 -19.27436,0 -19.2537,0 0,-9.13108 0,-9.15167 4.0284,0 4.0284,0 0.0413,5.43316 0.062,5.41255 10.37056,0 10.37055,0 0.92963,-0.909 c 0.4958,-0.4958 0.95029,-1.15686 1.01226,-1.46674 0.0826,-0.39252 0.28922,-0.61978 0.64041,-0.70241 0.28922,-0.0619 0.68174,-0.39252 0.86766,-0.72305 0.20658,-0.33053 0.57844,-0.72304 0.847,-0.86761 0.26856,-0.14462 0.47514,-0.37187 0.47514,-0.5165 0,-0.14461 0.22724,-0.4338 0.51646,-0.66105 0.28922,-0.22726 0.51647,-0.51645 0.51647,-0.64042 0,-0.12397 0.28921,-0.41316 0.61975,-0.6817 0.3512,-0.24796 0.61975,-0.55779 0.61975,-0.70241 0,-0.14462 0.22725,-0.43386 0.51646,-0.66106 0.28923,-0.22725 0.51647,-0.49585 0.51647,-0.59912 0,-0.10328 0.22724,-0.41317 0.51646,-0.68171 0.28922,-0.26859 0.51646,-0.59913 0.51646,-0.76439 0,-0.20656 0.76437,-0.26854 3.6772,-0.26854 2.00389,0 4.00775,-0.062 4.44158,-0.12397 0.66107,-0.12393 0.76436,-0.0826 0.76436,0.26859 0,0.55778 -0.47514,1.50803 -0.7437,1.50803 -0.14461,0 -0.28922,0.18596 -0.35119,0.41321 -0.062,0.2272 -0.30988,0.4958 -0.55778,0.57843 -0.22724,0.0826 -0.53713,0.35118 -0.68174,0.59908 -0.4958,0.84702 -1.98321,2.68558 -2.60296,3.22272 -0.3512,0.28923 -0.64041,0.66106 -0.64041,0.84702 0,0.16526 -0.28922,0.47515 -0.61976,0.68171 -0.35119,0.1859 -0.68173,0.51649 -0.7437,0.72304 -0.062,0.20661 -0.33054,0.53714 -0.61976,0.7024 -0.26856,0.18592 -0.4958,0.4958 -0.4958,0.68171 0,0.18596 -0.10329,0.45451 -0.22724,0.57843 -0.33054,0.33058 0.47514,0.7024 1.21885,0.55778 0.61975,-0.12392 3.09877,0.41321 3.4293,0.74374 0.12395,0.12393 0.37186,0.20656 0.57844,0.20656 0.20658,0 0.37185,0.10328 0.37185,0.20661 0,0.12392 0.1033,0.20655 0.22725,0.20655 0.26855,0 1.42543,1.1982 1.42543,1.4668 0,0.10327 0.0826,0.18591 0.18593,0.18591 0.4958,0 0.70238,1.67335 0.70238,5.84632 -0.0206,3.49132 -0.0826,4.35893 -0.33053,4.64817 -0.16527,0.18591 -0.37185,0.55778 -0.45448,0.82632 -0.0826,0.2686 -0.37186,0.55779 -0.64042,0.66112 -0.28921,0.12392 -0.57844,0.37182 -0.66107,0.59907 -0.22724,0.64041 -1.54938,1.40475 -2.99548,1.77663 -1.15687,0.28924 -3.80116,0.33053 -21.48481,0.37187 l -20.18333,0.0413 0,-3.92512 z"
       id="path18" />
    <path
       d="m 287.14217,153.7775 c -0.062,-0.0413 -2.06586,-0.10328 -4.48291,-0.10328 -2.54096,-0.0206 -4.37957,-0.10328 -4.37957,-0.22725 0,-0.10328 -0.14462,-0.18591 -0.30989,-0.18591 -0.37182,0 -0.41316,-0.53714 -0.0413,-0.70241 0.14462,-0.062 -0.0413,-0.33053 -0.51644,-0.74369 -0.43386,-0.37187 -0.78504,-0.74369 -0.78504,-0.84702 0,-0.10328 -0.26854,-0.45445 -0.61977,-0.76434 -0.33053,-0.33053 -0.61972,-0.68176 -0.61972,-0.78503 0,-0.10328 -0.18596,-0.30989 -0.41316,-0.45451 -0.22725,-0.14457 -0.41321,-0.39247 -0.41321,-0.55778 0,-0.16526 -0.2479,-0.45445 -0.53709,-0.66106 -0.28924,-0.18591 -0.61977,-0.55778 -0.72305,-0.82633 -0.10328,-0.26854 -0.30988,-0.47515 -0.4545,-0.47515 -0.14462,0 -0.41317,-0.28918 -0.57843,-0.66106 -0.16527,-0.37187 -0.57843,-0.80568 -0.9503,-0.97095 -0.47515,-0.22724 -0.66106,-0.4545 -0.61977,-0.72304 0.0206,-0.28924 -0.14457,-0.45451 -0.61972,-0.57843 -0.39252,-0.10333 -0.68176,-0.30988 -0.68176,-0.47515 0,-0.26854 -1.36346,-0.30988 -10.1846,-0.30988 -7.64365,0 -10.2466,0.062 -10.43256,0.24789 -0.18591,0.18592 -0.2479,1.694 -0.2479,5.4745 l 0,5.2266 -3.71851,0 -3.71852,0 0,-13.98581 c 0,-7.70557 -0.062,-14.213 -0.12395,-14.4609 l -0.12395,-0.47515 3.92513,0 c 3.7805,0 3.94576,0.0206 4.06969,0.41316 0.0826,0.2479 0.0413,0.55778 -0.0826,0.7024 -0.16527,0.18591 -0.22726,1.79728 -0.18592,4.99935 l 0.062,4.7308 9.81274,0.0619 c 10.28793,0.062 11.98192,0 11.98192,-0.47515 0,-0.14457 0.22726,-0.45445 0.4958,-0.68171 0.28924,-0.2066 0.57843,-0.61976 0.64041,-0.92965 0.0826,-0.28919 0.30989,-0.55778 0.53714,-0.61972 0.20656,-0.062 0.39252,-0.2479 0.39252,-0.41316 0,-0.18596 0.33053,-0.51649 0.72305,-0.76439 0.39252,-0.2479 0.72305,-0.55778 0.72305,-0.7024 0,-0.14457 0.18591,-0.43381 0.41316,-0.64042 0.22725,-0.20655 0.41316,-0.49579 0.41316,-0.64041 0,-0.14457 0.20661,-0.43381 0.47515,-0.64037 0.2479,-0.20661 0.43381,-0.53714 0.39252,-0.72304 -0.0413,-0.24796 0.062,-0.37188 0.30988,-0.37188 0.43381,-0.0206 1.30148,-0.68176 1.30148,-1.01229 0,-0.12392 0.37182,-0.59907 0.80568,-1.05357 0.55778,-0.57843 0.76434,-0.9503 0.70235,-1.23949 -0.0826,-0.30989 0,-0.41316 0.30989,-0.41316 0.24789,0 0.49579,0.10327 0.55778,0.20655 0.0826,0.12398 1.6527,0.20661 4.06974,0.20661 l 3.92513,0 -0.12398,0.53713 c -0.14462,0.53709 -2.56166,3.59455 -2.85085,3.59455 -0.10333,0 -0.16526,0.22725 -0.16526,0.51649 0,0.33053 -0.12397,0.51644 -0.30989,0.51644 -0.16526,0 -0.30988,0.16527 -0.30988,0.37187 0,0.18591 -0.20661,0.45445 -0.45451,0.55778 -0.26854,0.12393 -0.59907,0.45446 -0.74369,0.78499 -0.14462,0.30988 -0.35118,0.55778 -0.47515,0.55778 -0.10328,0 -0.18591,0.18596 -0.18591,0.41316 0,0.22726 -0.12397,0.41317 -0.28924,0.41317 -0.14462,0 -0.61977,0.41321 -1.03293,0.92965 -0.43381,0.51644 -0.68171,0.92966 -0.55778,0.92966 0.12397,0 0.22725,0.14457 0.22725,0.30983 0,0.18596 -0.18591,0.30989 -0.47515,0.30989 -0.33053,0 -0.76434,0.33053 -1.34277,1.01229 -0.47515,0.55777 -0.86766,1.11556 -0.86766,1.23948 0,0.12398 -0.18592,0.30989 -0.41317,0.43386 -0.22725,0.12393 -0.41316,0.35118 -0.41316,0.51645 0,0.16526 -0.16527,0.39251 -0.35123,0.49579 -0.35117,0.20661 -0.35117,0.20661 0.0206,0.22725 0.2686,0 0.35123,0.10328 0.2686,0.41317 -0.062,0.2066 0.0207,0.49579 0.18591,0.64041 0.16526,0.12398 0.28918,0.37187 0.28918,0.51644 0,0.16531 0.12398,0.28924 0.28924,0.28924 0.16527,0 0.35118,0.18591 0.43381,0.39252 0.062,0.22725 0.30989,0.47515 0.53714,0.53713 0.20661,0.0826 0.39252,0.26855 0.39252,0.43381 0,0.16527 0.10328,0.28924 0.2066,0.28924 0.12393,0 0.20656,0.14457 0.20656,0.33053 0,0.18591 0.22725,0.51644 0.51649,0.7437 0.28919,0.22725 0.51644,0.51644 0.51644,0.6817 0,0.14462 0.22725,0.41316 0.51644,0.59913 0.28925,0.18591 0.51649,0.43381 0.51649,0.53708 0,0.10333 0.51645,0.70241 1.13622,1.34282 0.61977,0.66106 1.13621,1.30147 1.13621,1.46674 0,0.14462 0.18591,0.37187 0.41316,0.4958 0.22725,0.12397 0.41317,0.35123 0.41317,0.51649 0,0.14462 0.28923,0.47515 0.61976,0.72304 0.35118,0.24791 0.61977,0.57844 0.61977,0.72305 0,0.16527 0.28919,0.45446 0.61972,0.66107 0.35123,0.18591 0.61977,0.49579 0.61977,0.6817 0,0.16532 0.18591,0.43386 0.41317,0.57848 0.47515,0.28919 0.55778,0.86762 0.14461,0.86762 -0.16526,0 -0.33053,-0.0413 -0.37187,-0.10328 z"
       id="path20" />
    <path
       d="m 350.25384,153.5296 c -1.42545,-0.35117 -3.18143,-1.15685 -3.18143,-1.44609 0,-0.14462 -0.12397,-0.26855 -0.28924,-0.26855 -0.22725,0 -1.44609,-1.21884 -2.16909,-2.18979 -0.39252,-0.49584 -0.49585,-1.79732 -0.49585,-5.4745 l 0.0206,-3.86313 0.78504,-1.46674 c 0.4338,-0.80568 0.909,-1.4668 1.07427,-1.4668 0.16522,0 0.723,-0.2272 1.26013,-0.49579 1.15691,-0.59907 2.35506,-0.92961 3.90443,-1.09487 0.64042,-0.0826 7.91219,-0.16527 16.13431,-0.20661 10.82502,-0.0413 15.03938,-0.14461 15.24594,-0.30988 0.18591,-0.14462 0.26854,-0.55778 0.22725,-1.1775 l -0.062,-0.9503 -19.37761,-0.062 c -17.04327,-0.0413 -19.37768,-0.0826 -19.48096,-0.35118 -0.0827,-0.16526 -0.0206,-0.4545 0.12393,-0.61976 0.16526,-0.20661 0.22725,-1.30148 0.16526,-3.82185 l -0.0619,-3.53256 19.9354,0.0619 c 18.61328,0.062 20.01804,0.10333 21.07167,0.43386 1.96253,0.66106 3.30535,1.36346 3.30535,1.75598 0,0.18591 0.28919,0.53709 0.64036,0.76434 1.30153,0.84702 1.83862,2.76822 1.83862,6.56942 0,2.78886 -0.33048,4.73075 -0.9296,5.63976 -0.22726,0.33053 -0.37188,0.72305 -0.33053,0.88831 0.0206,0.16527 -0.062,0.37182 -0.22726,0.45446 -0.2066,0.14461 -0.18591,0.18596 0.10328,0.18596 0.18591,0 0.35118,0.14457 0.35118,0.30983 0,0.16532 -0.18592,0.30989 -0.41317,0.30989 -0.2272,0 -0.41316,-0.12393 -0.41316,-0.28919 0,-0.33053 -0.55778,-0.59913 -0.72305,-0.33053 -0.18591,0.30983 -2.41704,1.05357 -3.40863,1.15685 -0.51644,0.062 -8.09815,0.0826 -16.8573,0.0826 -13.71722,-0.0207 -15.94835,0.0206 -16.1756,0.28923 -0.14462,0.18592 -0.22725,0.78499 -0.18591,1.61137 l 0.062,1.30147 19.58418,0 19.56358,0 0,3.92508 0,3.92512 -19.83213,0 c -14.50225,0 -20.10067,-0.062 -20.78238,-0.2479 z"
       id="path22" />
    <path
       d="m 465.46614,153.55025 c -1.05362,-0.22721 -2.72692,-1.01224 -2.95417,-1.38411 -0.062,-0.12392 -0.5165,-0.20656 -0.97095,-0.18591 -0.61977,0.0206 -0.84702,-0.0413 -0.84702,-0.26854 0,-0.16532 0.14462,-0.30989 0.30988,-0.30989 0.16527,0 0.30989,-0.0826 0.30989,-0.20661 0,-0.10328 -0.16526,-0.20655 -0.35123,-0.20655 -0.24784,0 -0.59907,-0.47515 -1.09487,-1.48744 l -0.7024,-1.48739 -0.0826,-7.66428 c -0.0619,-5.12333 -0.0207,-8.13949 0.14462,-9.17238 0.24789,-1.61135 0.86767,-2.89219 1.81797,-3.75985 0.82632,-0.76439 2.54096,-1.77663 3.26401,-1.96254 0.35122,-0.0826 0.74369,-0.2479 0.90896,-0.37187 0.2066,-0.16527 5.99099,-0.22726 20.53453,-0.22726 l 20.2453,0 -0.0206,4.13169 0,4.13173 -17.53906,0.10328 c -18.71656,0.10327 -18.40668,0.0826 -19.25365,1.09492 -0.14462,0.20655 -0.39252,0.35117 -0.51649,0.35117 -0.28919,0 -1.11557,0.88831 -1.50809,1.59072 -0.30988,0.55778 -0.37182,6.25948 -0.0826,6.25948 0.10328,0 0.2479,0.26859 0.33048,0.61977 0.10333,0.4545 0.33058,0.7024 0.9503,0.97094 0.43386,0.18592 0.80568,0.43386 0.80568,0.5165 0,0.26854 1.67335,0.99159 2.31376,0.99159 0.30989,0 0.61972,0.10328 0.68176,0.20655 0.0826,0.14462 5.82568,0.20661 16.52673,0.20661 10.70111,0 16.44416,-0.062 16.52677,-0.20661 0.062,-0.10327 0.28926,-0.20655 0.47517,-0.20655 0.30987,0 0.35122,0.35117 0.28922,3.96641 -0.0411,2.18979 -0.10335,4.00776 -0.12396,4.0284 -0.0206,0.0207 -8.90379,0.0826 -19.72886,0.10328 -13.48997,0.0413 -19.99735,0 -20.65841,-0.16526 z"
       id="path24" />
    <path
       d="m 517.19491,153.63288 c -0.99165,-0.20656 -2.78891,-0.99159 -2.78891,-1.21884 0,-0.10328 -0.18592,-0.18592 -0.41318,-0.18592 -0.24787,0 -0.66104,-0.24789 -0.92961,-0.55778 -0.41313,-0.47515 -0.49583,-0.51644 -0.51648,-0.2066 0,0.18596 -0.14456,0.35122 -0.30982,0.35122 -0.26861,0 -0.43387,-0.74369 -0.35122,-1.46674 0.0206,-0.0826 -0.16526,-0.10333 -0.37187,-0.0413 -0.28922,0.0826 -0.41318,0 -0.41318,-0.22725 0,-0.18596 0.10335,-0.33053 0.20661,-0.33053 0.12396,0 0.062,-0.28924 -0.12395,-0.64042 -0.28922,-0.57843 -0.33057,-1.75598 -0.30987,-9.60622 0,-5.47445 0.0826,-9.27565 0.20656,-9.7508 0.124,-0.43381 0.41318,-0.97095 0.66109,-1.19815 1.54939,-1.40481 2.00387,-1.98323 1.87992,-2.3964 -0.0826,-0.37187 -0.0411,-0.41316 0.35122,-0.30988 0.24786,0.062 1.15682,-0.14462 2.04512,-0.43381 l 1.59075,-0.55778 16.32015,0 16.3202,0 1.48744,0.47514 c 0.8057,0.24791 1.6114,0.59908 1.79731,0.76435 0.16526,0.16526 0.53713,0.30988 0.82635,0.30988 0.41317,0 0.53708,0.10328 0.53708,0.43381 0,0.57843 0.47518,1.01229 0.97096,0.88831 0.33052,-0.10328 0.43383,0.0207 0.53713,0.51649 0.0827,0.35118 0.33053,0.84698 0.55779,1.09487 0.22726,0.2479 0.41317,0.74375 0.41317,1.07428 0.10326,5.94964 -0.0411,17.84889 -0.20661,18.46866 -0.22721,0.78503 -0.86765,1.61136 -1.57004,2.02453 -0.20661,0.12397 -0.37188,0.41316 -0.33057,0.61976 0.0411,0.28919 -0.18591,0.4958 -0.82631,0.76434 -0.49582,0.18591 -0.97095,0.35123 -1.07426,0.35123 -0.10326,0 -0.47513,0.2272 -0.8263,0.4751 -0.41318,0.33058 -0.95031,0.49585 -1.5701,0.53714 -3.05739,0.12397 -33.17748,0.10327 -33.77657,-0.0207 z m 28.09552,-7.99482 c 0.55779,-0.16526 1.34279,-0.47515 1.75596,-0.72304 0.39253,-0.2479 0.97096,-0.55779 1.26018,-0.68171 0.33052,-0.14462 0.7437,-0.66106 1.09492,-1.32218 0.49578,-0.99159 0.53713,-1.32212 0.53713,-3.5119 0,-1.71469 -0.0827,-2.60301 -0.28922,-3.01617 -0.16526,-0.30988 -0.35117,-0.72305 -0.41318,-0.90896 -0.0411,-0.18591 -0.35117,-0.49579 -0.68174,-0.66106 -2.10713,-1.13621 -2.64426,-1.38411 -2.99548,-1.38411 -0.20656,0 -0.37187,-0.062 -0.37187,-0.14462 0,-0.10327 -5.14392,-0.12397 -11.40345,-0.062 -9.58554,0.0826 -11.5068,0.14461 -11.94063,0.41316 -3.18135,1.8799 -3.20205,1.9006 -3.20205,5.88766 0,2.45838 0.062,3.01616 0.41318,3.75986 0.22726,0.47515 0.51643,0.88831 0.66104,0.88831 0.14466,0 0.33052,0.12393 0.41322,0.26854 0.20657,0.35123 1.5494,0.86767 2.68562,1.07428 0.49578,0.0826 0.92956,0.2272 1.01221,0.33053 0.18596,0.30989 20.22469,0.12392 21.46416,-0.20661 z"
       id="path26" />
    <path
       d="m 567.33303,153.73621 -5.20592,-0.062 0.0411,-3.7805 0.0619,-3.75986 3.4087,-0.0619 c 3.14005,-0.0413 3.42927,-0.0827 3.86309,-0.49585 0.26852,-0.24789 0.47513,-0.51644 0.47513,-0.59907 0,-0.10328 0.18592,-0.39251 0.43383,-0.64041 0.51648,-0.57843 2.18983,-3.01612 2.43775,-3.5739 0.10326,-0.22725 0.43378,-0.72305 0.72304,-1.11557 0.28922,-0.39252 0.53713,-0.78503 0.53713,-0.86766 0,-0.0826 0.70235,-1.1982 1.5493,-2.47903 0.84705,-1.28083 1.54944,-2.3757 1.54944,-2.43769 0,-0.062 0.18592,-0.35117 0.41318,-0.64041 0.22722,-0.28925 0.41313,-0.64042 0.41313,-0.80568 0,-0.14463 0.20661,-0.4958 0.47517,-0.78504 0.24787,-0.28919 0.59914,-0.6817 0.76435,-0.86762 0.16526,-0.18596 0.57848,-0.88836 0.92966,-1.52873 0.33052,-0.66111 0.785,-1.36346 0.97091,-1.52872 0.20661,-0.18596 0.37187,-0.45451 0.37187,-0.59913 0,-0.14462 0.20661,-0.51644 0.47518,-0.84697 0.24787,-0.30989 0.55778,-0.76439 0.68169,-0.99164 0.20657,-0.37182 0.47513,-0.41317 2.78892,-0.47515 2.83018,-0.0619 3.49127,0.0206 3.49127,0.47515 0,0.35122 2.00387,3.57395 2.49965,4.0284 0.18591,0.16527 0.41318,0.61977 0.47518,0.99164 0.0826,0.35118 0.22726,0.66107 0.30987,0.66107 0.0827,0 0.33052,0.35117 0.55778,0.76433 0.20661,0.43386 0.53709,0.9503 0.72305,1.15691 0.18591,0.20656 0.51643,0.70235 0.72304,1.13621 0.51643,0.99159 1.32213,1.90055 1.6733,1.90055 0.16531,0 0.26862,0.16527 0.22727,0.37187 -0.062,0.43381 0.43378,1.67335 0.86765,2.10716 0.16526,0.16526 0.49578,0.68176 0.72304,1.13621 0.22727,0.4545 0.57844,0.99164 0.7644,1.21884 0.20656,0.22726 0.41317,0.57848 0.49573,0.78504 0.062,0.20661 0.20666,0.37187 0.30997,0.37187 0.10326,0 0.18591,0.14462 0.18591,0.30988 0,0.16527 0.0826,0.30984 0.18591,0.30984 0.10326,0 0.24787,0.28924 0.33052,0.61977 0.0826,0.35118 0.20661,0.61977 0.28922,0.61977 0.0826,0 0.28922,0.22725 0.43383,0.51644 0.14461,0.28924 0.35122,0.51649 0.45448,0.51649 0.1033,0 0.14465,-4.46226 0.12395,-10.01939 l -0.062,-10.01934 3.92509,0.0413 c 3.92509,0.062 3.92509,0.062 3.90449,0.53714 0,0.24789 -0.0206,6.73463 -0.0411,14.39892 l -0.0411,13.94446 -5.35053,0 c -2.95418,0 -5.49518,-0.0619 -5.68109,-0.12392 -0.18596,-0.062 -0.33052,-0.2479 -0.33052,-0.39252 0,-0.14462 -0.062,-0.30989 -0.14461,-0.35118 -0.26857,-0.10332 -1.19822,-1.44609 -1.83861,-2.64429 -0.70244,-1.32217 -0.99161,-1.6527 -1.38414,-1.6527 -0.18591,0 -0.33052,-0.28919 -0.41317,-0.80568 -0.062,-0.45446 -0.28917,-1.03293 -0.53714,-1.28083 -0.22726,-0.2479 -0.49578,-0.66107 -0.55773,-0.86762 -0.0827,-0.22725 -0.28922,-0.59912 -0.49583,-0.80568 -0.18591,-0.20661 -0.53713,-0.72305 -0.7437,-1.15691 -0.22726,-0.41316 -0.55778,-0.9296 -0.74369,-1.15685 -0.20661,-0.22726 -0.37187,-0.47515 -0.37187,-0.57843 0,-0.0826 -0.18592,-0.16527 -0.41318,-0.16527 -0.30987,0 -0.41313,-0.14462 -0.41313,-0.55778 0,-0.53714 -0.78504,-1.92125 -1.07431,-1.92125 -0.10326,0 -0.16521,-0.12397 -0.16521,-0.28923 0,-0.35118 -0.59909,-1.50804 -1.03296,-2.00389 -0.16522,-0.20655 -0.53709,-0.74369 -0.82635,-1.19814 -0.28917,-0.4545 -0.59904,-0.80568 -0.723,-0.76439 -0.10331,0.0207 -0.43383,0.53713 -0.72309,1.11557 -0.28917,0.57842 -0.61969,1.07422 -0.7437,1.07422 -0.24787,0 -0.70239,0.86767 -0.70239,1.32217 0,0.16527 -0.12391,0.33053 -0.26852,0.39252 -0.22722,0.0826 -1.77666,2.21043 -2.52035,3.47062 -0.43383,0.70235 -1.03292,1.54937 -1.5907,2.21043 -0.30987,0.37188 -0.57844,0.76439 -0.57844,0.88831 0,0.12398 -0.33052,0.59913 -0.72304,1.07423 -0.41318,0.47515 -0.8057,1.09492 -0.86765,1.36346 -0.062,0.28924 -0.33053,0.70241 -0.59914,0.92965 -0.26856,0.24791 -1.11552,1.46675 -1.90057,2.70624 -0.78499,1.26018 -1.57004,2.27247 -1.7146,2.27247 -0.16526,0 -2.64431,-0.0207 -5.51584,-0.0413 z"
       id="path28" />
    <path
       d="m 633.15091,153.73621 -19.17102,-0.062 0,-3.47062 c 0,-1.9006 -0.062,-3.63588 -0.12396,-3.86314 -0.1033,-0.41316 -0.0206,-0.41316 18.96446,-0.35122 l 19.06777,0.0413 0.35117,-0.45445 c 0.43388,-0.55778 0.47518,-1.32217 0.12401,-2.08651 l -0.26861,-0.55778 -18.7372,0 c -16.54742,0 -18.7579,0.0413 -18.7579,0.30988 0,0.37182 -0.61974,0.41316 -0.61974,0.062 0,-0.14462 -0.0411,-4.37963 -0.062,-9.42027 l -0.0411,-9.13108 3.90449,0.0413 3.90439,0.062 0.0206,5.37122 0.0206,5.37117 9.8128,0.062 c 5.39183,0.0413 10.20523,0 10.70106,-0.062 0.68169,-0.10328 0.86765,-0.20656 0.86765,-0.51644 0,-0.2479 0.33052,-0.61977 0.80565,-0.9503 0.99161,-0.64042 1.21887,-1.11557 0.64044,-1.26014 -0.53713,-0.14462 -0.53713,-0.68176 0,-0.68176 0.22726,0 0.41317,0.10328 0.41317,0.20661 0,0.43381 0.847,0.18591 1.03292,-0.30988 0.1033,-0.2686 0.37187,-0.61977 0.61978,-0.76439 0.22727,-0.14457 0.41318,-0.37182 0.41318,-0.51645 0,-0.14461 0.26852,-0.4545 0.59904,-0.7024 0.33052,-0.24789 0.66109,-0.59907 0.72304,-0.78503 0.24796,-0.66106 0.66114,-1.21884 1.32218,-1.77663 0.37183,-0.30983 0.66109,-0.6817 0.66109,-0.84697 0,-0.14462 0.26852,-0.47515 0.59904,-0.72305 0.33052,-0.24789 0.64044,-0.61976 0.70239,-0.80568 0.0827,-0.35117 0.45453,-0.39251 4.0904,-0.4545 2.21044,-0.0413 4.21431,0 4.48288,0.0826 0.57843,0.20661 0.57843,0.68176 -0.0411,1.28083 -0.24791,0.26859 -0.53713,0.64042 -0.59913,0.82633 -0.0826,0.18596 -0.45443,0.53713 -0.86761,0.76439 -0.39252,0.2479 -0.72304,0.55778 -0.72304,0.72305 0,0.14461 -0.22727,0.4338 -0.51644,0.61976 -0.28926,0.18592 -0.51648,0.43382 -0.51648,0.53709 0,0.12397 -0.74374,1.07428 -1.6527,2.12786 -0.90895,1.05357 -1.65265,2.02452 -1.65265,2.1278 0,0.12397 -0.26861,0.39251 -0.59909,0.57842 -0.57848,0.33054 -1.17757,1.26019 -0.971,1.46675 0.0411,0.062 0.86765,0.12397 1.83861,0.16531 1.30148,0.0619 2.02452,0.20656 2.95418,0.61972 0.66104,0.28924 1.26018,0.59913 1.32213,0.68176 0.062,0.0826 0.28922,0.2479 0.49583,0.37182 0.22721,0.12397 0.49573,0.39252 0.61974,0.61977 0.12391,0.2066 0.28922,0.43381 0.37187,0.49579 0.0826,0.062 0.30982,0.4958 0.49578,0.92966 0.28922,0.6817 0.35117,1.54937 0.35117,4.85473 0,4.75145 -0.0826,5.04069 -1.90061,6.79662 -0.97091,0.9503 -1.52865,1.32217 -2.76813,1.77662 -0.86774,0.30989 -1.7147,0.51649 -1.87996,0.45451 -0.18596,-0.0826 -0.37187,-0.0413 -0.43387,0.062 -0.0826,0.12393 -0.37183,0.18592 -0.6817,0.16527 -0.30987,-0.0413 -9.17236,-0.0826 -19.70816,-0.10328 z"
       id="path30" />
    <path
       d="m 684.4666,153.42632 c -0.0411,-0.2066 -0.1653,-0.37187 -0.26856,-0.37187 -0.10331,0 -0.18596,-0.14462 -0.18596,-0.30988 0,-0.16527 -0.0826,-0.30989 -0.20657,-0.30989 -0.1033,0 -0.20661,-0.12392 -0.20661,-0.28919 0,-0.16526 -0.14456,-0.33053 -0.30982,-0.41316 -0.16526,-0.062 -0.30992,-0.2479 -0.30992,-0.43386 0,-0.16526 -0.0826,-0.30983 -0.20661,-0.30983 -0.10325,0 -0.20651,-0.14462 -0.20651,-0.30989 0,-0.16526 -0.12401,-0.30989 -0.28927,-0.30989 -0.14461,0 -0.33052,-0.16526 -0.39252,-0.35122 -0.16526,-0.51644 -0.78495,-1.46674 -1.32213,-2.08646 -0.26852,-0.28924 -0.47513,-0.59913 -0.47513,-0.7024 0,-0.28924 -0.49583,-0.72305 -0.95031,-0.82633 -0.20661,-0.0413 -0.41317,-0.24789 -0.45443,-0.4545 -0.062,-0.33053 0,-0.37188 0.39243,-0.22725 0.26861,0.10327 2.39639,0.2066 4.71018,0.24789 4.13166,0.0826 4.19366,0.0826 4.68944,-0.37182 0.41318,-0.37187 0.47518,-0.59912 0.37183,-1.09492 -0.12391,-0.53714 -0.0826,-0.57843 0.33061,-0.47515 0.33052,0.0826 0.57839,-0.0207 0.8263,-0.33053 0.20657,-0.2479 0.33053,-0.51644 0.26857,-0.59907 -0.0411,-0.10333 -2.93348,-0.16527 -6.40414,-0.16527 l -6.34214,0 -0.68169,-0.74374 c -0.37188,-0.41317 -0.74375,-0.97095 -0.8057,-1.23949 -0.0827,-0.26854 -0.24792,-0.4958 -0.39252,-0.4958 -0.14461,0 -0.33053,-0.22725 -0.39253,-0.51649 -0.062,-0.26854 -0.35122,-0.74369 -0.64039,-1.05358 -0.26861,-0.28919 -0.61974,-0.80568 -0.76435,-1.13621 -0.14461,-0.33053 -0.33056,-0.59907 -0.41322,-0.59907 -0.10326,0 -0.16526,-0.10333 -0.16526,-0.20661 0,-0.12392 -0.24791,-0.49579 -0.55778,-0.82632 -1.03292,-1.09492 -1.30148,-1.4461 -1.30148,-1.65271 0,-0.28919 -0.43383,-1.01223 -0.86766,-1.48738 -0.20656,-0.20661 -0.37182,-0.51644 -0.37182,-0.68176 0,-0.16527 -0.0826,-0.30983 -0.20656,-0.30983 -0.10331,0 -0.20662,-0.12398 -0.20662,-0.28924 0,-0.16527 -0.18591,-0.37187 -0.41317,-0.43381 -0.22726,-0.062 -0.41318,-0.2686 -0.41318,-0.43386 0,-0.16527 -0.0827,-0.28919 -0.18591,-0.28919 -0.1033,0 -0.26856,-0.26859 -0.39247,-0.57843 -0.10336,-0.33058 -0.33057,-0.72305 -0.49588,-0.88836 -0.14461,-0.16527 -0.49578,-0.64036 -0.76435,-1.07422 -0.26856,-0.43381 -0.57843,-0.88832 -0.723,-1.03294 -0.28926,-0.30988 -0.9503,-1.6733 -0.9503,-1.98318 0,-0.16527 1.03287,-0.22725 3.264,-0.22725 1.77661,0 3.59457,-0.062 4.0284,-0.12397 0.68174,-0.12393 0.76439,-0.0826 0.76439,0.33053 0,0.24794 0.33052,0.76438 0.72305,1.1569 0.39252,0.37182 0.72304,0.82633 0.72304,1.01224 0,0.16526 0.12391,0.30988 0.26857,0.30988 0.24786,0 1.17747,1.28084 1.17747,1.65271 0,0.10327 0.18596,0.28918 0.41322,0.41316 0.22727,0.12392 0.41318,0.33053 0.41318,0.47515 0,0.14462 0.18591,0.37182 0.41313,0.51644 0.22726,0.14462 0.41322,0.39252 0.41322,0.55778 0,0.16527 0.10326,0.30989 0.20656,0.30989 0.12391,0 0.20661,0.14461 0.20661,0.30988 0,0.16527 0.10326,0.30989 0.22722,0.30989 0.33052,0 0.80565,0.53708 0.80565,0.90895 0,0.18592 0.10331,0.33054 0.20661,0.33054 0.12396,0 0.20657,0.14461 0.20657,0.30988 0,0.16526 0.12395,0.30989 0.26861,0.30989 0.12391,0 0.51643,0.41316 0.84695,0.9296 l 0.57844,0.9503 7.10653,-0.062 7.08589,-0.0619 0.72299,-0.7024 c 0.41318,-0.39252 0.74375,-0.80568 0.74375,-0.88831 0,-0.16526 0.45443,-0.72305 1.79726,-2.1485 0.24791,-0.26854 0.49578,-0.66106 0.57843,-0.88831 0.062,-0.22726 0.35122,-0.59908 0.61979,-0.80568 0.35122,-0.28924 0.45443,-0.51644 0.37187,-0.9503 -0.10335,-0.47515 -0.062,-0.55778 0.26852,-0.49579 0.35117,0.062 1.11557,-0.59908 1.11557,-0.97095 0,-0.0826 0.22726,-0.41317 0.51643,-0.76434 0.28927,-0.33058 0.51648,-0.72305 0.51648,-0.88831 0,-0.14463 0.18591,-0.30989 0.39252,-0.37188 0.22722,-0.0413 0.43383,-0.30988 0.47513,-0.57842 0.0411,-0.35123 0.18596,-0.4958 0.53714,-0.47515 0.24786,0 2.08648,0.0207 4.06974,0.0413 2.08644,0.0207 3.61518,0.12392 3.61518,0.22725 0,0.10328 -0.10326,0.45446 -0.24787,0.78499 -0.12396,0.30988 -0.20661,0.74374 -0.18596,0.9503 0.0206,0.18596 -0.0826,0.35123 -0.24787,0.35123 -0.22726,0 -0.92965,0.95024 -2.31378,3.07809 -0.10326,0.18592 -0.45444,0.64042 -0.76435,1.01224 -0.33057,0.37187 -0.57844,0.76439 -0.57844,0.84702 0,0.10328 -0.37182,0.64042 -0.847,1.17755 -0.45448,0.55774 -0.8883,1.26014 -0.95031,1.57003 -0.062,0.30988 -0.22721,0.59907 -0.39252,0.66106 -0.16521,0.062 -0.28917,0.30988 -0.28917,0.53714 0,0.22725 -0.14461,0.41316 -0.30987,0.41316 -0.16526,0 -0.30992,0.0826 -0.30992,0.18591 0,0.10333 -0.37187,0.64041 -0.84695,1.17755 -0.45453,0.55778 -0.88835,1.26019 -0.95031,1.57002 -0.062,0.30989 -0.43382,0.92965 -0.80565,1.38416 -0.39252,0.43381 -0.70244,0.95025 -0.70244,1.13621 0,0.18591 -0.12391,0.33053 -0.26852,0.33053 -0.28926,0 -0.76439,0.82633 -0.76439,1.34277 0,0.16531 -0.12391,0.30988 -0.26857,0.30988 -0.24787,0 -1.17752,1.05358 -1.17752,1.34282 0,0.10328 -1.46674,2.18979 -2.93348,4.13168 -0.53713,0.7024 -0.78505,1.23954 -0.78505,1.71469 0,0.4958 -0.0826,0.66106 -0.37182,0.66106 -0.20661,0 -0.70244,0.47515 -1.15692,1.09487 l -0.785,1.07427 -4.1317,0 c -3.78049,0 -4.17301,-0.0413 -4.25562,-0.35122 z"
       id="path32" />
    <path
       d="m 736.13337,153.73621 -19.06772,-0.062 0,-3.47062 c 0,-1.9006 -0.062,-3.63588 -0.12396,-3.86314 -0.1033,-0.41316 0,-0.41316 16.69207,-0.41316 11.91993,-0.0206 17.06385,-0.0826 17.72499,-0.2479 0.51643,-0.14462 1.5907,-0.59912 2.3757,-1.03293 1.36343,-0.74369 1.44608,-0.84702 1.50809,-1.57007 0.0411,-0.47515 0.16526,-0.76434 0.35117,-0.76434 0.43383,0 0.51643,-0.49579 0.51643,-3.0988 0,-1.90054 -0.062,-2.47898 -0.30982,-2.68558 -0.16526,-0.14462 -0.30992,-0.39252 -0.30992,-0.53714 0,-0.16526 -0.0826,-0.28919 -0.18595,-0.28919 -0.10326,0 -0.22717,-0.2066 -0.26852,-0.4545 -0.0411,-0.26854 -0.22727,-0.4958 -0.45448,-0.55778 -0.22726,-0.0413 -0.74375,-0.26855 -1.13627,-0.51645 -1.508,-0.95029 -1.508,-0.95029 -15.20458,-0.95029 -11.07293,0 -13.0975,0.0413 -13.30411,0.28924 -0.18587,0.2272 -0.24787,1.632 -0.20657,5.01999 l 0.0411,4.71011 -3.90449,0.062 -3.90439,0.0413 0,-9.29629 0,-9.31699 19.83207,0.062 19.83216,0.062 1.38413,0.47515 c 0.7643,0.2479 1.50805,0.57843 1.6527,0.72305 0.14461,0.12392 0.723,0.4751 1.26013,0.76433 0.53714,0.26855 0.97092,0.66107 0.97092,0.82633 0,0.18596 0.26856,0.53714 0.61978,0.78504 1.01226,0.76439 1.07422,1.36346 1.05357,11.13491 0,8.77985 0,8.94511 -0.45448,9.91606 -0.24792,0.55778 -0.43383,1.13621 -0.41318,1.32217 0.0411,0.43381 -0.51643,0.88831 -0.88826,0.74369 -0.1653,-0.062 -0.41322,0.0206 -0.55783,0.18592 -0.61973,0.74369 -3.51196,1.85925 -5.14396,1.98323 -0.51643,0.0413 -9.50293,0.0413 -19.97677,0.0206 z"
       id="path34" />
    <path
       d="m 774.64078,153.59159 c -0.53709,-0.16527 -1.15683,-0.2479 -1.38409,-0.18591 -0.28922,0.0826 -0.41317,0 -0.41317,-0.22725 0,-0.18597 -0.16526,-0.33053 -0.39253,-0.33053 -0.22726,0 -0.47513,-0.18596 -0.53708,-0.41322 -0.062,-0.2272 -0.26861,-0.41316 -0.43383,-0.41316 -0.16531,0 -0.28922,-0.0826 -0.28922,-0.18591 0,-0.10328 -0.18595,-0.14462 -0.43387,-0.0826 -0.33052,0.10327 -0.41313,0.0413 -0.35117,-0.28924 0.062,-0.45446 -0.37187,-1.09488 -0.74374,-1.09488 -0.30983,0 -1.15683,-2.14849 -1.30148,-3.34669 -0.10322,-0.88831 -0.0826,-0.99159 0.28926,-0.99159 0.20656,0 0.51643,-0.12398 0.64039,-0.2479 0.20661,-0.20661 0.35117,-0.20661 0.66109,0 0.30987,0.18591 5.49514,0.2479 22.80695,0.2479 17.72493,0 22.41442,0.062 22.49712,0.26854 0.0826,0.20661 0.12391,0.20661 0.12391,0 0.0206,-0.37182 0.64039,-0.33053 0.64039,0.0207 0,0.14462 -0.18591,0.33053 -0.41313,0.39252 -0.39252,0.10328 -0.41322,0.28924 -0.41322,3.53261 l 0,3.42933 -18.88176,0 c -10.37063,0 -19.27443,0.0413 -19.77021,0.10327 -0.49578,0.0413 -1.34283,-0.0413 -1.90061,-0.18591 z"
       id="path36" />
    <path
       d="m 826.24569,153.55025 c -1.34279,-0.33053 -3.2021,-1.1982 -3.2021,-1.46674 0,-0.14462 -0.12391,-0.26855 -0.26852,-0.26855 -0.33061,0 -1.59074,-1.28083 -1.59074,-1.61136 0,-0.14462 -0.0826,-0.2479 -0.18591,-0.2479 -0.10326,0 -0.35118,-0.35122 -0.53714,-0.76439 -0.30987,-0.64041 -0.37182,-1.34276 -0.37182,-4.29694 0,-4.46221 0.14465,-5.41251 0.88826,-6.11491 0.33061,-0.28925 0.72314,-0.59908 0.90905,-0.66107 0.18591,-0.0826 0.33052,-0.2066 0.33052,-0.30988 0,-0.43381 1.75596,-1.36346 3.2227,-1.71464 1.44609,-0.35122 2.85092,-0.37187 17.1879,-0.39252 11.3621,0 15.67976,-0.0826 15.88637,-0.24789 0.18582,-0.14462 0.26852,-0.57843 0.22721,-1.28084 l -0.062,-1.05357 -19.31568,-0.062 c -12.47771,-0.0413 -19.37764,-0.12398 -19.5222,-0.26854 -0.124,-0.12398 -0.10335,-0.33053 0.0619,-0.59913 0.33061,-0.53708 0.35122,-6.21819 0.0206,-6.54872 -0.14461,-0.14462 -0.18596,-0.39252 -0.12396,-0.55778 0.12396,-0.28924 2.10713,-0.33053 19.62555,-0.33053 18.84051,0 19.5429,0.0206 21.1336,0.41316 1.57004,0.39252 3.4087,1.17755 3.55327,1.50808 0.0411,0.0826 0.20656,0.14462 0.35117,0.14462 0.14461,0 0.41317,0.33053 0.59913,0.72305 0.18591,0.39247 0.43383,0.723 0.51648,0.723 0.10321,0 0.39248,0.49585 0.64039,1.09492 0.43383,0.9503 0.47513,1.42545 0.51644,4.48291 0.0205,3.7805 -0.26857,5.9083 -0.95026,6.52807 -0.20657,0.18591 -0.39253,0.47515 -0.39253,0.64042 0,0.14461 -0.14461,0.26854 -0.30987,0.26854 -0.18591,0 -0.72304,0.20661 -1.19822,0.45451 -2.00387,1.01223 -1.83861,1.01223 -19.27433,0.99159 -14.04776,-0.0207 -16.38215,0.0206 -16.58876,0.28923 -0.14461,0.18592 -0.22727,0.80568 -0.18592,1.61137 l 0.062,1.30147 19.41894,0 19.41894,0 -0.062,3.8218 c -0.0411,2.10715 -0.10326,3.84249 -0.12396,3.86313 -0.0205,0.0207 -8.90379,0.0826 -19.7495,0.10328 -13.30407,0.0413 -19.97673,0 -20.55516,-0.16526 z"
       id="path38" />
    <path
       d="m 156.60128,153.40568 c 0,-0.37187 -0.4958,-1.38416 -0.66107,-1.38416 -0.10329,0 -0.16527,-0.12393 -0.16527,-0.28919 0,-0.16527 -0.1446,-0.33053 -0.30987,-0.41316 -0.16527,-0.062 -0.30988,-0.22726 -0.30988,-0.35123 0,-0.12392 -0.16527,-0.39252 -0.37185,-0.57843 -0.20658,-0.18591 -0.55778,-0.64041 -0.76436,-0.99159 -0.22725,-0.37187 -0.51647,-0.68175 -0.66107,-0.68175 -0.14461,0 -0.26857,-0.0826 -0.26857,-0.20656 0,-0.10333 -0.14461,-0.20661 -0.33054,-0.20661 -0.18592,0 -0.28921,-0.14462 -0.24789,-0.35117 0.0413,-0.20661 -0.1033,-0.53714 -0.33054,-0.7437 -0.35119,-0.30988 -0.37185,-0.43386 -0.16527,-0.72304 0.14461,-0.18597 0.30988,-0.5165 0.37186,-0.70241 0.16527,-0.4545 0.61975,-0.47515 0.78502,-0.062 0.0826,0.26854 0.70239,0.30988 3.63589,0.30988 l 3.55326,0 0.6404,-0.66106 c 0.88832,-0.86767 1.59071,-1.83861 1.59071,-2.16914 0,-0.20661 -1.28082,-0.26855 -6.40413,-0.26855 l -6.38346,0 -0.847,-1.21889 c -0.45449,-0.68171 -0.82634,-1.34277 -0.82634,-1.4461 0,-0.12392 -0.0826,-0.2272 -0.20659,-0.2272 -0.10329,0 -0.20658,-0.14462 -0.20658,-0.30988 0,-0.16527 -0.0826,-0.30989 -0.20659,-0.30989 -0.10329,0 -0.20658,-0.14462 -0.20658,-0.30988 0,-0.16527 -0.0826,-0.30989 -0.20658,-0.30989 -0.10329,0 -0.20659,-0.0826 -0.20659,-0.20656 0,-0.10333 -0.22724,-0.41316 -0.51646,-0.7024 -0.28922,-0.28924 -0.51646,-0.66106 -0.51646,-0.84702 0,-0.16526 -0.0826,-0.30984 -0.20659,-0.30984 -0.10329,0 -0.20658,-0.14461 -0.20658,-0.30988 0,-0.16526 -0.0826,-0.30988 -0.20659,-0.30988 -0.10329,0 -0.20658,-0.14462 -0.20658,-0.30989 0,-0.16526 -0.18593,-0.30988 -0.41317,-0.30988 -0.30988,0 -0.41317,-0.14462 -0.41317,-0.59908 0,-0.49579 -0.062,-0.57842 -0.41317,-0.49579 -0.33053,0.0826 -0.41317,0 -0.41317,-0.41316 0,-0.28925 -0.12395,-0.66112 -0.2479,-0.80568 -0.14461,-0.14463 -0.41317,-0.53714 -0.57844,-0.88837 -0.33054,-0.66106 -0.4958,-0.86762 -1.44609,-1.9212 -0.3512,-0.37187 -0.61976,-0.80567 -0.61976,-0.99164 0,-0.16526 -0.14461,-0.35117 -0.30987,-0.41316 -0.16527,-0.0826 -0.30988,-0.20655 -0.30988,-0.33053 0,-0.10328 -0.37185,-0.74369 -0.82634,-1.40475 -0.45449,-0.66112 -0.82634,-1.32218 -0.82634,-1.42545 0,-0.12398 -0.0826,-0.22726 -0.20658,-0.22726 -0.10329,0 -0.20659,-0.18591 -0.20659,-0.41316 0,-0.39252 0.14461,-0.41316 3.92511,-0.41316 2.16914,0 3.92511,0.0826 3.92511,0.16526 0,0.10328 0.22725,0.30989 0.51646,0.45451 0.28922,0.14457 0.51647,0.39247 0.51647,0.55778 0,0.14457 0.18592,0.37182 0.41317,0.51644 0.22724,0.14462 0.41316,0.37187 0.41316,0.51644 0,0.14462 0.0826,0.2686 0.18593,0.2686 0.1033,0 0.22724,0.16526 0.30987,0.37182 0.26857,0.82638 1.21886,1.9006 1.67335,1.9006 0.20658,0 0.30988,0.20655 0.30988,0.61977 0,0.41316 0.10329,0.61971 0.30987,0.61971 0.16526,0 0.30988,0.18597 0.30988,0.41317 0,0.22725 0.0826,0.41321 0.18592,0.41321 0.18593,0 2.08651,2.33436 2.08651,2.54097 0,0.062 0.28922,0.41316 0.64041,0.78503 l 0.66107,0.7024 6.87927,0.0619 6.89993,0.062 0.5991,-0.47515 c 0.68173,-0.53714 2.08651,-2.29307 2.08651,-2.6236 0,-0.12397 0.18592,-0.30988 0.41317,-0.43386 0.22723,-0.12392 0.41316,-0.43381 0.41316,-0.7024 0,-0.33053 0.28923,-0.70235 0.92963,-1.1775 0.49581,-0.39252 0.92963,-0.80568 0.92963,-0.92966 0,-0.12392 0.14462,-0.35117 0.30989,-0.49579 0.16526,-0.14462 0.30987,-0.51644 0.30987,-0.82633 0,-0.39251 0.12395,-0.59912 0.41317,-0.68176 0.2479,-0.0619 0.41317,-0.28919 0.41317,-0.53708 0,-0.28924 0.12395,-0.43386 0.41317,-0.43386 0.26856,0 0.41317,-0.14457 0.41317,-0.41316 0,-0.22725 0.10329,-0.41317 0.22725,-0.41317 0.12395,0 0.4958,-0.26854 0.84699,-0.61976 0.61975,-0.64037 1.07424,-0.78499 1.30148,-0.41317 0.0826,0.12398 1.28083,0.20661 2.89219,0.20661 1.61136,0 2.80955,-0.0826 2.89219,-0.20661 0.062,-0.10328 0.2479,-0.20655 0.41316,-0.20655 0.33054,0 0.37186,1.13621 0.0413,1.75598 -0.12395,0.2272 -0.20658,0.57842 -0.16527,0.78498 0.0207,0.18596 -0.0826,0.35123 -0.2479,0.35123 -0.26856,0 -1.36346,1.21884 -1.65267,1.85926 -0.0826,0.16526 -0.61976,0.97094 -1.17754,1.75597 -0.57844,0.80569 -1.75597,2.52032 -2.62363,3.8218 -0.86765,1.30148 -1.77663,2.6443 -2.04519,2.95418 -0.26855,0.33053 -0.4958,0.76434 -0.4958,0.99159 0,0.20661 -0.12395,0.39252 -0.26856,0.39252 -0.14461,0 -0.47514,0.35117 -0.72305,0.80568 -0.24789,0.43381 -0.59909,0.90896 -0.76436,1.05358 -0.18592,0.16526 -0.26856,0.43381 -0.18592,0.74369 0.10328,0.37187 0.0413,0.4958 -0.18593,0.4958 -0.35119,0 -1.59071,1.38411 -1.59071,1.79732 0,0.12392 -0.20657,0.49579 -0.45448,0.82632 -0.26856,0.30989 -0.55778,0.72305 -0.68173,0.90896 -0.72304,1.13621 -1.32214,1.98324 -1.63202,2.23113 -0.18593,0.14462 -0.33054,0.37183 -0.33054,0.4958 0,0.12397 -0.18592,0.41316 -0.3925,0.64041 -0.22725,0.2479 -0.64042,0.90896 -0.92963,1.46675 -0.30989,0.57842 -0.9503,1.50808 -1.42544,2.10715 l -0.86766,1.07428 -4.37959,0.0206 c -3.47062,0 -4.40026,-0.062 -4.40026,-0.2686 z"
       id="path40" />
    <path
       d="m 311.43656,153.40568 c -0.28924,-0.37187 -0.7024,-1.01229 -0.86767,-1.36346 -0.062,-0.14463 -0.33053,-0.49585 -0.55778,-0.74375 -0.2479,-0.26854 -0.57843,-0.74369 -0.74369,-1.05358 -0.45451,-0.84697 -1.13621,-1.52872 -1.54938,-1.52872 -0.24795,0 -0.33058,-0.12393 -0.24795,-0.41317 0.14462,-0.53709 -0.26854,-1.40475 -0.72305,-1.52873 -0.20655,-0.0413 -0.37182,-0.24789 -0.37182,-0.47515 0,-0.35117 0.22726,-0.37182 4.23497,-0.30988 l 4.21436,0.0827 0.74369,-0.55778 c 0.39252,-0.30989 0.72305,-0.64042 0.72305,-0.74375 0,-0.10327 0.22725,-0.55778 0.51644,-1.01223 l 0.51649,-0.82633 -6.61071,0 c -5.74309,0 -6.61071,0.0413 -6.61071,0.30984 0,0.16526 -0.14462,0.30988 -0.30988,0.30988 -0.16527,0 -0.30989,-0.14462 -0.30989,-0.30988 0,-0.16527 0.14462,-0.30984 0.33053,-0.30984 0.45451,0 0.20661,-0.97094 -0.35117,-1.46679 -0.20661,-0.18591 -0.39252,-0.45445 -0.39252,-0.57843 0,-0.12392 -0.14462,-0.28918 -0.30989,-0.35117 -0.16526,-0.0826 -0.30988,-0.2479 -0.30988,-0.39252 0,-0.14462 -0.12392,-0.30988 -0.28919,-0.37187 -0.16531,-0.0619 -0.35122,-0.39252 -0.41321,-0.70235 -0.0826,-0.33053 -0.33053,-0.72305 -0.53709,-0.88832 -0.22725,-0.16526 -0.41316,-0.41321 -0.41316,-0.57848 0,-0.14457 -0.14462,-0.30983 -0.30989,-0.37182 -0.16526,-0.0826 -0.30988,-0.2479 -0.30988,-0.41316 0,-0.14462 -0.12398,-0.35123 -0.26854,-0.43386 -0.14463,-0.0826 -0.43386,-0.55778 -0.66112,-1.03293 -0.2272,-0.4958 -0.47514,-0.88832 -0.55778,-0.88832 -0.10328,0 -0.16526,-0.14456 -0.16526,-0.30983 0,-0.16526 -0.0826,-0.30988 -0.20656,-0.30988 -0.10328,0 -0.20661,-0.0826 -0.20661,-0.20661 0,-0.10328 -0.16526,-0.37182 -0.35117,-0.57843 -0.68176,-0.72305 -1.03294,-1.1982 -1.32213,-1.85926 -0.16531,-0.37187 -0.35122,-0.66106 -0.43385,-0.66106 -0.10328,0 -0.16527,-0.0826 -0.16527,-0.18596 0,-0.12392 -0.20661,-0.43381 -0.47515,-0.72305 -0.24789,-0.26854 -0.59907,-0.76434 -0.76434,-1.09487 -0.16526,-0.30988 -0.51649,-0.76439 -0.76439,-0.99159 -0.26854,-0.22725 -0.47515,-0.49585 -0.47515,-0.57848 0,-0.0826 -0.18591,-0.4338 -0.4338,-0.74369 -0.2479,-0.33053 -0.39252,-0.76434 -0.35118,-0.97095 0.0619,-0.35117 0.35118,-0.39252 3.47062,-0.49579 3.90443,-0.12397 4.35893,-0.0826 4.48285,0.4338 0.062,0.20661 0.22726,0.41317 0.39252,0.47516 0.16527,0.062 0.28924,0.24789 0.28924,0.41316 0,0.18596 0.18591,0.41316 0.41316,0.53714 0.22726,0.12397 0.41317,0.35117 0.41317,0.51644 0,0.16526 0.24789,0.37187 0.53714,0.43386 0.37182,0.10328 0.49579,0.24789 0.4338,0.51644 -0.062,0.2066 0.0207,0.41316 0.18592,0.47515 0.16526,0.062 0.28923,0.22725 0.28923,0.37187 0.0206,0.39251 1.09492,1.13621 1.1982,0.82633 0.10328,-0.35118 0.66106,-0.30989 0.66106,0.062 0,0.16527 -0.14462,0.30989 -0.30988,0.30989 -0.16527,0 -0.30989,0.10328 -0.30989,0.20655 0,0.12398 0.12398,0.20661 0.26859,0.20661 0.14458,0 0.39252,0.33053 0.53709,0.72305 0.14462,0.41316 0.47515,0.86761 0.74375,1.05358 0.26854,0.18591 0.55773,0.59907 0.61972,0.9296 0.0826,0.33053 0.26859,0.59913 0.41316,0.59913 0.16526,0 0.35123,0.1859 0.41321,0.41316 0.0826,0.22725 0.35118,0.66106 0.61972,0.9503 l 0.47515,0.51644 7.04457,-0.062 7.02387,-0.0619 0.72305,-0.7024 c 0.41316,-0.39252 0.74369,-0.84702 0.74369,-1.01228 0,-0.14462 0.28924,-0.51645 0.61977,-0.80568 0.59908,-0.4958 0.82633,-1.09487 0.41316,-1.09487 -0.10332,0 -0.2066,-0.14462 -0.2066,-0.33053 0,-0.24795 0.14462,-0.30989 0.51649,-0.24795 0.43381,0.0826 0.51644,0.0206 0.51644,-0.37182 0,-0.35123 0.12398,-0.4958 0.41317,-0.4958 0.24789,0 0.82632,-0.57843 1.65269,-1.63206 0.68171,-0.90895 1.2395,-1.71463 1.2395,-1.77662 0,-0.0826 0.4338,-0.64042 0.95029,-1.26014 l 0.95031,-1.11556 3.90442,0 c 4.50356,0 4.37958,-0.062 3.14009,1.81791 -0.4338,0.66112 -0.86766,1.34282 -0.99159,1.52873 -0.10333,0.18596 -0.51649,0.76439 -0.86766,1.28083 -0.37188,0.53714 -0.68171,1.09492 -0.68171,1.23954 0,0.14462 -0.2686,0.51644 -0.59913,0.82633 -0.33053,0.33053 -0.9503,1.15685 -1.3841,1.85926 -0.41317,0.68176 -0.95031,1.46674 -1.17756,1.71464 -0.22725,0.2479 -0.51644,0.64041 -0.64041,0.84702 -0.35118,0.59907 -1.36347,2.1278 -2.02453,3.03681 -0.33053,0.45445 -1.11556,1.61136 -1.75598,2.58231 -2.33441,3.53255 -3.88378,5.78433 -6.03223,8.80049 -0.39251,0.55779 -0.7024,1.21885 -0.68175,1.46675 0.0206,0.35117 -0.0826,0.47514 -0.37188,0.47514 -0.2272,0 -0.41316,0.12393 -0.41316,0.26855 0,0.16527 -0.20655,0.47515 -0.47515,0.72305 -0.45445,0.43386 -0.64042,0.4545 -4.60683,0.4545 -3.05746,-0.0206 -4.17302,-0.0826 -4.31759,-0.26854 z"
       id="path42" />
    <path
       d="m 814.78019,143.13839 c 0,-0.14462 -7.89149,-0.20656 -23.26138,-0.20656 l -23.26143,0 0.0826,-6.30087 c 0.0411,-4.66882 0.12401,-6.34212 0.33062,-6.54872 0.12391,-0.12393 0.24787,-0.39252 0.24787,-0.57843 0,-0.18592 0.18591,-0.51649 0.41317,-0.72305 0.22722,-0.20661 0.41318,-0.4958 0.41318,-0.64042 0,-0.14461 0.30982,-0.4545 0.68169,-0.68175 0.37187,-0.2272 0.86765,-0.59907 1.07426,-0.84697 0.20657,-0.22726 0.51648,-0.41317 0.68174,-0.41317 0.18592,0 0.47513,-0.14462 0.6817,-0.33053 0.18591,-0.16526 0.847,-0.47515 1.44613,-0.66106 0.99157,-0.28924 3.24336,-0.35123 21.05099,-0.39252 l 19.93538,-0.0826 -0.0411,4.19367 -0.0411,4.19367 -19.25372,0.062 c -14.21302,0.0207 -19.33629,0.10327 -19.5429,0.28918 -0.18591,0.14462 -0.26857,0.55778 -0.22722,1.17756 l 0.062,0.95029 19.52229,0.0619 19.5222,0.0413 0,3.82185 c 0,2.91284 -0.0619,3.82179 -0.24787,3.82179 -0.14461,0 -0.26861,-0.0826 -0.26861,-0.20655 z"
       id="path44" />
    <path
       d="m 565.8869,142.78721 -3.75979,-0.062 0.0411,-8.94512 0.0619,-8.92448 3.92514,-0.062 3.92514,-0.0413 0,9.08974 c 0,5.94964 -0.062,9.06909 -0.20662,9.04844 -0.10335,-0.0413 -1.90061,-0.0826 -3.98714,-0.10333 z"
       id="path46" />
  </g>
</svg>
