<?xml version="1.0" encoding="UTF-8" standalone="no"?>
<svg
   xmlns:dc="http://purl.org/dc/elements/1.1/"
   xmlns:cc="http://creativecommons.org/ns#"
   xmlns:rdf="http://www.w3.org/1999/02/22-rdf-syntax-ns#"
   xmlns:svg="http://www.w3.org/2000/svg"
   xmlns="http://www.w3.org/2000/svg"
   xmlns:sodipodi="http://sodipodi.sourceforge.net/DTD/sodipodi-0.dtd"
   xmlns:inkscape="http://www.inkscape.org/namespaces/inkscape"
   version="1.0"
   width="250"
   height="50"
   viewBox="0 0 200 40"
   preserveAspectRatio="xMidYMid meet"
   id="svg2"
   inkscape:version="0.48.4 r9939"
   sodipodi:docname="90(2).svg">
  <defs
     id="defs50" />
  <sodipodi:namedview
     pagecolor="#ffffff"
     bordercolor="#666666"
     borderopacity="1"
     objecttolerance="10"
     gridtolerance="10"
     guidetolerance="10"
     inkscape:pageopacity="0"
     inkscape:pageshadow="2"
     inkscape:window-width="1615"
     inkscape:window-height="962"
     id="namedview48"
     showgrid="false"
     inkscape:zoom="2.56"
     inkscape:cx="231.28519"
     inkscape:cy="55.251274"
     inkscape:window-x="65"
     inkscape:window-y="24"
     inkscape:window-maximized="1"
     inkscape:current-layer="g6" />
  <metadata
     id="metadata4">
Created by potrace 1.12, written by Peter Selinger 2001-2015
<rdf:RDF>
  <cc:Work
     rdf:about="">
    <dc:format>image/svg+xml</dc:format>
    <dc:type
       rdf:resource="http://purl.org/dc/dcmitype/StillImage" />
    <dc:title></dc:title>
  </cc:Work>
</rdf:RDF>
</metadata>
  <g
     transform="matrix(0.1,0,0,-0.1,0,40)"
     id="g6"
     style="fill:#000000;stroke:none">
    <path
       d="m -172.41117,201.40756 0,-215.545285 1104.91827,0 1104.9182,0 0,215.545285 0,215.54528 -1104.9182,0 -1104.91827,0 0,-215.54528 z M 2036.4968,415.89171 c 0.3537,-0.44219 0.4422,-56.85976 0.3979,-214.97053 L 2036.7622,-13.474492 932.99348,-13.60716 c -815.71179,-0.04419 -1103.90135,0.04419 -1104.3435,0.397896 -0.53057,0.442191 -0.619,35.238852 -0.619,214.837864 0,117.83139 0.13264,214.43997 0.3095,214.57253 0.13265,0.17685 496.92582,0.30952 1103.94547,0.30952 927.53005,0 1103.76865,-0.0884 1104.21085,-0.61894 z"
       id="path8"
       inkscape:connector-curvature="0" />
    <path
       d="m 1773.2442,352.75344 c -0.088,-0.30942 -1.3265,-5.65936 -2.6529,-11.84939 -2.1665,-9.90409 -31.2595,-141.17666 -31.7901,-143.47578 -0.2211,-0.88427 -0.4865,-0.88427 -47.8842,-0.75171 -56.4618,0.17685 -132.0685,0.53056 -243.9752,1.1938 -22.3725,0.13266 -59.3799,0.30952 -82.2388,0.44219 -22.8588,0.13267 -59.3799,0.30952 -81.1334,0.44208 -21.7536,0.13267 -57.1693,0.30952 -78.7017,0.44219 -21.5325,0.13267 -58.0093,0.30952 -81.1334,0.44208 -63.2267,0.35382 -117.9642,0.61905 -162.4881,0.88439 -22.0187,0.0884 -58.23031,0.30941 -80.47018,0.44208 -22.23985,0.13267 -58.53983,0.30952 -80.69131,0.44219 -22.10719,0.13267 -58.53984,0.30952 -80.91236,0.44208 -22.37252,0.13267 -58.36309,0.35371 -80.02808,0.4422 -73.44016,0.39789 -121.89916,0.66323 -162.48795,0.88427 -22.23985,0.13267 -57.87671,0.35371 -79.14386,0.44219 -21.26713,0.0884 -57.69981,0.30942 -80.91238,0.48627 -23.21257,0.13267 -57.83246,0.26534 -76.93309,0.30952 -19.10062,0.0442 -45.89456,0.26534 -59.55681,0.48638 -22.99149,0.35371 -24.89272,0.35371 -24.89272,-0.30952 0,-0.79579 0.70743,-0.88427 11.93789,-1.06113 3.05079,-0.0442 8.62181,-0.22104 12.38004,-0.35371 10.78832,-0.3979 18.26055,-0.66323 25.20222,-0.88427 3.53715,-0.13267 9.41767,-0.30953 13.04326,-0.4422 3.66978,-0.13256 9.63873,-0.3537 13.26431,-0.48637 3.6698,-0.0884 9.41768,-0.30942 12.82218,-0.3979 3.40451,-0.13267 9.06396,-0.30952 12.60111,-0.44208 3.53716,-0.13267 9.5061,-0.30953 13.26433,-0.44219 3.75822,-0.13267 9.63874,-0.35371 13.04326,-0.4422 3.4045,-0.13256 9.06394,-0.30941 12.6011,-0.44208 3.53715,-0.13267 9.5061,-0.35371 13.26433,-0.44219 3.75821,-0.13256 9.63873,-0.35371 13.04325,-0.44208 3.4045,-0.13267 8.97552,-0.30953 12.38004,-0.44219 3.4045,-0.13267 9.19659,-0.30953 12.82218,-0.44209 3.66979,-0.13267 9.63873,-0.30952 13.26431,-0.44219 3.66981,-0.13267 9.41768,-0.35371 12.82219,-0.44208 3.40451,-0.13267 9.06396,-0.30953 12.60111,-0.44219 3.53715,-0.13267 9.59453,-0.30953 13.48539,-0.44219 10.34623,-0.35371 18.65852,-0.66313 25.64434,-0.88428 14.28128,-0.48638 20.20597,-0.66323 25.86544,-0.88427 3.27187,-0.13267 9.064,-0.30953 12.82225,-0.44209 3.75814,-0.13266 9.85979,-0.35371 13.48537,-0.48637 6.23422,-0.22115 9.10819,-0.30953 24.98116,-0.84009 3.5371,-0.13267 9.41761,-0.30953 13.04318,-0.44219 3.66988,-0.13256 9.63876,-0.30942 13.26434,-0.44209 7.29545,-0.26533 16.5362,-0.57486 26.08658,-0.88427 3.40443,-0.0884 9.19656,-0.30952 12.82214,-0.44219 3.66977,-0.13267 9.63876,-0.30953 13.26434,-0.44209 9.94827,-0.35381 18.74694,-0.66323 25.64439,-0.88438 3.40443,-0.13256 9.06389,-0.30941 12.6011,-0.44208 3.5371,-0.13267 9.4176,-0.30952 13.04318,-0.44219 3.66977,-0.13267 9.63876,-0.35371 13.26444,-0.44209 3.66966,-0.13266 9.41761,-0.35371 12.82204,-0.44219 3.40454,-0.13267 9.064,-0.30952 12.6011,-0.44208 3.5372,-0.13267 9.50619,-0.30952 13.26433,-0.44219 13.75071,-0.48638 19.36599,-0.66323 25.64439,-0.88428 3.53721,-0.13266 9.5062,-0.30952 13.26434,-0.44219 3.75825,-0.13256 9.63875,-0.35371 13.04329,-0.44208 3.40454,-0.13267 8.88704,-0.30952 12.15891,-0.44219 3.27198,-0.13267 9.15237,-0.30953 13.04329,-0.44209 6.63222,-0.22114 10.74407,-0.35371 26.74971,-0.92856 3.5371,-0.0884 9.01971,-0.26523 12.15891,-0.3979 3.18349,-0.0884 8.93133,-0.30952 12.82225,-0.44219 10.39036,-0.35371 18.17208,-0.66313 25.64439,-0.88428 3.66977,-0.13266 9.50609,-0.30952 13.04318,-0.44208 6.41118,-0.22115 13.88338,-0.48638 26.30763,-0.88427 3.66976,-0.13267 9.4619,-0.35382 12.95481,-0.4422 6.94165,-0.26533 16.00554,-0.57475 25.73278,-0.88427 16.84572,-0.57475 21.00176,-0.70742 38.68754,-1.32647 3.6699,-0.13266 9.4177,-0.35371 12.8222,-0.44208 3.4045,-0.13267 9.3735,-0.30952 13.2644,-0.44219 3.8908,-0.13267 9.7713,-0.35371 13.0432,-0.44219 14.2371,-0.48627 20.0292,-0.70742 25.6444,-0.88428 3.2719,-0.13256 9.064,-0.30941 12.8221,-0.44208 7.1186,-0.26534 14.635,-0.48638 25.6444,-0.88427 6.2784,-0.22115 13.2201,-0.4422 26.0865,-0.88428 3.5372,-0.13267 9.4177,-0.30952 13.0433,-0.44219 3.6698,-0.13267 9.4176,-0.30952 12.8221,-0.44219 3.4046,-0.13256 8.9756,-0.30942 12.3801,-0.44208 3.4045,-0.13267 9.3735,-0.30953 13.2643,-0.4422 9.9483,-0.35371 18.4374,-0.61893 25.6443,-0.88427 3.4045,-0.13267 9.3735,-0.30952 13.2645,-0.44208 8.887,-0.30953 17.1109,-0.57486 25.6442,-0.88439 3.6699,-0.13256 9.4177,-0.35371 12.8222,-0.44208 3.4045,-0.0884 9.3735,-0.30952 13.2644,-0.44219 15.7845,-0.57475 19.3217,-0.66323 25.8655,-0.88427 3.7582,-0.13267 9.6386,-0.35371 13.0431,-0.44209 3.4046,-0.13267 9.1082,-0.30952 12.7338,-0.44219 13.9276,-0.48638 19.5427,-0.66323 25.6444,-0.88427 3.4487,-0.13267 9.285,-0.35371 12.9106,-0.44219 3.6698,-0.13257 9.7271,-0.30942 13.4854,-0.44209 3.7582,-0.13267 9.7271,-0.35371 13.2643,-0.44219 3.5371,-0.13267 9.1966,-0.30952 12.6011,-0.44208 11.7169,-0.44219 23.7432,-0.84009 38.4666,-1.32647 9.9482,-0.35371 18.8795,-0.66323 26.0864,-0.88427 3.4046,-0.13267 9.1966,-0.30953 12.8223,-0.44219 13.9716,-0.48638 20.1176,-0.66324 25.8654,-0.88428 3.2718,-0.13267 8.8429,-0.30952 12.3801,-0.44208 3.5371,-0.13267 9.2849,-0.30952 12.822,-0.44219 13.1318,-0.44219 19.4102,-0.66324 26.3076,-0.88428 8.445,-0.30952 17.2437,-0.57475 25.6444,-0.88427 3.4046,-0.13267 9.2851,-0.30953 13.0433,-0.44219 13.5739,-0.44209 20.6481,-0.70742 26.3075,-0.88428 3.1834,-0.13267 8.6219,-0.30952 12.1591,-0.44219 6.5879,-0.22104 16.5803,-0.57475 26.7497,-0.88427 3.1835,-0.13256 8.7544,-0.30942 12.38,-0.44209 3.6698,-0.13266 9.5061,-0.30952 13.0432,-0.44219 3.5371,-0.13267 9.4177,-0.30952 13.0433,-0.44208 3.6698,-0.13267 9.4176,-0.30952 12.8221,-0.44219 3.4046,-0.13267 9.1967,-0.30953 12.8223,-0.44209 3.6698,-0.13266 9.6386,-0.30952 13.2643,-0.44219 3.6698,-0.13266 9.5061,-0.30952 13.0432,-0.44219 8.5334,-0.30941 17.4205,-0.61894 24.9812,-0.88427 3.4045,-0.13256 9.2407,-0.30953 12.9548,-0.44209 3.6699,-0.13266 9.7714,-0.30952 13.4854,-0.44219 7.8702,-0.30952 16.4035,-0.57475 25.9539,-0.84008 3.7582,-0.13257 7.4722,-0.26523 8.1796,-0.35371 1.1938,-0.13267 1.3265,0 1.1938,0.97275 -0.044,0.61894 -0.2211,2.21074 -0.3094,3.5371 -0.177,2.56445 -0.3096,4.20044 -1.2823,15.69611 -0.1327,1.45914 -0.3095,3.75825 -0.4421,5.08472 -0.3095,3.31605 -0.619,7.16268 -0.8844,10.6114 -0.088,1.5918 -0.3094,3.9794 -0.4422,5.30575 -0.1325,1.32647 -0.3094,3.71407 -0.442,5.30576 -0.2211,2.96235 -0.4864,6.41107 -0.8401,10.61151 -0.1327,1.32636 -0.3536,3.71395 -0.4422,5.30565 -0.1326,1.5918 -0.3536,3.97929 -0.4863,5.30575 -0.5747,6.49955 -0.9286,10.6557 -1.3265,15.47507 -0.221,2.96235 -0.4863,6.41108 -0.8401,10.61141 -0.1325,1.32646 -0.3537,3.71406 -0.442,5.30575 -0.1327,1.5917 -0.3539,3.97929 -0.4422,5.30576 -0.1326,1.32646 -0.3537,3.71395 -0.4421,5.30575 -0.1327,1.5917 -0.3538,3.97929 -0.4864,5.30565 -0.1327,1.32646 -0.3095,3.62558 -0.398,5.08471 -0.1326,1.45903 -0.3095,3.84662 -0.4421,5.30576 -0.1326,1.45902 -0.3537,3.75824 -0.4864,5.0846 -0.1325,1.32647 -0.3095,3.71406 -0.442,5.30576 -0.2654,3.71406 -0.5748,7.56068 -0.8843,10.61151 -0.2653,3.00653 -0.5749,6.89745 -0.8401,10.39036 -0.4422,5.79202 -0.8843,11.05359 -1.3265,15.69611 -0.1326,1.32636 -0.3537,3.71395 -0.4863,5.30576 -0.088,1.59169 -0.3096,4.06766 -0.4421,5.52679 -0.2654,2.60864 -0.4422,4.77509 -0.8843,10.39036 -0.1328,1.5917 -0.2211,3.71396 -0.2211,4.7309 0,1.01694 -0.3096,2.47608 -0.7075,3.1835 -0.3979,0.84008 -0.4863,1.41483 -0.221,1.59169 0.7074,0.44219 0.5306,1.98959 -0.2211,1.98959 -0.398,0 -0.7959,-0.26523 -0.8843,-0.53056 z"
       id="path10"
       inkscape:connector-curvature="0" />
    <path
       d="m 1780.5395,347.88987 c 0.044,-1.28217 0.3095,-3.71395 0.6191,-5.34994 0.3095,-1.63588 0.398,-3.09501 0.1768,-3.22768 -0.5306,-0.30942 -0.4421,-2.38749 0.088,-2.38749 0.7517,0 1.3266,-1.9897 2.4761,-8.62181 0.5748,-3.40454 1.4591,-7.95869 1.9455,-10.16932 0.4862,-2.16655 1.3705,-6.85326 1.9896,-10.39047 0.619,-3.5371 1.4148,-7.8701 1.7685,-9.59446 0.8401,-4.02358 1.7687,-8.75448 2.476,-12.51272 0.2653,-1.5917 0.8844,-4.77509 1.3706,-7.07431 0.4864,-2.29911 1.0171,-5.48261 1.2381,-7.0743 0.2211,-1.5917 0.5748,-3.58139 0.84,-4.42137 0.5749,-2.12237 1.4148,-6.36689 1.8129,-9.28505 0.1768,-1.32646 0.5748,-3.31616 0.84,-4.42148 0.2211,-1.10532 0.6633,-3.09501 0.8843,-4.42148 0.3537,-2.07807 0.8401,-4.59823 2.476,-13.04318 0.1327,-0.70742 0.5305,-2.96235 0.8401,-4.90786 0.3537,-1.98959 0.7075,-3.80244 0.8842,-4.06766 0.1327,-0.22115 0.4422,-1.68018 0.7076,-3.22769 0.4421,-2.82968 1.5032,-8.48914 2.8297,-15.20973 0.3978,-1.94552 0.8842,-4.73101 1.1053,-6.19003 0.221,-1.45914 0.619,-3.53721 0.8843,-4.64253 0.7958,-3.5372 2.3875,-11.62834 2.9624,-15.03288 1.238,-7.33964 1.9454,-11.05359 3.0065,-16.1383 0.6191,-2.91816 1.4149,-7.20698 1.8129,-9.50609 0.3537,-2.29911 0.9726,-5.48261 1.3263,-7.0743 0.3537,-1.5917 1.017,-5.04042 1.5034,-7.73754 0.4863,-2.65282 1.4148,-7.33953 2.0338,-10.34617 0.7075,-3.49292 0.9727,-5.65947 0.7075,-5.9247 -0.2654,-0.26533 -4.9079,-0.22115 -12.7338,0.0884 -22.1957,0.97264 -32.0555,1.37065 -43.2417,1.81273 -6.0574,0.22115 -15.8288,0.61905 -21.665,0.88428 -9.5061,0.398 -22.9916,0.97275 -37.3613,1.5475 -2.7854,0.0884 -12.6452,0.48638 -21.8861,0.88439 -9.2407,0.35371 -23.3452,0.97264 -31.3922,1.32635 -8.0028,0.35371 -19.6754,0.84009 -25.8655,1.10543 -6.19,0.22104 -15.4307,0.66312 -20.5596,0.88427 -5.0848,0.26523 -17.5532,0.75161 -27.634,1.10532 -10.081,0.3979 -22.3284,0.88427 -27.1919,1.10542 -4.8637,0.26523 -18.968,0.83998 -31.3923,1.32636 -12.38,0.48638 -29.0931,1.14961 -37.14,1.54751 -8.0029,0.35371 -19.5429,0.84009 -25.6445,1.10542 -6.0574,0.26523 -15.3423,0.66323 -20.5596,0.88428 -5.2173,0.22104 -14.8561,0.61893 -21.4441,0.88427 -6.5437,0.26523 -15.9171,0.66323 -20.7807,0.88428 -4.8636,0.22104 -14.9887,0.61904 -22.5493,0.88427 -7.5165,0.26534 -14.5907,0.57486 -15.6962,0.70742 -1.1054,0.0884 -7.7375,0.398 -14.8118,0.61905 -7.0301,0.26522 -16.8899,0.66323 -21.8861,0.88427 -4.9963,0.22104 -14.414,0.61905 -20.9135,0.88427 -6.5437,0.22105 -16.3151,0.66324 -21.665,0.88428 -5.3942,0.26534 -14.7677,0.66323 -20.8692,0.88427 -6.0574,0.26534 -15.4308,0.66324 -20.7808,0.88439 -5.35,0.26522 -14.5908,0.61893 -20.5597,0.88427 -19.4986,0.70742 -23.5664,0.88427 -32.2766,1.32636 -4.7309,0.22115 -14.5908,0.61904 -21.8861,0.88427 -7.2953,0.26534 -14.635,0.57486 -16.3593,0.70753 -1.6802,0.13256 -8.1797,0.3979 -14.3697,0.66313 -6.19,0.22114 -13.3527,0.53056 -15.9172,0.61904 -5.5269,0.26534 -21.4882,0.92846 -37.3612,1.54751 -6.3226,0.22104 -13.5738,0.57475 -16.1383,0.70742 -4.6425,0.22104 -16.094,0.66323 -36.919,1.45913 -6.0574,0.22104 -12.8221,0.53057 -15.0329,0.70742 -3.5372,0.22104 -15.9613,0.75161 -48.4148,1.98959 -5.2173,0.22104 -14.36965,0.57486 -20.33864,0.84009 -22.99146,1.01694 -32.89544,1.41484 -43.32999,1.85703 -5.96899,0.22104 -15.51927,0.61894 -21.22303,0.84009 -5.70365,0.26523 -13.48537,0.53056 -17.24362,0.66323 -3.75814,0.13256 -10.43455,0.44208 -14.81173,0.66313 -11.23045,0.61904 -13.397,0.70742 -52.17306,2.21074 -5.57098,0.22104 -12.64529,0.53056 -15.69611,0.66323 -11.23045,0.53056 -36.2558,1.59169 -42.66687,1.76855 -3.62569,0.13267 -10.39036,0.44219 -15.03288,0.66323 -8.48925,0.44219 -11.76101,0.57475 -32.05557,1.28228 -6.18992,0.22104 -15.3423,0.61894 -20.33864,0.88427 -4.99612,0.26523 -14.41384,0.70742 -21.00176,0.92847 -6.54374,0.26533 -16.22668,0.66323 -21.44396,0.88427 -5.21738,0.22115 -14.76765,0.61905 -21.22302,0.88427 -6.45525,0.26534 -16.09401,0.66324 -21.44395,0.88428 -5.34994,0.22115 -14.5908,0.61905 -20.55968,0.88438 -12.42424,0.48627 -37.98026,1.54751 -52.83629,2.21063 -5.57098,0.26534 -15.3424,0.66324 -21.66499,0.88439 -6.3227,0.26522 -18.26057,0.7516 -26.52867,1.10531 -8.2681,0.35371 -22.50519,0.97276 -31.61327,1.32647 -9.10819,0.35371 -20.86931,0.88427 -26.08659,1.10531 -5.21728,0.22105 -12.68951,0.53057 -16.58039,0.66324 -3.89086,0.13267 -10.65567,0.44208 -15.0329,0.70742 -4.37722,0.22104 -13.44118,0.61904 -20.11755,0.84008 -6.67638,0.22105 -16.44777,0.61894 -21.66507,0.88428 -11.14203,0.48638 -25.33486,1.06113 -47.75157,1.9897 -14.50233,0.57475 -23.21257,0.97265 -57.47874,2.43178 -5.48259,0.22104 -15.0329,0.61894 -21.22292,0.88427 -6.19002,0.22105 -13.57382,0.53057 -16.35934,0.66324 -2.78551,0.13256 -10.25774,0.39789 -16.5804,0.66323 -6.32266,0.22104 -13.39697,0.53056 -15.69611,0.66312 -2.29916,0.13267 -9.37346,0.4422 -15.69613,0.70742 -6.32265,0.22115 -15.96141,0.61905 -21.44398,0.84009 -5.48259,0.22115 -14.90026,0.61905 -21.00185,0.88428 -6.05738,0.22115 -15.43084,0.61904 -20.78079,0.88438 -23.07992,1.01683 -32.276514,1.32636 -33.647167,1.06113 -2.299146,-0.44219 -1.856998,-1.37065 0.840077,-1.63599 15.16555,-1.68007 24.27372,-2.52016 29.26994,-2.74131 2.21072,-0.0884 6.58796,-0.35371 9.72718,-0.61893 3.18343,-0.26534 9.55031,-0.7959 14.14861,-1.14961 4.64251,-0.3979 10.69989,-0.88428 13.4854,-1.10532 2.78551,-0.26534 7.78173,-0.66323 11.0536,-0.88428 5.61523,-0.398 10.21354,-0.7959 21.88614,-1.76865 9.41767,-0.75161 27.8993,-2.29912 32.71867,-2.65283 2.69707,-0.22104 7.33959,-0.57475 10.39038,-0.84008 3.05079,-0.26534 8.62181,-0.66324 12.38004,-0.92846 3.75823,-0.26534 9.06396,-0.66324 11.71682,-0.88428 2.69708,-0.26534 7.33959,-0.66323 10.39038,-0.88438 5.17309,-0.3979 8.62182,-0.70742 20.55972,-1.81274 2.69707,-0.26533 5.57101,-0.48638 6.41109,-0.48638 1.90122,-0.0442 15.12132,-1.01694 25.86543,-1.90121 4.37722,-0.35371 11.93788,-0.97276 16.80148,-1.32647 4.86358,-0.35371 10.92096,-0.84009 13.48539,-1.10531 2.56443,-0.22105 7.33959,-0.61905 10.61146,-0.88428 3.27187,-0.26534 8.04703,-0.66323 10.61145,-0.88427 2.56445,-0.26534 8.71025,-0.75172 13.70647,-1.14961 9.81561,-0.75161 15.69613,-1.1938 24.31794,-1.90122 3.0508,-0.26534 8.53339,-0.66323 12.15897,-0.92846 3.66979,-0.22115 8.93131,-0.66324 11.71682,-0.88438 2.7855,-0.26523 7.56066,-0.66313 10.61146,-0.88428 3.05079,-0.22104 7.7375,-0.66323 10.39043,-0.88427 8.44496,-0.84009 14.85603,-1.28217 20.55968,-1.54751 3.05072,-0.13267 6.05736,-0.44208 6.7206,-0.70742 0.70742,-0.26523 1.68017,-0.3979 2.21074,-0.26523 0.53056,0.17686 2.96234,0.0884 5.43831,-0.13267 5.5268,-0.53056 18.87961,-1.63599 26.74971,-2.21074 3.27187,-0.22104 8.17973,-0.61904 10.83255,-0.88427 2.69712,-0.22104 7.56068,-0.66323 10.83255,-0.88428 3.27187,-0.26533 8.17962,-0.66323 10.83255,-0.88427 5.30565,-0.48638 12.95481,-1.06124 22.32823,-1.76866 3.27187,-0.26523 7.78173,-0.66312 9.94828,-0.88427 2.21074,-0.22104 7.64905,-0.61894 12.15891,-0.88428 4.50996,-0.26523 9.8599,-0.66323 11.93797,-0.88427 2.07808,-0.22104 6.63212,-0.61905 10.16932,-0.88428 8.79867,-0.61904 16.31506,-1.28227 20.78072,-1.76855 2.07807,-0.22114 7.73754,-0.66323 12.6011,-0.92856 4.86357,-0.26523 9.28505,-0.66324 9.81561,-0.92847 0.53057,-0.26533 1.50332,-0.35371 2.21074,-0.22104 0.66323,0.17686 3.22758,0.0884 5.65947,-0.13267 4.59833,-0.44219 21.93033,-1.90121 31.61327,-2.65293 3.05083,-0.22104 7.91439,-0.61893 10.83255,-0.88427 2.91816,-0.26523 7.91439,-0.66323 11.05359,-0.88428 3.18339,-0.22104 8.04706,-0.61893 10.83255,-0.88427 2.7855,-0.22104 7.8701,-0.61905 11.27464,-0.88427 3.40454,-0.26534 8.26821,-0.66324 10.83255,-0.88428 2.56445,-0.22115 8.84285,-0.66323 13.92757,-1.06113 5.1289,-0.35371 11.58415,-0.88438 14.36965,-1.10542 2.7856,-0.26523 7.78172,-0.66324 11.05359,-0.92846 3.27187,-0.26534 8.17973,-0.66324 10.83255,-0.88428 12.95481,-1.10542 16.97829,-1.41495 24.53908,-2.03388 4.50974,-0.35371 9.59446,-0.70742 11.27463,-0.7959 1.72436,-0.0884 5.48261,-0.35371 8.40066,-0.61894 4.59834,-0.39801 21.93044,-1.81285 30.06588,-2.43178 1.45902,-0.13267 6.45525,-0.53068 11.05359,-0.92857 24.89268,-2.03389 28.7393,-2.3433 36.25579,-2.91816 3.66977,-0.26523 8.31229,-0.66324 10.39047,-0.88428 2.07807,-0.22104 5.96888,-0.53056 8.62181,-0.66323 2.69702,-0.17686 6.85317,-0.44208 9.28495,-0.70742 2.43178,-0.22104 7.03012,-0.57475 10.16932,-0.84009 3.18339,-0.22104 10.52303,-0.84009 16.35935,-1.32636 5.83632,-0.48637 13.39689,-1.10542 16.80143,-1.32646 3.40457,-0.22104 8.66597,-0.61905 11.71687,-0.84009 3.0508,-0.26523 8.2239,-0.70742 11.4957,-0.97276 3.2718,-0.22104 8.047,-0.61893 10.6114,-0.83998 2.5645,-0.22114 8.5335,-0.70752 13.2644,-1.10542 4.731,-0.35371 10.9209,-0.84009 13.7065,-1.10532 2.7855,-0.22114 7.7817,-0.61904 11.0536,-0.88427 5.6595,-0.44219 9.9041,-0.75171 21.8861,-1.76866 2.9182,-0.22104 8.0913,-0.61894 11.4957,-0.88427 3.4045,-0.26523 8.0029,-0.66323 10.1694,-0.88428 2.2107,-0.22104 6.19,-0.53056 8.8429,-0.66323 2.697,-0.17685 7.9586,-0.53056 11.7167,-0.88427 3.7583,-0.30953 9.5504,-0.84009 12.8223,-1.10532 3.2718,-0.26534 9.6387,-0.7959 14.1486,-1.14961 4.5098,-0.3979 12.159,-0.97276 17.0225,-1.32647 10.1252,-0.7516 16.9783,-1.23798 25.2022,-1.9454 3.1834,-0.26523 8.3565,-0.66323 11.4957,-0.88427 3.1835,-0.22105 6.3669,-0.53057 7.0744,-0.66324 0.7516,-0.13266 4.1119,-0.44208 7.5164,-0.66323 6.2785,-0.3979 18.6143,-1.37065 28.2972,-2.21074 5.8364,-0.48627 12.6896,-1.01683 22.1072,-1.76855 3.4046,-0.26523 8.1798,-0.66323 10.6115,-0.88427 2.4318,-0.26523 7.6934,-0.66324 11.7169,-0.88428 4.0234,-0.26533 8.8871,-0.66323 10.8325,-0.884273 1.9454,-0.221041 6.6321,-0.619046 10.3904,-0.884274 3.7582,-0.265336 10.2578,-0.795901 14.3696,-1.149611 4.1562,-0.35371 10.6115,-0.840088 14.3698,-1.061129 3.7582,-0.221042 8.7544,-0.619046 11.0536,-0.840088 2.2991,-0.265336 7.4722,-0.663233 11.4956,-0.928461 4.0236,-0.309523 8.6219,-0.707528 10.2578,-0.928569 1.636,-0.221042 4.2889,-0.397897 5.8806,-0.397897 1.5916,0 4.2445,-0.176855 5.8805,-0.442191 1.636,-0.221042 5.8363,-0.618938 9.3735,-0.840088 6.4111,-0.442089 18.6142,-1.37055 28.5182,-2.254932 5.9247,-0.48627 12.8665,-1.06113 22.1072,-1.768549 3.4046,-0.265229 8.1797,-0.663233 10.6115,-0.884275 2.4318,-0.265336 7.9143,-0.663233 12.1589,-0.928461 4.2447,-0.22115 8.0471,-0.530565 8.4008,-0.619046 0.3537,-0.132668 3.3603,-0.397897 6.6321,-0.663233 7.605,-0.530565 16.0057,-1.237984 22.7706,-1.812736 5.8804,-0.530565 10.5671,-0.884274 24.3178,-1.901217 5.1289,-0.35371 11.8938,-0.884274 15.033,-1.149611 3.1834,-0.265336 8.0469,-0.663233 10.8324,-0.884274 5.3501,-0.397897 13.1318,-1.016943 21.6651,-1.768549 2.7855,-0.265337 8.9755,-0.751714 13.7064,-1.105424 11.3191,-0.884275 18.4375,-1.414839 25.2023,-2.033886 6.1901,-0.530564 10.8326,-0.884274 25.2022,-1.901217 5.4826,-0.397896 10.5673,-0.795793 11.3632,-0.928461 0.7516,-0.132668 3.9351,-0.442191 7.0743,-0.663233 5.8805,-0.442083 13.397,-1.061129 22.4609,-1.812736 5.3942,-0.486378 8.4006,-0.707419 24.5389,-1.901217 4.9964,-0.35371 11.6727,-0.884382 14.8119,-1.149611 3.1835,-0.265336 8.2681,-0.663232 11.3631,-0.884274 3.095,-0.221042 6.2784,-0.486378 7.0743,-0.663233 0.7959,-0.132668 4.333,-0.442191 7.8702,-0.663233 3.5371,-0.221041 11.2746,-0.840087 17.2436,-1.326465 5.9689,-0.486271 13.4411,-1.105317 16.5804,-1.326358 3.1834,-0.265337 8.1354,-0.663233 11.0536,-0.884275 2.9182,-0.265336 7.9144,-0.619046 11.0536,-0.884382 3.1834,-0.221042 6.3669,-0.530565 7.0743,-0.618938 0.7516,-0.132668 4.9962,-0.442191 9.5061,-0.70742 4.5099,-0.265336 9.683,-0.619046 11.4958,-0.840088 1.8127,-0.265336 6.411,-0.663233 10.1693,-0.928461 3.7581,-0.265336 8.8428,-0.663233 11.2746,-0.884382 7.1628,-0.618939 15.4751,-1.282171 22.3284,-1.768549 3.537,-0.221042 9.8155,-0.70742 13.9275,-1.06113 4.1562,-0.35371 10.302,-0.840087 13.7064,-1.105316 8.4892,-0.663233 21.621,-1.768657 26.9708,-2.255035 9.2408,-0.884274 18.7469,-1.459026 19.4102,-1.193689 1.1054,0.442083 0.84,2.166445 -0.7959,5.747838 -0.7958,1.812736 -2.2108,5.040418 -3.1392,7.206972 -0.8843,2.166445 -1.8128,4.332999 -2.0339,4.819377 -2.2108,5.084605 -2.5644,6.190029 -2.3433,7.11849 0.2211,0.795901 0.088,1.06113 -0.4422,1.06113 -0.6633,0 -4.4656,7.33964 -5.6152,10.965219 -0.3095,0.884275 -0.9727,2.520156 -1.5033,3.62558 -0.5748,1.105316 -1.9896,4.288817 -3.1392,7.074309 -1.1495,2.785492 -2.3434,5.482612 -2.6971,5.968882 -0.3096,0.48638 -0.5748,1.14961 -0.5748,1.50332 0,0.57475 -0.4864,1.68017 -3.095,7.33964 -3.493,7.4722 -5.0846,11.71682 -4.3773,11.71682 0.2212,0 0.398,0.30942 0.398,0.66313 0,0.35371 -0.3537,0.66323 -0.7517,0.66323 -0.4864,0 -1.1053,0.66324 -1.5474,1.68018 -0.398,0.88427 -1.4591,3.18339 -2.2991,5.04042 -0.8844,1.85703 -1.6802,3.97929 -1.8572,4.64252 -0.1767,0.66323 -0.6631,1.90122 -1.1495,2.69712 -0.4863,0.7516 -0.6632,1.41484 -0.3979,1.41484 0.2653,0 0.4863,0.48637 0.4863,1.10531 0,1.14961 -1.0611,1.54751 -1.459,0.57486 -0.1769,-0.398 -0.2653,-0.35371 -0.2653,0.0884 -0.044,0.3537 -0.3538,1.28217 -0.7516,1.98959 -1.5476,2.91816 -3.2719,7.82601 -3.2719,9.28504 0,1.10542 -0.1769,1.54751 -0.7074,1.54751 -0.3979,0 -1.0613,0.88427 -1.5917,2.12226 -0.4864,1.14961 -1.4149,3.18349 -1.9897,4.50996 -0.6191,1.32636 -1.3707,3.18339 -1.7244,4.11185 -0.3095,0.88438 -0.8843,2.29922 -1.238,3.09501 -0.3537,0.75172 -1.7685,4.02359 -3.1835,7.16279 -1.3706,3.18339 -2.9623,6.72059 -3.5371,7.91439 -0.5747,1.23798 -1.0611,2.38759 -1.0611,2.60864 0,0.17685 -0.5307,1.50332 -1.1496,2.87397 -2.0781,4.46556 -4.1562,9.28493 -4.1562,9.55027 0,0.13267 -0.619,1.50332 -1.3264,3.00653 -1.4149,2.87398 -3.7583,8.40077 -5.0847,11.8495 -0.3979,1.10542 -0.8843,2.21074 -1.1054,2.43178 -0.1768,0.26534 -1.0611,2.12237 -1.9012,4.20044 -0.8401,2.07807 -2.2549,5.43831 -3.1834,7.51639 -0.8842,2.07807 -2.1223,5.04042 -2.6971,6.58792 -0.5747,1.54751 -1.238,3.05083 -1.5033,3.36035 -0.221,0.26523 -0.7073,1.28217 -1.0611,2.25493 -0.3095,0.92846 -1.5033,3.62558 -2.5644,5.92469 -1.1054,2.29922 -3.3161,7.38383 -4.9521,11.27475 -1.6358,3.8908 -4.2002,9.77131 -5.6594,13.04318 -1.459,3.27187 -2.8738,6.58803 -3.1392,7.29545 -0.2653,0.75161 -1.1496,2.78549 -1.9455,4.55404 -0.9726,2.12226 -1.3706,3.5814 -1.1937,4.28882 0.1768,0.70742 0.044,1.06113 -0.4422,1.19379 -0.9284,0.17686 -4.2003,7.20698 -12.0705,25.99811 -1.0611,2.56434 -2.2107,5.17308 -2.5645,5.83621 -0.3537,0.61904 -0.6632,1.37065 -0.6632,1.63599 0,0.26522 -0.6189,1.72436 -1.3706,3.22768 -0.7516,1.54751 -2.1223,4.68671 -3.0508,6.98582 -1.3706,3.31606 -1.5918,4.24463 -1.1054,4.333 0.3537,0.0884 0.6632,0.44219 0.6632,0.7959 0,0.75161 -1.3264,0.84009 -1.3264,0.0884 -0.044,-1.10531 -5.6152,11.31893 -6.0574,13.39701 -0.1768,0.97264 -0.4862,1.28217 -1.2822,1.28217 -0.9727,0 -1.0612,-0.17686 -1.0612,-2.29912 z"
       id="path12"
       style="fill:#ff0000"
       inkscape:connector-curvature="0" />
    <path
       d="m 785.80363,313.71215 c -1.28217,-0.22104 -2.47597,-0.66323 -2.65282,-0.92846 -0.17686,-0.22115 -1.23798,-0.7959 -2.3876,-1.23809 -1.19379,-0.44209 -2.12225,-1.06113 -2.12225,-1.37055 0,-0.35382 -0.57486,-1.01694 -1.28218,-1.50332 -2.07818,-1.50332 -3.36035,-4.95204 -3.31616,-9.10819 0.0442,-4.333 1.23798,-7.78172 3.71406,-11.09778 0.97265,-1.28228 1.76855,-2.52026 1.76855,-2.78549 0,-0.22115 -0.88427,-0.92857 -1.9897,-1.54751 -1.10531,-0.66323 -1.98959,-1.37065 -1.98959,-1.5475 0,-0.57486 -1.72436,-0.88439 -1.90122,-0.35371 -0.26522,0.88427 -1.63599,-0.0884 -1.63599,-1.14962 0,-0.61904 -0.30941,-1.32646 -0.66312,-1.63598 -0.35382,-0.30942 -0.66334,-0.84009 -0.66334,-1.14951 0,-0.35371 -0.44208,-0.84008 -1.01684,-1.10542 -0.61904,-0.26523 -1.45902,-1.54751 -2.29911,-3.62558 -1.23809,-3.00653 -1.32646,-3.5371 -1.28228,-8.71018 0.0442,-4.95205 0.17686,-5.79214 1.1938,-7.95858 1.10532,-2.3876 3.44872,-5.30576 4.24452,-5.30576 0.22115,0 0.66334,-0.57486 1.01705,-1.32646 0.39779,-0.97276 0.88427,-1.32647 1.68007,-1.32647 0.66323,0 1.81284,-0.48627 2.56445,-1.06113 1.19379,-0.88427 4.24451,-1.72436 7.16278,-2.03388 6.3227,-0.61894 12.42425,-0.17686 16.04983,1.14961 4.02347,1.50332 4.55404,1.76855 6.14584,3.00664 1.32636,0.97265 1.9454,1.19369 2.87386,0.92846 1.81274,-0.44219 2.3876,-1.06113 2.07808,-2.25493 -0.22115,-0.92857 -0.13257,-1.06113 0.97275,-1.06113 0.70742,0 2.47597,-0.61904 3.935,-1.32646 2.69711,-1.32647 4.20043,-1.63588 4.20043,-0.92846 0,0.22104 0.70742,1.1495 1.54751,1.98959 0.84009,0.88427 1.54751,1.85703 1.54751,2.16655 0,0.30952 0.3979,0.79579 0.88427,1.10532 0.48627,0.30952 0.88428,0.84008 0.88428,1.19379 0,0.35371 0.26533,0.66324 0.61904,0.66324 0.79591,0 1.50322,3.62558 0.75161,3.8908 -0.26523,0.0884 -0.48638,0.4422 -0.48638,0.79591 0,0.3537 -0.44219,0.61904 -1.06113,0.61904 -0.61894,0 -1.23798,0.22104 -1.37065,0.44208 -0.17685,0.26534 -1.01694,0.97276 -1.90122,1.54751 -0.92846,0.57486 -2.12236,1.45914 -2.69711,1.90122 l -1.10532,0.88427 1.59169,3.44873 c 0.88428,1.94551 2.03389,5.04052 2.56445,6.89745 0.84009,2.87397 0.92846,3.5372 0.44219,4.11195 -0.35381,0.39801 -0.97275,0.61905 -1.41483,0.53057 -0.4422,-0.13256 -2.91827,0.26534 -5.48261,0.84009 -2.60875,0.57486 -4.86357,1.06113 -4.99624,1.06113 -0.17685,0 -0.57486,-1.01695 -0.88427,-2.21064 -0.30952,-1.23809 -0.92857,-2.65293 -1.32647,-3.13931 l -0.7516,-0.92846 -1.1938,1.54751 c -0.66334,0.88428 -1.1938,1.72436 -1.1938,1.85703 0,0.17686 -0.7959,1.1938 -1.72436,2.25493 -1.10532,1.23798 -1.63599,2.25492 -1.50332,2.78549 0.13267,0.57475 -0.0884,0.88427 -0.84009,1.10532 -0.97265,0.26533 -0.97265,0.30952 0.53057,1.23809 0.84008,0.53056 2.25492,1.72436 3.1392,2.65282 0.84009,0.92846 1.90132,1.68018 2.29922,1.68018 0.3979,0 0.75161,0.30941 0.75161,0.66312 0,0.39801 0.48637,1.14961 1.10542,1.72436 0.61894,0.57486 1.10532,1.50332 1.10532,2.16656 0,0.61904 0.26522,1.1938 0.57475,1.32646 0.398,0.13256 0.53056,1.50322 0.44219,5.26146 -0.0442,4.59834 -0.17696,5.26157 -1.14961,6.80908 -0.57475,0.97265 -1.5917,2.16644 -2.25493,2.69701 -0.61894,0.57486 -1.14961,1.1938 -1.14961,1.41495 0,0.66312 -4.46556,3.00653 -6.41107,3.36024 -2.74131,0.53056 -11.67264,0.53056 -14.28128,0 z m 9.81561,-9.94828 c 0.61905,-0.22104 1.14961,-0.70742 1.14961,-1.10531 0,-0.35371 0.26523,-0.66324 0.57475,-0.66324 1.68018,0 1.90133,-4.77519 0.22115,-5.17308 -0.44219,-0.13267 -0.7959,-0.48638 -0.7959,-0.7959 0,-0.61894 -2.91816,-3.75814 -3.5371,-3.75814 -0.17696,0 -0.26533,0.39789 -0.13266,0.88427 0.17685,0.61894 0,0.88428 -0.48638,0.88428 -0.39801,0 -0.70753,-0.17686 -0.70753,-0.4422 0,-0.22104 -0.17675,-0.44208 -0.44208,-0.44208 -0.22104,0 -0.44219,0.48638 -0.44219,1.06113 0,0.70742 -0.30942,1.1938 -0.84009,1.37065 -0.79579,0.22104 -2.69701,3.40454 -2.69701,4.46567 0,0.22104 0.3979,0.70742 0.88427,1.06113 0.48638,0.35371 0.88428,0.97275 0.88428,1.41484 0,1.32646 4.11195,2.12226 6.36688,1.23798 z m -6.80897,-29.00463 c 0,-0.3979 0.57476,-1.37066 1.28218,-2.12226 3.75824,-4.02348 4.37718,-4.731 4.6867,-5.43842 0.22115,-0.44209 0.30953,-1.14951 0.26534,-1.54751 -0.0442,-0.44209 0.26523,-0.79579 0.92846,-0.88428 0.61905,-0.0884 1.06113,-0.48637 1.14961,-1.06113 0.0884,-0.53056 0.66324,-1.19379 1.32647,-1.50332 1.1495,-0.53056 1.1495,-0.53056 0.30941,-1.19379 -3.53709,-2.60864 -8.31229,-4.28871 -11.0093,-3.84662 -2.03388,0.3537 -6.05736,2.43178 -6.27851,3.22768 -0.13266,0.39789 -0.53056,1.28217 -0.88427,1.9454 -0.92846,1.90122 -0.7959,5.17309 0.3979,7.29535 1.06123,1.94551 3.84672,5.1289 4.77519,5.52679 1.37065,0.53068 3.05082,0.30953 3.05082,-0.39789 z"
       id="path14"
       inkscape:connector-curvature="0" />
    <path
       d="m 65.90453,299.12135 0,-8.40066 40.72148,0.13256 c 30.77323,0.0884 40.89834,0 41.3847,-0.3979 0.44214,-0.39789 0.57479,-1.32636 0.48636,-3.22768 l -0.13264,-2.69701 -41.25206,0 -41.20784,0 0,-19.54284 0,-19.58693 41.73841,0 c 24.49479,0 41.87106,0.17686 42.0037,0.3979 0.13264,0.22104 0.66322,0.30952 1.14958,0.17685 0.44214,-0.13266 2.29915,0.22115 4.06772,0.7959 1.76858,0.53057 3.58137,0.92847 4.02352,0.88428 0.44214,-0.0442 0.75163,0.17685 0.75163,0.61905 0,0.44208 0.70744,1.01683 1.72437,1.45902 1.41487,0.61905 1.81279,1.06113 2.03386,2.21074 0.13265,0.75161 0.39793,1.41484 0.5748,1.41484 0.17685,0 0.70743,0.66323 1.14956,1.50332 0.66322,1.28217 0.79587,2.60864 0.84008,9.19656 0,4.24463 -0.13264,7.95858 -0.35371,8.31229 -0.22107,0.35371 -0.39794,1.06113 -0.44215,1.50332 0,0.66324 -0.53057,1.01695 -2.12229,1.41484 -2.82973,0.70742 -3.00659,0.97276 -0.79586,1.32647 1.32643,0.22104 1.81279,0.48638 1.81279,1.10531 0,0.4422 0.39793,0.88428 0.88429,1.06124 0.53057,0.17686 0.88429,0.66313 0.88429,1.23799 0,0.53056 0,4.55404 0.0442,8.97552 0.0442,7.25116 -0.0442,8.13543 -0.84009,9.77131 -0.53056,0.97276 -1.41486,2.07807 -2.03385,2.52026 -0.619,0.3979 -1.14958,1.06113 -1.14958,1.50332 0,0.75161 -0.70743,1.10532 -6.32266,3.49292 l -2.52022,1.06113 -43.55121,0.0884 -43.55119,0.0884 0,-8.40077 z m 82.1946,-30.90585 c 0.30951,-0.35371 0.48637,-1.5917 0.39794,-2.78549 l -0.13264,-2.12226 -32.01125,-0.13267 c -23.25677,-0.0442 -32.18808,0.0442 -32.58602,0.3979 -0.61901,0.53056 -0.88429,4.42148 -0.30951,4.95204 0.13265,0.17686 14.63498,0.30952 32.1881,0.30952 27.10344,0 32.01124,-0.0884 32.45338,-0.61904 z"
       id="path16"
       inkscape:connector-curvature="0" />
    <path
       d="m 286.53447,299.12135 0,-8.40066 40.72148,0.13256 c 30.77323,0.0884 40.89834,0 41.3847,-0.3979 0.44215,-0.39789 0.57479,-1.32636 0.48635,-3.22768 l -0.13263,-2.69701 -41.25206,0 -41.20784,0 0,-19.54284 0,-19.58693 8.62181,0 8.62181,0 0.0885,11.62835 0.13264,11.58426 22.19565,0 22.19563,0 1.98965,-1.94551 c 1.06114,-1.06113 2.03386,-2.47597 2.16651,-3.1392 0.17685,-0.84009 0.61899,-1.32647 1.37064,-1.50332 0.619,-0.13256 1.45908,-0.84009 1.85701,-1.54751 0.44213,-0.70742 1.238,-1.54751 1.81279,-1.85692 0.57478,-0.30952 1.01693,-0.7959 1.01693,-1.10543 0,-0.30952 0.48635,-0.92846 1.10536,-1.41483 0.619,-0.48638 1.10536,-1.10532 1.10536,-1.37066 0,-0.26533 0.619,-0.88427 1.32643,-1.45902 0.75165,-0.53068 1.32643,-1.1938 1.32643,-1.50332 0,-0.30953 0.48636,-0.92857 1.10536,-1.41484 0.61901,-0.48638 1.10536,-1.06124 1.10536,-1.28228 0,-0.22104 0.48636,-0.88428 1.10536,-1.45903 0.619,-0.57486 1.10536,-1.28228 1.10536,-1.63599 0,-0.44208 1.63594,-0.57475 7.87016,-0.57475 4.28882,0 8.57761,-0.13267 9.50611,-0.26533 1.41486,-0.26523 1.63593,-0.17686 1.63593,0.57486 0,1.19379 -1.01693,3.22757 -1.59171,3.22757 -0.3095,0 -0.619,0.398 -0.75165,0.88438 -0.13265,0.48627 -0.66321,1.06113 -1.19379,1.23799 -0.48635,0.17685 -1.14958,0.7516 -1.45908,1.28217 -1.06115,1.81284 -4.24458,5.74784 -5.57101,6.89745 -0.75165,0.61904 -1.37064,1.41484 -1.37064,1.81284 0,0.35371 -0.61901,1.01694 -1.32644,1.45903 -0.75165,0.39789 -1.45908,1.10542 -1.59172,1.5475 -0.13264,0.4422 -0.70743,1.14961 -1.32643,1.50332 -0.57479,0.3979 -1.06115,1.06113 -1.06115,1.45903 0,0.398 -0.22107,0.97276 -0.48635,1.23798 -0.70743,0.70753 1.01693,1.50333 2.60864,1.1938 1.32644,-0.26523 6.63217,0.88438 7.33959,1.5918 0.26529,0.26523 0.79587,0.44209 1.23801,0.44209 0.44214,0 0.79586,0.22104 0.79586,0.44219 0,0.26523 0.22108,0.44208 0.48636,0.44208 0.57478,0 3.0508,2.56445 3.0508,3.13931 0,0.22104 0.17685,0.3979 0.39793,0.3979 1.06114,0 1.50328,3.58139 1.50328,12.51262 -0.0442,7.47231 -0.17685,9.32923 -0.70743,9.94827 -0.35372,0.3979 -0.79585,1.1938 -0.97271,1.76855 -0.17685,0.57486 -0.79587,1.1938 -1.37065,1.41495 -0.61899,0.26523 -1.23801,0.79579 -1.41486,1.28217 -0.48636,1.37065 -3.31608,3.00653 -6.4111,3.80244 -2.476,0.61904 -8.13544,0.70742 -45.98298,0.7959 l -43.1975,0.0884 0,-8.40077 z"
       id="path18"
       inkscape:connector-curvature="0" />
    <path
       d="m 496.06659,307.52212 c -0.13267,-0.0884 -4.42148,-0.22104 -9.59457,-0.22104 -5.43831,-0.0442 -9.37342,-0.22104 -9.37342,-0.48638 0,-0.22104 -0.30952,-0.3979 -0.66323,-0.3979 -0.79579,0 -0.88427,-1.14961 -0.0884,-1.50332 0.30952,-0.13266 -0.0884,-0.70742 -1.10532,-1.59169 -0.92857,-0.7959 -1.68017,-1.59169 -1.68017,-1.81284 0,-0.22105 -0.57476,-0.97265 -1.32647,-1.63589 -0.70742,-0.70741 -1.32636,-1.45913 -1.32636,-1.68017 0,-0.22104 -0.398,-0.66323 -0.88427,-0.97276 -0.48638,-0.30941 -0.88438,-0.83998 -0.88438,-1.19379 0,-0.35371 -0.53057,-0.97265 -1.14951,-1.41484 -0.61904,-0.3979 -1.32646,-1.1938 -1.54751,-1.76855 -0.22104,-0.57475 -0.66323,-1.01695 -0.97275,-1.01695 -0.30952,0 -0.88428,-0.61893 -1.23799,-1.41483 -0.35371,-0.79591 -1.23798,-1.72437 -2.03388,-2.07808 -1.01694,-0.48637 -1.41484,-0.97275 -1.32647,-1.5475 0.0442,-0.61905 -0.30941,-0.97276 -1.32635,-1.23799 -0.84009,-0.22115 -1.45914,-0.66323 -1.45914,-1.01694 0,-0.57475 -2.91816,-0.66323 -21.79766,-0.66323 -16.35935,0 -21.93033,0.13266 -22.32834,0.53056 -0.39789,0.3979 -0.53056,3.62558 -0.53056,11.71683 l 0,11.18626 -7.95858,0 -7.95858,0 0,-29.93321 c 0,-16.4919 -0.13263,-30.41947 -0.26528,-30.95004 l -0.26528,-1.01694 8.40077,0 c 8.09124,0 8.44495,0.0442 8.71018,0.88428 0.17686,0.53056 0.0884,1.19379 -0.17685,1.50332 -0.35371,0.39789 -0.48638,3.84662 -0.3979,10.69988 l 0.13267,10.12513 21.00176,0.13256 c 22.01881,0.13267 25.64439,0 25.64439,-1.01694 0,-0.30942 0.48638,-0.97265 1.06113,-1.45903 0.61905,-0.44219 1.23799,-1.32646 1.37065,-1.98969 0.17686,-0.61894 0.66324,-1.1938 1.14961,-1.32636 0.44209,-0.13267 0.84009,-0.53057 0.84009,-0.88428 0,-0.398 0.70742,-1.10542 1.54751,-1.63599 0.84009,-0.53056 1.54751,-1.19379 1.54751,-1.50332 0,-0.30941 0.39789,-0.92846 0.88427,-1.37065 0.48638,-0.44208 0.88428,-1.06113 0.88428,-1.37065 0,-0.30942 0.44219,-0.92846 1.01694,-1.37055 0.53056,-0.44219 0.92846,-1.14961 0.84009,-1.5475 -0.0884,-0.53068 0.13266,-0.7959 0.66323,-0.7959 0.92846,-0.0442 2.78549,-1.45914 2.78549,-2.16656 0,-0.26523 0.79579,-1.28217 1.72436,-2.25492 1.1938,-1.23799 1.63588,-2.03389 1.50322,-2.65283 -0.17686,-0.66323 0,-0.88427 0.66323,-0.88427 0.53056,0 1.06113,0.22104 1.1938,0.44208 0.17685,0.26534 3.5372,0.44219 8.71029,0.44219 l 8.40077,0 -0.26534,1.14961 c -0.30952,1.14951 -5.48261,7.69325 -6.10155,7.69325 -0.22115,0 -0.35371,0.48637 -0.35371,1.10542 0,0.70742 -0.26533,1.10532 -0.66323,1.10532 -0.35371,0 -0.66323,0.35371 -0.66323,0.7959 0,0.39789 -0.44219,0.97264 -0.97276,1.19379 -0.57475,0.26523 -1.28217,0.97265 -1.59169,1.68007 -0.30952,0.66323 -0.75161,1.1938 -1.01694,1.1938 -0.22105,0 -0.3979,0.398 -0.3979,0.88427 0,0.48638 -0.26534,0.88428 -0.61905,0.88428 -0.30952,0 -1.32646,0.88438 -2.21074,1.9897 -0.92846,1.10531 -1.45902,1.9897 -1.19379,1.9897 0.26533,0 0.48637,0.30941 0.48637,0.66312 0,0.398 -0.39789,0.66323 -1.01694,0.66323 -0.70742,0 -1.63588,0.70742 -2.87386,2.16656 -1.01695,1.19379 -1.85703,2.38759 -1.85703,2.65282 0,0.26534 -0.3979,0.66323 -0.88428,0.92857 -0.48638,0.26523 -0.88427,0.75161 -0.88427,1.10532 0,0.35371 -0.35371,0.84008 -0.75172,1.06112 -0.7516,0.4422 -0.7516,0.4422 0.0442,0.48638 0.57486,0 0.75171,0.22104 0.57486,0.88428 -0.13267,0.44219 0.0442,1.06113 0.3979,1.37065 0.3537,0.26534 0.61893,0.7959 0.61893,1.10532 0,0.35381 0.26534,0.61904 0.61905,0.61904 0.35371,0 0.75161,0.3979 0.92846,0.84009 0.13267,0.48638 0.66323,1.01694 1.14961,1.14961 0.44219,0.17686 0.84009,0.57475 0.84009,0.92846 0,0.35371 0.22104,0.61905 0.44219,0.61905 0.26523,0 0.44208,0.30941 0.44208,0.70742 0,0.39789 0.48638,1.10531 1.10543,1.59169 0.61894,0.48638 1.10531,1.10532 1.10531,1.45903 0,0.30952 0.48638,0.88427 1.10532,1.28228 0.61905,0.39789 1.10542,0.92846 1.10542,1.1495 0,0.22115 1.10532,1.50332 2.43179,2.87397 1.32646,1.41484 2.43178,2.78549 2.43178,3.1392 0,0.30953 0.39789,0.7959 0.88427,1.06113 0.48638,0.26534 0.88428,0.75172 0.88428,1.10543 0,0.30952 0.61904,1.01694 1.32646,1.5475 0.75161,0.53057 1.32647,1.23799 1.32647,1.54751 0,0.35371 0.61894,0.97265 1.32636,1.41484 0.75171,0.3979 1.32646,1.06113 1.32646,1.45903 0,0.35381 0.3979,0.92857 0.88428,1.23809 1.01694,0.61894 1.19379,1.85692 0.30952,1.85692 -0.35371,0 -0.70742,-0.0884 -0.7959,-0.22104 z"
       id="path20"
       inkscape:connector-curvature="0" />
    <path
       d="m 631.1417,306.99156 c -3.05082,-0.75161 -6.80907,-2.47597 -6.80907,-3.09502 0,-0.30952 -0.26534,-0.57475 -0.61905,-0.57475 -0.48638,0 -3.09501,-2.60864 -4.64241,-4.68671 -0.84009,-1.06124 -1.06124,-3.84673 -1.06124,-11.71683 l 0.0442,-8.2681 1.68017,-3.1392 c 0.92846,-1.72436 1.94551,-3.13931 2.29922,-3.13931 0.35361,0 1.5474,-0.48627 2.69701,-1.06113 2.47608,-1.28217 5.04042,-1.98959 8.35648,-2.3433 1.37065,-0.17685 16.9341,-0.35371 34.53154,-0.44219 23.16831,-0.0884 32.18813,-0.30952 32.63021,-0.66323 0.3979,-0.30952 0.57475,-1.1938 0.48638,-2.52016 l -0.13267,-2.03388 -41.47306,-0.13267 c -36.47695,-0.0884 -41.47318,-0.17686 -41.69422,-0.75161 -0.17696,-0.35371 -0.0442,-0.97275 0.26523,-1.32646 0.35371,-0.44219 0.48637,-2.78549 0.35371,-8.17973 l -0.13256,-7.56057 42.66686,0.13256 c 39.83719,0.13266 42.84372,0.22115 45.09876,0.92856 4.20033,1.41484 7.0743,2.91816 7.0743,3.75825 0,0.3979 0.61894,1.14951 1.37054,1.63588 2.7856,1.81285 3.93511,5.9247 3.93511,14.06024 0,5.96888 -0.70731,10.12502 -1.98959,12.07053 -0.48638,0.70742 -0.7959,1.54751 -0.70742,1.90122 0.0442,0.35371 -0.13267,0.79579 -0.48638,0.97265 -0.44219,0.30952 -0.3979,0.398 0.22104,0.398 0.3979,0 0.75161,0.30942 0.75161,0.66313 0,0.35382 -0.3979,0.66323 -0.88428,0.66323 -0.48627,0 -0.88427,-0.26523 -0.88427,-0.61894 0,-0.70742 -1.1938,-1.28228 -1.54751,-0.70742 -0.3979,0.66313 -5.17309,2.25493 -7.29534,2.47597 -1.10532,0.13267 -17.33211,0.17686 -36.07894,0.17686 -29.35835,-0.0442 -34.13354,0.0442 -34.61992,0.61904 -0.30952,0.3979 -0.48638,1.68007 -0.39789,3.44873 l 0.13266,2.78549 41.91516,0 41.87107,0 0,8.40066 0,8.40077 -42.44583,0 c -31.03852,0 -43.02057,-0.13267 -44.4796,-0.53056 z"
       id="path22"
       inkscape:connector-curvature="0" />
    <path
       d="m 877.7255,307.03574 c -2.25503,-0.48627 -5.83631,-2.16644 -6.32269,-2.96234 -0.13267,-0.26523 -1.10543,-0.44209 -2.07807,-0.3979 -1.32647,0.0442 -1.81285,-0.0884 -1.81285,-0.57475 0,-0.35382 0.30952,-0.66324 0.66323,-0.66324 0.35371,0 0.66324,-0.17685 0.66324,-0.44219 0,-0.22104 -0.35371,-0.44208 -0.75172,-0.44208 -0.53045,0 -1.28217,-1.01694 -2.3433,-3.1835 l -1.50332,-3.18338 -0.17685,-16.40354 c -0.13256,-10.96522 -0.0442,-17.42058 0.30952,-19.63122 0.53056,-3.44872 1.85703,-6.19003 3.89092,-8.04706 1.76854,-1.63598 5.43831,-3.80243 6.98582,-4.20033 0.75171,-0.17685 1.59169,-0.53056 1.9454,-0.7959 0.44219,-0.35371 12.82225,-0.48638 43.94916,-0.48638 l 43.33011,0 -0.044,8.84286 0,8.84296 -37.53807,0.22104 c -40.05824,0.22104 -39.39501,0.17685 -41.20775,2.34341 -0.30952,0.44208 -0.84008,0.7516 -1.10542,0.7516 -0.61894,0 -2.3876,1.90122 -3.22768,3.40454 -0.66324,1.1938 -0.7958,13.3969 -0.17675,13.3969 0.22104,0 0.53056,0.57485 0.70731,1.32646 0.22115,0.97276 0.70753,1.50332 2.03389,2.07807 0.92857,0.3979 1.72436,0.92857 1.72436,1.10543 0,0.57475 3.58139,2.12226 4.95204,2.12226 0.66324,0 1.32636,0.22104 1.45914,0.44208 0.17674,0.30952 12.46844,0.44219 35.37142,0.44219 22.90311,0 35.19471,-0.13267 35.37151,-0.44219 0.1327,-0.22104 0.6191,-0.44208 1.017,-0.44208 0.6632,0 0.7517,0.7516 0.619,8.48914 -0.088,4.68671 -0.2212,8.57762 -0.2653,8.62181 -0.044,0.0442 -19.0564,0.17686 -42.22482,0.22104 -28.87198,0.0884 -42.79944,0 -44.21428,-0.35371 z"
       id="path24"
       inkscape:connector-curvature="0" />
    <path
       d="m 988.4383,307.2126 c -2.1224,-0.44209 -5.969,-2.12226 -5.969,-2.60864 0,-0.22104 -0.3979,-0.3979 -0.8843,-0.3979 -0.5305,0 -1.4148,-0.53056 -1.9896,-1.19379 -0.8842,-1.01695 -1.0612,-1.10532 -1.1054,-0.44219 0,0.398 -0.3094,0.75171 -0.6631,0.75171 -0.5749,0 -0.9286,-1.59169 -0.7517,-3.1392 0.044,-0.17686 -0.3537,-0.22115 -0.7959,-0.0884 -0.619,0.17686 -0.8843,0 -0.8843,-0.48637 0,-0.39801 0.2212,-0.70742 0.4422,-0.70742 0.2653,0 0.1326,-0.61905 -0.2653,-1.37066 -0.619,-1.23798 -0.7075,-3.75824 -0.6632,-20.55978 0,-11.71672 0.1768,-19.85226 0.4421,-20.8692 0.2654,-0.92847 0.8843,-2.07808 1.4149,-2.56435 3.3161,-3.00664 4.2888,-4.24462 4.0235,-5.1289 -0.1768,-0.7959 -0.088,-0.88427 0.7517,-0.66323 0.5305,0.13267 2.4759,-0.30952 4.3771,-0.92846 l 3.4046,-1.1938 34.9293,0 34.9294,0 3.1835,1.01694 c 1.7244,0.53057 3.4488,1.28218 3.8467,1.63589 0.3537,0.35371 1.1496,0.66323 1.7686,0.66323 0.8843,0 1.1495,0.22104 1.1495,0.92846 0,1.23798 1.017,2.16655 2.0781,1.90122 0.7074,-0.22105 0.9285,0.0442 1.1496,1.10542 0.1769,0.75161 0.7074,1.81274 1.1938,2.3433 0.4864,0.53057 0.8843,1.5918 0.8843,2.29922 0.221,12.73377 -0.088,38.2012 -0.4422,39.52767 -0.4863,1.68017 -1.857,3.44872 -3.3603,4.333 -0.4422,0.26533 -0.7959,0.88427 -0.7075,1.32646 0.088,0.61894 -0.3979,1.06113 -1.7685,1.63588 -1.0612,0.3979 -2.0781,0.75172 -2.2992,0.75172 -0.221,0 -1.0169,0.48627 -1.7685,1.01683 -0.8843,0.70753 -2.0339,1.06124 -3.3604,1.14961 -6.5436,0.26534 -71.0083,0.22104 -72.2905,-0.0442 z m 60.1316,-17.11096 c 1.1938,-0.35371 2.8739,-1.01694 3.7582,-1.5475 0.8401,-0.53057 2.0781,-1.1938 2.6971,-1.45903 0.7074,-0.30952 1.5917,-1.41484 2.3434,-2.82979 1.0611,-2.12226 1.1496,-2.82968 1.1496,-7.51638 0,-3.66988 -0.1769,-5.5711 -0.619,-6.45537 -0.3537,-0.66323 -0.7516,-1.54751 -0.8843,-1.9454 -0.088,-0.3979 -0.7516,-1.06113 -1.4591,-1.41484 -4.5098,-2.43178 -5.6594,-2.96235 -6.4111,-2.96235 -0.4421,0 -0.7959,-0.13267 -0.7959,-0.30952 0,-0.22104 -11.0093,-0.26534 -24.4063,-0.13267 -20.5155,0.17685 -24.6275,0.30952 -25.556,0.88427 -6.8089,4.02348 -6.8532,4.06777 -6.8532,12.6011 0,5.26157 0.1327,6.45537 0.8843,8.04706 0.4864,1.01695 1.1053,1.90122 1.4148,1.90122 0.3096,0 0.7074,0.26523 0.8844,0.57475 0.4421,0.75172 3.3161,1.85703 5.7479,2.29922 1.0611,0.17686 1.9895,0.48627 2.1664,0.70742 0.398,0.66324 43.286,0.26523 45.9388,-0.44219 z"
       id="path26"
       inkscape:connector-curvature="0" />
    <path
       d="m 1095.7467,307.43375 -11.142,-0.13267 0.088,-8.09125 0.1325,-8.04706 7.2955,-0.13256 c 6.7205,-0.0884 7.3395,-0.17696 8.268,-1.06124 0.5747,-0.53056 1.0169,-1.10531 1.0169,-1.28217 0,-0.22104 0.3979,-0.84008 0.9285,-1.37065 1.1054,-1.23798 4.6868,-6.45526 5.2174,-7.64905 0.221,-0.48638 0.9284,-1.54751 1.5475,-2.3876 0.619,-0.84009 1.1496,-1.68017 1.1496,-1.85703 0,-0.17685 1.5032,-2.56445 3.3159,-5.30575 1.8129,-2.74131 3.3162,-5.08461 3.3162,-5.21728 0,-0.13267 0.3979,-0.7516 0.8843,-1.37065 0.4863,-0.61905 0.8842,-1.37065 0.8842,-1.72436 0,-0.30953 0.4422,-1.06113 1.017,-1.68018 0.5305,-0.61894 1.2823,-1.45902 1.6359,-1.85692 0.3537,-0.39801 1.2381,-1.90133 1.9897,-3.27187 0.7074,-1.41495 1.6801,-2.91816 2.078,-3.27187 0.4422,-0.398 0.7959,-0.97276 0.7959,-1.28228 0,-0.30952 0.4422,-1.10532 1.017,-1.81273 0.5305,-0.66324 1.1938,-1.63599 1.459,-2.12237 0.4421,-0.79579 1.0169,-0.88428 5.969,-1.01694 6.0573,-0.13256 7.4722,0.0442 7.4722,1.01694 0,0.75171 4.2888,7.64916 5.3499,8.62181 0.3979,0.35371 0.8843,1.32647 1.017,2.12237 0.1768,0.7516 0.4864,1.41484 0.6632,1.41484 0.1769,0 0.7074,0.7516 1.1938,1.63588 0.4422,0.92857 1.1495,2.03388 1.5475,2.47607 0.3979,0.44209 1.1053,1.50322 1.5475,2.43178 1.1053,2.12226 2.8297,4.06767 3.5813,4.06767 0.3538,0 0.5749,0.35371 0.4864,0.7959 -0.1326,0.92846 0.9284,3.58139 1.857,4.50985 0.3537,0.35371 1.0611,1.45914 1.5475,2.43178 0.4864,0.97276 1.238,2.12237 1.636,2.60864 0.4421,0.48638 0.8843,1.23809 1.061,1.68018 0.1328,0.44219 0.4423,0.7959 0.6634,0.7959 0.221,0 0.3979,0.30952 0.3979,0.66323 0,0.35371 0.1768,0.66313 0.3979,0.66313 0.221,0 0.5305,0.61904 0.7074,1.32646 0.1768,0.75161 0.4422,1.32647 0.619,1.32647 0.1769,0 0.619,0.48637 0.9285,1.10531 0.3095,0.61905 0.7517,1.10543 0.9727,1.10543 0.2211,0 0.3096,-9.55038 0.2653,-21.44406 l -0.1326,-21.44396 8.4007,0.0884 c 8.4007,0.13266 8.4007,0.13266 8.3566,1.14961 0,0.53056 -0.044,14.41383 -0.088,30.81737 l -0.088,29.84472 -11.4515,0 c -6.3227,0 -11.7611,-0.13256 -12.159,-0.26523 -0.398,-0.13267 -0.7074,-0.53056 -0.7074,-0.84009 0,-0.30952 -0.1327,-0.66323 -0.3095,-0.7516 -0.5748,-0.22115 -2.5645,-3.09502 -3.9351,-5.65947 -1.5034,-2.82978 -2.1223,-3.5372 -2.9624,-3.5372 -0.3979,0 -0.7074,-0.61894 -0.8843,-1.72436 -0.1326,-0.97265 -0.6189,-2.21074 -1.1496,-2.74131 -0.4864,-0.53056 -1.0611,-1.41484 -1.1937,-1.85692 -0.1769,-0.48638 -0.619,-1.28228 -1.0612,-1.72436 -0.3979,-0.4422 -1.1496,-1.54751 -1.5917,-2.47608 -0.4864,-0.88428 -1.1938,-1.98959 -1.5917,-2.47597 -0.4422,-0.48638 -0.7959,-1.01694 -0.7959,-1.23798 0,-0.17686 -0.3979,-0.35371 -0.8843,-0.35371 -0.6632,0 -0.8842,-0.30953 -0.8842,-1.1938 0,-1.14961 -1.6802,-4.11196 -2.2993,-4.11196 -0.221,0 -0.3536,-0.26533 -0.3536,-0.61904 0,-0.75161 -1.2822,-3.22758 -2.2108,-4.28882 -0.3536,-0.44208 -1.1495,-1.59169 -1.7686,-2.56434 -0.6189,-0.97275 -1.2821,-1.72436 -1.5474,-1.63599 -0.2211,0.0442 -0.9285,1.14961 -1.5476,2.3876 -0.6189,1.23798 -1.3263,2.29911 -1.5917,2.29911 -0.5305,0 -1.5033,1.85703 -1.5033,2.82979 0,0.35371 -0.2652,0.70742 -0.5747,0.84009 -0.4863,0.17685 -3.8025,4.73089 -5.3942,7.42801 -0.9285,1.50321 -2.2107,3.31606 -3.4045,4.73089 -0.6632,0.79591 -1.238,1.63599 -1.238,1.90122 0,0.26534 -0.7074,1.28228 -1.5475,2.29912 -0.8843,1.01694 -1.7244,2.3434 -1.857,2.91816 -0.1327,0.61904 -0.7074,1.50332 -1.2823,1.98969 -0.5748,0.53057 -2.3875,3.13921 -4.0677,5.79203 -1.6801,2.69712 -3.3603,4.86367 -3.6697,4.86367 -0.3537,0 -5.6595,-0.0442 -11.8053,-0.0884 z"
       id="path28"
       inkscape:connector-curvature="0" />
    <path
       d="m 1236.6138,307.43375 -41.0309,-0.13267 0,-7.42802 c 0,-4.06777 -0.1328,-7.78172 -0.2653,-8.2681 -0.2211,-0.88427 -0.044,-0.88427 40.5888,-0.75171 l 40.8099,0.0884 0.7516,-0.97265 c 0.9286,-1.19379 1.017,-2.82978 0.2654,-4.46566 l -0.5749,-1.1938 -40.1024,0 c -35.4157,0 -40.1467,0.0884 -40.1467,0.66323 0,0.7958 -1.3264,0.88428 -1.3264,0.13267 0,-0.30952 -0.088,-9.37352 -0.1328,-20.16178 l -0.088,-19.54285 8.3566,0.0884 8.3564,0.13267 0.044,11.49578 0.044,11.49568 21.0019,0.13267 c 11.5399,0.0884 21.8418,0 22.903,-0.13267 1.459,-0.22104 1.857,-0.44209 1.857,-1.10532 0,-0.53056 0.7074,-1.32646 1.7243,-2.03388 2.1223,-1.37066 2.6087,-2.3876 1.3707,-2.69701 -1.1496,-0.30953 -1.1496,-1.45914 0,-1.45914 0.4864,0 0.8843,0.22104 0.8843,0.44219 0,0.92846 1.8128,0.3979 2.2107,-0.66323 0.2211,-0.57486 0.7959,-1.32647 1.3265,-1.63599 0.4864,-0.30941 0.8843,-0.79579 0.8843,-1.10532 0,-0.30952 0.5747,-0.97275 1.2821,-1.50332 0.7074,-0.53056 1.4149,-1.28217 1.5475,-1.68017 0.5307,-1.41484 1.415,-2.60864 2.8298,-3.80244 0.7958,-0.66312 1.4149,-1.45902 1.4149,-1.81273 0,-0.30952 0.5747,-1.01694 1.2821,-1.54751 0.7074,-0.53056 1.3707,-1.32646 1.5033,-1.72436 0.1769,-0.75161 0.9728,-0.84009 8.7545,-0.97276 4.7309,-0.0884 9.0197,0 9.5945,0.17686 1.238,0.44219 1.238,1.45913 -0.088,2.7413 -0.5306,0.57486 -1.1496,1.37066 -1.2823,1.76855 -0.1767,0.39801 -0.9726,1.14961 -1.8569,1.63599 -0.8401,0.53057 -1.5475,1.1938 -1.5475,1.54751 0,0.30952 -0.4864,0.92846 -1.1053,1.32646 -0.6191,0.3979 -1.1054,0.92847 -1.1054,1.14951 0,0.26533 -1.5918,2.29922 -3.5372,4.55415 -1.9454,2.25492 -3.5371,4.33299 -3.5371,4.55404 0,0.26533 -0.5749,0.84008 -1.2822,1.23798 -1.2381,0.70742 -2.5203,2.69712 -2.0782,3.1392 0.088,0.13267 1.857,0.26534 3.9351,0.35382 2.7855,0.13256 4.333,0.44208 6.3227,1.32636 1.4148,0.61904 2.6971,1.28228 2.8297,1.45913 0.1327,0.17686 0.619,0.53057 1.0612,0.79579 0.4863,0.26534 1.061,0.84009 1.3264,1.32647 0.2652,0.44219 0.619,0.92846 0.7959,1.06113 0.1768,0.13267 0.6631,1.06113 1.0611,1.9897 0.619,1.45902 0.7516,3.31605 0.7516,10.39036 0,10.16932 -0.1768,10.78836 -4.0678,14.5465 -2.078,2.03389 -3.2717,2.82979 -5.9245,3.80244 -1.8572,0.66323 -3.6699,1.10542 -4.0236,0.97275 -0.398,-0.17685 -0.7959,-0.0884 -0.9286,0.13267 -0.1767,0.26523 -0.7958,0.3979 -1.459,0.35371 -0.6632,-0.0884 -19.6312,-0.17685 -42.1805,-0.22104 z"
       id="path30"
       inkscape:connector-curvature="0" />
    <path
       d="m 1346.4425,306.77051 c -0.088,-0.44219 -0.3538,-0.7959 -0.5748,-0.7959 -0.2211,0 -0.398,-0.30952 -0.398,-0.66323 0,-0.35371 -0.1768,-0.66323 -0.4421,-0.66323 -0.2211,0 -0.4422,-0.26523 -0.4422,-0.61894 0,-0.35371 -0.3094,-0.70742 -0.6631,-0.88428 -0.3537,-0.13266 -0.6633,-0.53056 -0.6633,-0.92856 0,-0.35371 -0.1768,-0.66313 -0.4422,-0.66313 -0.221,0 -0.442,-0.30952 -0.442,-0.66323 0,-0.35371 -0.2654,-0.66324 -0.6191,-0.66324 -0.3095,0 -0.7074,-0.35371 -0.8401,-0.75171 -0.3537,-1.10532 -1.68,-3.1392 -2.8297,-4.46556 -0.5747,-0.61905 -1.0169,-1.28228 -1.0169,-1.50332 0,-0.61905 -1.0612,-1.54751 -2.0339,-1.76855 -0.4422,-0.0884 -0.8843,-0.53056 -0.9726,-0.97275 -0.1327,-0.70742 0,-0.79591 0.8399,-0.48638 0.5749,0.22104 5.1289,0.44219 10.081,0.53056 8.8428,0.17686 8.9755,0.17686 10.0366,-0.79579 0.8843,-0.7959 1.017,-1.28228 0.7958,-2.34341 -0.2652,-1.14961 -0.1767,-1.23798 0.7076,-1.01694 0.7074,0.17685 1.2379,-0.0442 1.7685,-0.70742 0.4421,-0.53057 0.7074,-1.10532 0.5748,-1.28217 -0.088,-0.22115 -6.2784,-0.35371 -13.7065,-0.35371 l -13.5738,0 -1.459,-1.5918 c -0.7959,-0.88428 -1.5918,-2.07808 -1.7244,-2.65283 -0.177,-0.57475 -0.5306,-1.06113 -0.8401,-1.06113 -0.3095,0 -0.7074,-0.48638 -0.8401,-1.10542 -0.1326,-0.57475 -0.7517,-1.5917 -1.3706,-2.25493 -0.5749,-0.61894 -1.3264,-1.72436 -1.6359,-2.43178 -0.3095,-0.70742 -0.7075,-1.28217 -0.8844,-1.28217 -0.221,0 -0.3537,-0.22115 -0.3537,-0.44219 0,-0.26523 -0.5306,-1.06113 -1.1938,-1.76855 -2.2107,-2.34341 -2.7855,-3.09502 -2.7855,-3.53721 0,-0.61894 -0.9285,-2.16644 -1.857,-3.18339 -0.4421,-0.44219 -0.7958,-1.10531 -0.7958,-1.45913 0,-0.35371 -0.1769,-0.66312 -0.4421,-0.66312 -0.2211,0 -0.4422,-0.26534 -0.4422,-0.61905 0,-0.35371 -0.3979,-0.7959 -0.8843,-0.92846 -0.4864,-0.13267 -0.8843,-0.57486 -0.8843,-0.92857 0,-0.35371 -0.1769,-0.61894 -0.3979,-0.61894 -0.2211,0 -0.5748,-0.57486 -0.84,-1.23798 -0.2212,-0.70753 -0.7075,-1.54751 -1.0613,-1.90133 -0.3095,-0.35371 -1.0611,-1.37054 -1.6359,-2.29911 -0.5748,-0.92846 -1.238,-1.90122 -1.5474,-2.21074 -0.6191,-0.66323 -2.0339,-3.58129 -2.0339,-4.24452 0,-0.35371 2.2106,-0.48638 6.9858,-0.48638 3.8024,0 7.6933,-0.13267 8.6218,-0.26533 1.4591,-0.26523 1.636,-0.17686 1.636,0.70742 0,0.53067 0.7074,1.63598 1.5475,2.47607 0.8401,0.7958 1.5475,1.76855 1.5475,2.16645 0,0.35371 0.2652,0.66323 0.5748,0.66323 0.5305,0 2.5201,2.74131 2.5201,3.53721 0,0.22104 0.398,0.61893 0.8844,0.88427 0.4864,0.26523 0.8843,0.70742 0.8843,1.01694 0,0.30953 0.3979,0.7958 0.8842,1.10532 0.4864,0.30952 0.8844,0.84009 0.8844,1.1938 0,0.35371 0.221,0.66323 0.4421,0.66323 0.2652,0 0.4422,0.30952 0.4422,0.66323 0,0.35371 0.221,0.66324 0.4863,0.66324 0.7074,0 1.7243,1.1495 1.7243,1.9454 0,0.3979 0.2211,0.70742 0.4422,0.70742 0.2653,0 0.4421,0.30952 0.4421,0.66323 0,0.35371 0.2653,0.66324 0.5749,0.66324 0.2652,0 1.1053,0.88427 1.8127,1.98959 l 1.238,2.03388 15.2098,-0.13267 15.1656,-0.13256 1.5474,-1.50332 c 0.8843,-0.84009 1.5918,-1.72436 1.5918,-1.90122 0,-0.3537 0.9726,-1.5475 3.8466,-4.59833 0.5306,-0.57475 1.0611,-1.41484 1.238,-1.90122 0.1327,-0.48638 0.7517,-1.28217 1.3265,-1.72436 0.7517,-0.61905 0.9726,-1.10532 0.7959,-2.03389 -0.2212,-1.01694 -0.1328,-1.19379 0.5747,-1.06112 0.7516,0.13266 2.3876,-1.28218 2.3876,-2.07808 0,-0.17685 0.4864,-0.88427 1.1053,-1.63588 0.6191,-0.70752 1.1054,-1.5475 1.1054,-1.90121 0,-0.30953 0.3979,-0.66324 0.8401,-0.79591 0.4863,-0.0884 0.9285,-0.66323 1.0169,-1.23798 0.088,-0.75171 0.398,-1.06113 1.1496,-1.01694 0.5305,0 4.4656,0.0442 8.7103,0.0884 4.4655,0.0442 7.7374,0.26523 7.7374,0.48638 0,0.22104 -0.221,0.97265 -0.5305,1.68007 -0.2653,0.66323 -0.4422,1.5918 -0.398,2.03388 0.044,0.39801 -0.1768,0.75172 -0.5305,0.75172 -0.4864,0 -1.9897,2.03377 -4.9521,6.58792 -0.221,0.3979 -0.9726,1.37065 -1.6359,2.16645 -0.7075,0.7959 -1.238,1.63599 -1.238,1.81284 0,0.22104 -0.7958,1.37065 -1.8128,2.52026 -0.9727,1.19369 -1.9012,2.69701 -2.0339,3.36025 -0.1326,0.66323 -0.4863,1.28217 -0.8401,1.41484 -0.3536,0.13266 -0.6189,0.66323 -0.6189,1.14961 0,0.48638 -0.3095,0.88427 -0.6632,0.88427 -0.3537,0 -0.6633,0.17686 -0.6633,0.3979 0,0.22115 -0.7959,1.37065 -1.8127,2.52026 -0.9728,1.1938 -1.9013,2.69712 -2.0339,3.36025 -0.1326,0.66323 -0.9285,1.98969 -1.7243,2.96245 -0.8401,0.92846 -1.5034,2.03378 -1.5034,2.43178 0,0.3979 -0.2652,0.70742 -0.5747,0.70742 -0.6191,0 -1.636,1.76855 -1.636,2.87387 0,0.35381 -0.2652,0.66323 -0.5748,0.66323 -0.5305,0 -2.5202,2.25493 -2.5202,2.87397 0,0.22104 -3.1392,4.68671 -6.2784,8.84285 -1.1496,1.50333 -1.6802,2.65294 -1.6802,3.66988 0,1.06113 -0.1769,1.41484 -0.7958,1.41484 -0.4422,0 -1.5034,1.01694 -2.4761,2.3433 l -1.6801,2.29922 -8.8429,0 c -8.0912,0 -8.9313,-0.0884 -9.1081,-0.75171 z"
       id="path32"
       inkscape:connector-curvature="0" />
    <path
       d="m 1457.0226,307.43375 -40.8098,-0.13267 0,-7.42802 c 0,-4.06777 -0.1327,-7.78172 -0.2653,-8.2681 -0.2211,-0.88427 0,-0.88427 35.7253,-0.88427 25.5117,-0.0442 36.521,-0.17686 37.936,-0.53057 1.1053,-0.30952 3.4045,-1.28227 5.0846,-2.21074 2.9181,-1.59169 3.095,-1.81284 3.2277,-3.36035 0.088,-1.01694 0.3537,-1.63588 0.7516,-1.63588 0.9285,0 1.1053,-1.06113 1.1053,-6.63222 0,-4.06766 -0.1326,-5.30565 -0.6631,-5.74784 -0.3537,-0.30952 -0.6633,-0.84008 -0.6633,-1.14961 0,-0.35371 -0.1768,-0.61894 -0.398,-0.61894 -0.221,0 -0.4862,-0.44219 -0.5747,-0.97275 -0.088,-0.57475 -0.4864,-1.06113 -0.9727,-1.1938 -0.4864,-0.0884 -1.5918,-0.57475 -2.4319,-1.10532 -3.2275,-2.03388 -3.2275,-2.03388 -32.5417,-2.03388 -23.6989,0 -28.032,0.0884 -28.4742,0.61905 -0.3978,0.48627 -0.5305,3.49291 -0.4421,10.74407 l 0.088,10.08083 -8.3566,0.13267 -8.3564,0.0884 0,-19.89644 0,-19.94074 42.4457,0.13267 42.4459,0.13266 2.9624,1.01695 c 1.6358,0.53056 3.2276,1.23798 3.5372,1.5475 0.3095,0.26523 1.5474,1.01684 2.697,1.63588 1.1496,0.57476 2.078,1.41484 2.078,1.76855 0,0.39801 0.5748,1.14961 1.3265,1.68018 2.1665,1.63599 2.2991,2.91816 2.2549,23.83155 0,18.79113 0,19.14484 -0.9727,21.22291 -0.5306,1.1938 -0.9285,2.43178 -0.8843,2.82979 0.088,0.92846 -1.1053,1.90121 -1.9011,1.59169 -0.3538,-0.13267 -0.8844,0.0442 -1.1939,0.3979 -1.3264,1.59169 -7.5165,3.97929 -11.0094,4.24462 -1.1053,0.0884 -20.3387,0.0884 -42.7554,0.0442 z"
       id="path34"
       inkscape:connector-curvature="0" />
    <path
       d="m 1539.4383,307.12422 c -1.1495,-0.35371 -2.4759,-0.53056 -2.9623,-0.39789 -0.619,0.17685 -0.8843,0 -0.8843,-0.48638 0,-0.39801 -0.3537,-0.70742 -0.8401,-0.70742 -0.4864,0 -1.0169,-0.398 -1.1495,-0.88438 -0.1327,-0.48627 -0.5749,-0.88428 -0.9285,-0.88428 -0.3538,0 -0.619,-0.17685 -0.619,-0.39789 0,-0.22105 -0.398,-0.30953 -0.9286,-0.17686 -0.7074,0.22104 -0.8842,0.0884 -0.7516,-0.61904 0.1326,-0.97265 -0.7959,-2.34331 -1.5918,-2.34331 -0.6631,0 -2.4759,-4.59833 -2.7855,-7.16278 -0.2209,-1.90122 -0.1767,-2.12226 0.6191,-2.12226 0.4421,0 1.1053,-0.26534 1.3706,-0.53056 0.4422,-0.4422 0.7516,-0.4422 1.4149,0 0.6632,0.39789 11.761,0.53056 48.8127,0.53056 37.9359,0 47.9726,0.13267 48.1496,0.57475 0.1767,0.44219 0.2652,0.44219 0.2652,0 0.044,-0.79579 1.3706,-0.70742 1.3706,0.0442 0,0.30952 -0.3979,0.70742 -0.8842,0.84009 -0.8401,0.22104 -0.8844,0.61904 -0.8844,7.56068 l 0,7.33964 -40.4118,0 c -22.1958,0 -41.2522,0.0884 -42.3133,0.22104 -1.0611,0.0884 -2.874,-0.0884 -4.0678,-0.3979 z"
       id="path36"
       inkscape:connector-curvature="0" />
    <path
       d="m 1649.886,307.03574 c -2.8739,-0.70742 -6.8533,-2.56445 -6.8533,-3.1392 0,-0.30952 -0.2652,-0.57475 -0.5747,-0.57475 -0.7076,0 -3.4046,-2.74131 -3.4046,-3.44873 0,-0.30952 -0.1768,-0.53056 -0.3979,-0.53056 -0.221,0 -0.7516,-0.75171 -1.1496,-1.63599 -0.6632,-1.37065 -0.7958,-2.87386 -0.7958,-9.19656 0,-9.55027 0.3096,-11.58416 1.9011,-13.08748 0.7076,-0.61905 1.5477,-1.28217 1.9456,-1.41484 0.3979,-0.17685 0.7074,-0.44219 0.7074,-0.66323 0,-0.92846 3.7582,-2.91816 6.8974,-3.66977 3.095,-0.75171 6.1017,-0.7959 36.7865,-0.84009 24.3178,0 33.5587,-0.17685 34.0009,-0.53056 0.3977,-0.30952 0.5747,-1.23798 0.4863,-2.74131 l -0.1327,-2.25492 -41.3405,-0.13267 c -26.7055,-0.0884 -41.4731,-0.26534 -41.7825,-0.57475 -0.2654,-0.26534 -0.2212,-0.70742 0.1325,-1.28228 0.7076,-1.1495 0.7517,-13.30852 0.044,-14.01594 -0.3095,-0.30952 -0.398,-0.84009 -0.2653,-1.1938 0.2653,-0.61904 4.5098,-0.70742 42.0037,-0.70742 40.3235,0 41.8268,0.0442 45.2313,0.88428 3.3603,0.84008 7.2955,2.52026 7.6049,3.22768 0.088,0.17685 0.4421,0.30952 0.7516,0.30952 0.3095,0 0.8843,0.70742 1.2823,1.54751 0.3979,0.83998 0.9285,1.5474 1.1054,1.5474 0.2209,0 0.84,1.06124 1.3706,2.34341 0.9285,2.03388 1.0169,3.05083 1.1053,9.59457 0.044,8.09124 -0.5748,12.64528 -2.0338,13.97175 -0.4421,0.39789 -0.8401,1.01694 -0.8401,1.37065 0,0.30952 -0.3095,0.57475 -0.6632,0.57475 -0.3979,0 -1.5475,0.44219 -2.5645,0.97276 -4.2888,2.16644 -3.9351,2.16644 -41.252,2.12226 -30.0658,-0.0442 -35.062,0.0442 -35.5042,0.61904 -0.3095,0.3979 -0.4864,1.72436 -0.3979,3.44873 l 0.1327,2.78549 41.5615,0 41.5615,0 -0.1326,8.17962 c -0.088,4.50985 -0.221,8.22391 -0.2653,8.2681 -0.044,0.0442 -19.0564,0.17686 -42.269,0.22104 -28.4741,0.0884 -42.7553,0 -43.9933,-0.35371 z"
       id="path38"
       inkscape:connector-curvature="0" />
    <path
       d="m 216.6757,306.72633 c 0,-0.7959 -1.06116,-2.96246 -1.41487,-2.96246 -0.22107,0 -0.35371,-0.26523 -0.35371,-0.61894 0,-0.35371 -0.3095,-0.70742 -0.66322,-0.88427 -0.35372,-0.13267 -0.66321,-0.48638 -0.66321,-0.75171 0,-0.26523 -0.35372,-0.84009 -0.79586,-1.23799 -0.44214,-0.3979 -1.19379,-1.37065 -1.63593,-2.12226 -0.48637,-0.7959 -1.10537,-1.45913 -1.41486,-1.45913 -0.3095,0 -0.57479,-0.17686 -0.57479,-0.44208 0,-0.22115 -0.30951,-0.4422 -0.70744,-0.4422 -0.39793,0 -0.619,-0.30952 -0.53056,-0.7516 0.0884,-0.44219 -0.22108,-1.14961 -0.70744,-1.5917 -0.75164,-0.66323 -0.79586,-0.92857 -0.35371,-1.5475 0.3095,-0.39801 0.66322,-1.10543 0.79586,-1.50332 0.35372,-0.97276 1.32643,-1.01695 1.68015,-0.13267 0.17685,0.57475 1.50329,0.66323 7.78173,0.66323 l 7.60488,0 1.37064,-1.41484 c 1.90122,-1.85703 3.40452,-3.9351 3.40452,-4.64252 0,-0.44219 -2.74129,-0.57475 -13.70647,-0.57475 l -13.66225,0 -1.8128,-2.60875 c -0.97271,-1.45902 -1.76857,-2.87386 -1.76857,-3.09501 0,-0.26523 -0.17687,-0.48627 -0.44215,-0.48627 -0.22107,0 -0.44214,-0.30952 -0.44214,-0.66323 0,-0.35371 -0.17686,-0.66324 -0.44215,-0.66324 -0.22107,0 -0.44214,-0.30952 -0.44214,-0.66323 0,-0.35371 -0.17686,-0.66323 -0.44214,-0.66323 -0.22107,0 -0.44215,-0.17686 -0.44215,-0.44209 0,-0.22115 -0.48636,-0.88427 -1.10536,-1.50332 -0.619,-0.61904 -1.10536,-1.41484 -1.10536,-1.81284 0,-0.35371 -0.17685,-0.66313 -0.44215,-0.66313 -0.22107,0 -0.44214,-0.30952 -0.44214,-0.66323 0,-0.35371 -0.17686,-0.66323 -0.44214,-0.66323 -0.22107,0 -0.44214,-0.30952 -0.44214,-0.66323 0,-0.35371 -0.39794,-0.66324 -0.88429,-0.66324 -0.66322,0 -0.88429,-0.30952 -0.88429,-1.28217 0,-1.06113 -0.13265,-1.23798 -0.8843,-1.06113 -0.70742,0.17686 -0.88428,0 -0.88428,-0.88427 0,-0.61905 -0.26529,-1.41495 -0.53058,-1.72436 -0.3095,-0.30953 -0.88428,-1.14961 -1.23799,-1.90133 -0.70744,-1.41484 -1.06115,-1.85692 -3.09502,-4.11185 -0.75165,-0.7959 -1.32643,-1.72436 -1.32643,-2.12237 0,-0.35371 -0.3095,-0.7516 -0.66321,-0.88427 -0.35372,-0.17685 -0.66322,-0.44208 -0.66322,-0.70742 0,-0.22104 -0.79586,-1.59169 -1.76858,-3.00653 -0.97272,-1.41495 -1.76857,-2.82979 -1.76857,-3.05083 0,-0.26534 -0.17686,-0.48638 -0.44215,-0.48638 -0.22107,0 -0.44214,-0.3979 -0.44214,-0.88427 0,-0.84009 0.3095,-0.88428 8.40074,-0.88428 4.64251,0 8.40073,0.17686 8.40073,0.35371 0,0.22104 0.48637,0.66323 1.10536,0.97276 0.61901,0.30941 1.10537,0.83998 1.10537,1.1938 0,0.30941 0.39793,0.79579 0.88429,1.10531 0.48636,0.30952 0.88428,0.7959 0.88428,1.10532 0,0.30952 0.17686,0.57486 0.39793,0.57486 0.22108,0 0.48636,0.35371 0.66321,0.79579 0.5748,1.76866 2.60866,4.06777 3.58138,4.06777 0.44214,0 0.66322,0.44208 0.66322,1.32647 0,0.88427 0.22107,1.32635 0.66321,1.32635 0.35371,0 0.66322,0.39801 0.66322,0.88428 0,0.48638 0.17686,0.88438 0.39793,0.88438 0.39793,0 4.46565,4.99613 4.46565,5.43832 0,0.13266 0.61901,0.88427 1.37065,1.68017 l 1.41486,1.50332 14.7234,0.13256 14.76761,0.13267 1.28223,-1.01694 c 1.45907,-1.14961 4.46565,-4.90775 4.46565,-5.61517 0,-0.26534 0.39793,-0.66323 0.88429,-0.92857 0.48635,-0.26523 0.88428,-0.92846 0.88428,-1.50332 0,-0.70742 0.61902,-1.50321 1.98965,-2.52016 1.06115,-0.84008 1.98965,-1.72436 1.98965,-1.9897 0,-0.26522 0.30951,-0.7516 0.66323,-1.06112 0.35371,-0.30953 0.66321,-1.10532 0.66321,-1.76855 0,-0.84009 0.26528,-1.28228 0.88428,-1.45914 0.53058,-0.13256 0.88429,-0.61894 0.88429,-1.1495 0,-0.61905 0.26529,-0.92857 0.88429,-0.92857 0.57479,0 0.88429,-0.30941 0.88429,-0.88427 0,-0.48638 0.22107,-0.88428 0.48637,-0.88428 0.26528,0 1.06114,-0.57475 1.81279,-1.32646 1.32642,-1.37055 2.29914,-1.68007 2.7855,-0.88428 0.17685,0.26534 2.74129,0.44219 6.19002,0.44219 3.44872,0 6.01316,-0.17685 6.19002,-0.44219 0.13263,-0.22104 0.53057,-0.44208 0.88428,-0.44208 0.70743,0 0.79586,2.43178 0.0884,3.75825 -0.26528,0.48627 -0.44213,1.23798 -0.35371,1.68006 0.0442,0.39801 -0.17685,0.75172 -0.53057,0.75172 -0.57478,0 -2.91815,2.60863 -3.53715,3.97929 -0.17687,0.35371 -1.32644,2.07807 -2.52022,3.75824 -1.23801,1.72437 -3.75823,5.39413 -5.61524,8.17962 -1.857,2.7855 -3.80244,5.65947 -4.37723,6.3227 -0.57478,0.70742 -1.06114,1.63588 -1.06114,2.12226 0,0.44219 -0.26529,0.84009 -0.57479,0.84009 -0.3095,0 -1.01692,0.7516 -1.54751,1.72436 -0.53056,0.92846 -1.2822,1.9454 -1.63592,2.25493 -0.39793,0.35371 -0.5748,0.92846 -0.39793,1.59169 0.22106,0.7959 0.0884,1.06113 -0.39793,1.06113 -0.75165,0 -3.40452,2.96235 -3.40452,3.84673 0,0.26523 -0.44213,1.06113 -0.97271,1.76855 -0.57479,0.66323 -1.19379,1.54751 -1.45907,1.9454 -1.54751,2.43178 -2.82973,4.24463 -3.49294,4.77519 -0.39794,0.30953 -0.70744,0.7958 -0.70744,1.06113 0,0.26534 -0.39792,0.88428 -0.84007,1.37065 -0.48637,0.53057 -1.37065,1.94541 -1.98964,3.13921 -0.66323,1.23798 -2.03388,3.22768 -3.0508,4.50985 l -1.85701,2.29922 -9.37346,0.0442 c -7.42801,0 -9.41767,-0.13267 -9.41767,-0.57486 z"
       id="path40"
       inkscape:connector-curvature="0" />
    <path
       d="m 548.06279,306.72633 c -0.61904,-0.7959 -1.50332,-2.16656 -1.85703,-2.91816 -0.13267,-0.30953 -0.70742,-1.06124 -1.1938,-1.5918 -0.53056,-0.57476 -1.23798,-1.5917 -1.59169,-2.25493 -0.97276,-1.81274 -2.43178,-3.27187 -3.31606,-3.27187 -0.53067,0 -0.70752,-0.26523 -0.53067,-0.88428 0.30952,-1.1495 -0.57475,-3.00653 -1.54751,-3.27187 -0.44208,-0.0884 -0.79579,-0.53056 -0.79579,-1.01694 0,-0.7516 0.48638,-0.79579 9.0639,-0.66323 l 9.01981,0.17696 1.59169,-1.1938 c 0.84009,-0.66323 1.54751,-1.37065 1.54751,-1.5918 0,-0.22104 0.48638,-1.1938 1.10532,-2.16644 l 1.10542,-1.76855 -14.14861,0 c -12.29168,0 -14.1486,0.0884 -14.1486,0.66312 0,0.35371 -0.30953,0.66324 -0.66324,0.66324 -0.35371,0 -0.66323,-0.30953 -0.66323,-0.66324 0,-0.35371 0.30952,-0.66312 0.70742,-0.66312 0.97276,0 0.44219,-2.07807 -0.75161,-3.13931 -0.44219,-0.3979 -0.84008,-0.97265 -0.84008,-1.23799 0,-0.26522 -0.30953,-0.61893 -0.66324,-0.7516 -0.35371,-0.17686 -0.66323,-0.53057 -0.66323,-0.84009 0,-0.30952 -0.26523,-0.66323 -0.61894,-0.7959 -0.35381,-0.13256 -0.75171,-0.84009 -0.88438,-1.50321 -0.17685,-0.70742 -0.70742,-1.54751 -1.1495,-1.90122 -0.48638,-0.35371 -0.88428,-0.88438 -0.88428,-1.23809 0,-0.30942 -0.30952,-0.66313 -0.66323,-0.7958 -0.35371,-0.17685 -0.66323,-0.53056 -0.66323,-0.88427 0,-0.30952 -0.26534,-0.75171 -0.57475,-0.92857 -0.30953,-0.17685 -0.92857,-1.1938 -1.41495,-2.21074 -0.48627,-1.06113 -1.01694,-1.90122 -1.1938,-1.90122 -0.22104,0 -0.35371,-0.30941 -0.35371,-0.66312 0,-0.35371 -0.17685,-0.66323 -0.44208,-0.66323 -0.22104,0 -0.44219,-0.17686 -0.44219,-0.4422 0,-0.22104 -0.35371,-0.79579 -0.75161,-1.23798 -1.45913,-1.54751 -2.21074,-2.56445 -2.82968,-3.97929 -0.35382,-0.7959 -0.75171,-1.41484 -0.92857,-1.41484 -0.22104,0 -0.35371,-0.17685 -0.35371,-0.398 0,-0.26523 -0.44219,-0.92846 -1.01694,-1.54751 -0.53056,-0.57475 -1.28217,-1.63588 -1.63588,-2.3433 -0.35371,-0.66323 -1.10542,-1.63599 -1.63599,-2.12226 -0.57475,-0.48638 -1.01694,-1.06124 -1.01694,-1.23809 0,-0.17686 -0.3979,-0.92846 -0.92846,-1.5917 -0.53057,-0.70742 -0.84009,-1.63588 -0.75161,-2.07807 0.13256,-0.7516 0.75161,-0.84009 7.42801,-1.06113 8.35648,-0.26533 9.32924,-0.17685 9.59446,0.92846 0.13267,0.44219 0.48638,0.88428 0.84009,1.01695 0.35371,0.13266 0.61905,0.53056 0.61905,0.88427 0,0.39801 0.39789,0.88428 0.88427,1.14961 0.48638,0.26534 0.88428,0.75161 0.88428,1.10532 0,0.35371 0.53056,0.7959 1.14961,0.92857 0.79579,0.22104 1.06113,0.53056 0.92846,1.10531 -0.13267,0.44219 0.0442,0.88428 0.3979,1.01695 0.3537,0.13266 0.61904,0.48637 0.61904,0.7959 0.0442,0.84008 2.34341,2.43178 2.56445,1.76855 0.22104,-0.75161 1.41484,-0.66324 1.41484,0.13266 0,0.35371 -0.30952,0.66324 -0.66323,0.66324 -0.35371,0 -0.66324,0.22104 -0.66324,0.44208 0,0.26534 0.26534,0.44219 0.57486,0.44219 0.30942,0 0.84009,0.70742 1.14951,1.54751 0.30952,0.88427 1.01694,1.85692 1.5918,2.25493 0.57475,0.39789 1.19369,1.28217 1.32636,1.98959 0.17685,0.70742 0.57486,1.28228 0.88427,1.28228 0.35371,0 0.75172,0.39789 0.88438,0.88427 0.17686,0.48638 0.75161,1.41484 1.32636,2.03388 l 1.01694,1.10532 15.07718,-0.13267 15.03288,-0.13256 1.54751,-1.50332 c 0.88428,-0.84009 1.59169,-1.81284 1.59169,-2.16655 0,-0.30952 0.61905,-1.10532 1.32647,-1.72436 1.28217,-1.06113 1.76855,-2.3433 0.88427,-2.3433 -0.22114,0 -0.44219,-0.30953 -0.44219,-0.70742 0,-0.53068 0.30953,-0.66324 1.10543,-0.53068 0.92846,0.17686 1.10531,0.0442 1.10531,-0.79579 0,-0.75171 0.26534,-1.06113 0.88428,-1.06113 0.53056,0 1.76855,-1.23798 3.5372,-3.49302 1.45903,-1.9454 2.65283,-3.66976 2.65283,-3.80243 0,-0.17686 0.92846,-1.37065 2.03388,-2.69701 l 2.03389,-2.3876 8.35647,0 c 9.63876,0 9.37342,-0.13267 6.7206,3.89081 -0.92846,1.41495 -1.85703,2.87397 -2.12226,3.27187 -0.22115,0.398 -1.10543,1.63599 -1.85703,2.7413 -0.7959,1.14962 -1.45903,2.34341 -1.45903,2.65294 0,0.30952 -0.57486,1.10531 -1.28228,1.76855 -0.70742,0.70741 -2.03388,2.47596 -2.96234,3.97928 -0.88428,1.45914 -2.03389,3.13921 -2.52027,3.66977 -0.48637,0.53057 -1.10531,1.37065 -1.37065,1.81284 -0.75161,1.28218 -2.91816,4.55404 -4.333,6.49956 -0.70742,0.97264 -2.38759,3.44872 -3.75825,5.52679 -4.99623,7.56058 -8.31228,12.37995 -12.91051,18.83532 -0.84009,1.1938 -1.50332,2.60864 -1.45913,3.1392 0.0442,0.75161 -0.17686,1.01694 -0.79591,1.01694 -0.48627,0 -0.88427,0.26523 -0.88427,0.57476 0,0.35371 -0.44208,1.01694 -1.01694,1.5475 -0.97265,0.92857 -1.37066,0.97276 -9.8598,0.97276 -6.54374,-0.0442 -8.93133,-0.17686 -9.24075,-0.57475 z"
       id="path42"
       inkscape:connector-curvature="0" />
    <path
       d="m 1625.3469,284.7517 c 0,-0.30952 -16.8898,-0.44208 -49.7853,-0.44208 l -49.7854,0 0.1767,-13.48549 c 0.088,-9.99246 0.2654,-13.57374 0.7076,-14.01593 0.2652,-0.26523 0.5305,-0.84009 0.5305,-1.23799 0,-0.3979 0.3979,-1.10542 0.8843,-1.54751 0.4863,-0.44219 0.8843,-1.06113 0.8843,-1.37065 0,-0.30952 0.6631,-0.97275 1.459,-1.45913 0.7959,-0.48627 1.857,-1.28217 2.2992,-1.81274 0.4421,-0.48638 1.1054,-0.88427 1.4591,-0.88427 0.3979,0 1.0169,-0.30953 1.459,-0.70742 0.3979,-0.35371 1.8128,-1.01695 3.0951,-1.41484 2.1222,-0.61905 6.9416,-0.75172 45.0545,-0.84009 l 42.6668,-0.17685 -0.088,8.97552 -0.088,8.97552 -41.2079,0.13267 c -30.4195,0.0442 -41.3846,0.22104 -41.8268,0.61893 -0.3979,0.30953 -0.5748,1.1938 -0.4863,2.52027 l 0.1326,2.03388 41.7827,0.13256 41.7825,0.0884 0,8.17972 c 0,6.23422 -0.1325,8.17962 -0.5305,8.17962 -0.3095,0 -0.5749,-0.17685 -0.5749,-0.44208 z"
       id="path44"
       inkscape:connector-curvature="0" />
    <path
       d="m 1092.6516,284.00009 -8.0469,-0.13266 0.088,-19.14484 0.1325,-19.10066 8.4008,-0.13266 8.4008,-0.0884 0,19.45437 c 0,12.73376 -0.1327,19.41017 -0.4422,19.36598 -0.2212,-0.0884 -4.0678,-0.17685 -8.5335,-0.22115 z"
       id="path46"
       inkscape:connector-curvature="0" />
  </g>
</svg>
